<?xml version="1.0" encoding="UTF-8"?>
<svg width="500" height="500" version="1.1" viewBox="0 0 132.29 132.29" xmlns="http://www.w3.org/2000/svg"><g><path class="st0" d="m132.28 66.144a66.144 66.144 0 0 1-66.144 66.144 66.144 66.144 0 0 1-66.144-66.144 66.144 66.144 0 0 1 66.144-66.144 66.144 66.144 0 0 1 66.144 66.144z" fill="#627eea" stroke-width=".18082"/><g transform="matrix(.18082 0 0 .18082 -48.178 -20.902)" fill="#fff"><path class="st1" d="m803.6 486.5-171.4-279.4v202.8z" fill-opacity=".602"/><path class="st2" d="m632.2 409.9v-202.8l-171.4 279.4z"/><path class="st1" d="m803.7 518.4-171.5 99.5v137.8z" fill-opacity=".602"/><path class="st2" d="m460.8 518.4 171.4 237.3v-137.8z"/><path class="st3" d="m632.2 409.9v176.1l171.4-99.5z" fill-opacity=".2"/><path class="st1" d="m632.2 409.9-171.4 76.6 171.4 99.5z" fill="#fff" fill-opacity=".602"/></g></g></svg>
