<?xml version="1.0" encoding="UTF-8"?>
<svg version="1.1" viewBox="0 0 500 500" xmlns="http://www.w3.org/2000/svg"><g transform="scale(.20032)"><path d="m1248 0c689.3 0 1248 558.7 1248 1248s-558.7 1248-1248 1248-1248-558.7-1248-1248 558.7-1248 1248-1248z" clip-rule="evenodd" fill="#f0b90b" fill-rule="evenodd"/><g fill="#fff"><path d="m685.9 1248 0.9 330 280.4 165v193.2l-444.5-260.7v-524zm0-330v192.3l-163.3-96.6v-192.3l163.3-96.6 164.1 96.6zm398.4-96.6 163.3-96.6 164.1 96.6-164.1 96.6z"/><path d="m803.9 1509.6v-193.2l163.3 96.6v192.3zm280.4 302.6 163.3 96.6 164.1-96.6v192.3l-164.1 96.6-163.3-96.6zm561.6-990.8 163.3-96.6 164.1 96.6v192.3l-164.1 96.6v-192.3zm163.3 756.6 0.9-330 163.3-96.6v524l-444.5 260.7v-193.2z"/><polygon points="1528.8 1605.3 1528.8 1413 1692.1 1316.4 1692.1 1509.6"/><path d="m1692.1 986.4 0.9 193.2-281.2 165v330.8l-163.3 95.7-163.3-95.7v-330.8l-281.2-165v-193.2l164-96.6 279.5 165.8 281.2-165.8 164.1 96.6zm-888.2-329.9 443.7-261.6 444.5 261.6-163.3 96.6-281.2-165.8-280.4 165.8z"/></g></g></svg>
