<?xml version="1.0" encoding="UTF-8"?>
<svg version="1.1" viewBox="0 0 900 900" xmlns="http://www.w3.org/2000/svg"><defs><linearGradient id="a" x1="300.55" x2="547.98" y1="184.63" y2="425.53" gradientTransform="matrix(.27166 0 0 -.26458 197.36 218.96)" gradientUnits="userSpaceOnUse"><stop stop-color="#CF41E8" offset="0"/><stop stop-color="#10F2B0" offset="1"/></linearGradient></defs><title>Tether logo</title><g transform="translate(0 200)"><g transform="matrix(3.7639,0,0,3.763,-523.04,-270.53)" stroke-width=".2681"><path class="st0" d="m311.6 71.892h0.10869c36.647 0 66.367 28.945 66.367 64.638v3.5983c0 35.692-29.72 64.638-66.367 64.638h-0.10869c-36.647 0-66.367-28.945-66.367-64.638v-3.5983c0-35.692 29.72-64.638 66.367-64.638z" fill="#232323"/><path class="st1" d="m340.04 121.9c-0.21735 0.23813-0.48901 0.42333-0.78782 0.52917-0.29885 0.13229-0.62484 0.18521-0.95083 0.18521h-61.532c-2.1733 0-3.2871-2.6458-1.7658-4.2333l10.106-10.451c0.21733-0.23812 0.48899-0.42333 0.81499-0.55562 0.29883-0.1323 0.62482-0.18521 0.95082-0.18521h61.776c2.2005 0 3.2871 2.6723 1.7386 4.2598zm0 46.725c-0.46184 0.44979-1.0867 0.71437-1.7386 0.71437h-61.532c-2.1733 0-3.2871-2.5929-1.7658-4.1275l10.106-10.213c0.21733-0.23813 0.51616-0.42334 0.81499-0.52917 0.29883-0.13229 0.62482-0.18521 0.95082-0.18521h61.776c2.2005 0 3.2871 2.6194 1.7386 4.154zm0-37.174c-0.46184-0.44979-1.0867-0.71438-1.7386-0.71438h-61.532c-2.1733 0-3.2871 2.5929-1.7658 4.1275l10.106 10.213c0.21733 0.23813 0.51616 0.42333 0.81499 0.52917 0.29883 0.13229 0.62482 0.18521 0.95082 0.18521h61.776c2.2005 0 3.2871-2.6194 1.7386-4.154z" fill="url(#a)"/></g><g stroke-width="2.249"><path d="m500 250a250 250 0 0 1-250 250 250 250 0 0 1-250-250 250 250 0 0 1 250-250 250 250 0 0 1 250 250z" fill="#26a17b"/><path d="m276.65 273.07c-1.7317 0.11245-10.66 0.65221-30.497 0.65221-15.878 0-26.988-0.4498-30.946-0.65221-61.061-2.6988-106.58-13.314-106.58-26.044s45.587-23.345 106.58-26.044v41.517c3.9808 0.29237 15.428 0.96708 31.239 0.96708 18.959 0 28.45-0.80965 30.227-0.96708v-41.472c60.926 2.7438 106.36 13.337 106.36 26.044s-45.452 23.3-106.36 26.044m0-56.383v-37.154h85.013v-56.63h-231.45v56.63h85.013v37.131c-69.09 3.1711-121.02 16.845-121.02 33.24s51.975 30.069 121.02 33.285v119.04h61.443v-119.04c68.977-3.1711 120.82-16.845 120.82-33.24s-51.84-30.069-120.82-33.24" fill="#fff"/></g></g></svg>
