<?xml version="1.0" encoding="UTF-8"?>
<svg version="1.1" viewBox="0 0 900 900" xmlns="http://www.w3.org/2000/svg"><title>Tether logo</title><g transform="translate(0,200)"><g transform="matrix(15.625,0,0,15.625,400,0)"><path d="m32 16a16 16 0 0 1-16 16 16 16 0 0 1-16-16 16 16 0 0 1 16-16 16 16 0 0 1 16 16z" fill="#ef0027"/><path d="m21.932 9.913-14.432-2.656 7.595 19.112 10.583-12.894zm-0.232 1.17 2.208 2.099-6.038 1.093zm-5.142 2.973-6.364-5.278 10.402 1.914zm-0.453 0.934-1.038 8.58-5.595-14.083 6.633 5.502zm0.96 0.455 6.687-1.21-7.67 9.343z" fill="#fff"/></g><g stroke-width="2.249"><path d="m500 250a250 250 0 0 1-250 250 250 250 0 0 1-250-250 250 250 0 0 1 250-250 250 250 0 0 1 250 250z" fill="#26a17b"/><path d="m276.65 273.07c-1.7317 0.11245-10.66 0.65221-30.497 0.65221-15.878 0-26.988-0.4498-30.946-0.65221-61.061-2.6988-106.58-13.314-106.58-26.044s45.587-23.345 106.58-26.044v41.517c3.9808 0.29237 15.428 0.96708 31.239 0.96708 18.959 0 28.45-0.80965 30.227-0.96708v-41.472c60.926 2.7438 106.36 13.337 106.36 26.044s-45.452 23.3-106.36 26.044m0-56.383v-37.154h85.013v-56.63h-231.45v56.63h85.013v37.131c-69.09 3.1711-121.02 16.845-121.02 33.24s51.975 30.069 121.02 33.285v119.04h61.443v-119.04c68.977-3.1711 120.82-16.845 120.82-33.24s-51.84-30.069-120.82-33.24" fill="#fff"/></g></g></svg>
