<?xml version="1.0" encoding="UTF-8"?>
<svg width="900" height="900" version="1.1" viewBox="0 0 238.12 238.12" xmlns="http://www.w3.org/2000/svg"><g><g><g transform="matrix(.052959 0 0 .052959 113.25 52.917)"><path class="st1" d="m226 760v980c0 63 33 120 88 152l849 490c54 31 121 31 175 0l849-490c54-31 88-89 88-152v-980c0-63-33-120-88-152l-849-490c-54-31-121-31-175 0l-849 490c-54 31-87 89-87 152z" fill="#213147"/><g><g><g><path class="st2" d="m1435 1440-121 332c-3 9-3 19 0 29l208 571 241-139-289-793c-7-18-32-18-39 0z" fill="#12aaff"/></g><g><path class="st2" d="m1678 882c-7-18-32-18-39 0l-121 332c-3 9-3 19 0 29l341 935 241-139-422-1156z" fill="#12aaff"/></g></g></g><g><path class="st3" d="m1250 155c6 0 12 2 17 5l918 530c11 6 17 18 17 30v1060c0 12-7 24-17 30l-918 530c-5 3-11 5-17 5s-12-2-17-5l-918-530c-11-6-17-18-17-30v-1061c0-12 7-24 17-30l918-530c5-3 11-5 17-5zm0-155c-33 0-65 8-95 25l-918 530c-59 34-95 96-95 164v1060c0 68 36 130 95 164l918 530c29 17 62 25 95 25s65-8 95-25l918-530c59-34 95-96 95-164v-1060c0-68-36-130-95-164l-919-530c-29-17-62-25-95-25z" fill="#9dcced"/></g><path class="st1" d="m897 2088-159 146-96-55 85-232z" fill="#213147"/><g fill="#fff"><path class="st4" d="m1172 644h-233c-17 0-33 11-39 27l-499 1368 241 139 550-1507c5-14-5-28-19-28z"/><path class="st4" d="m1580 644h-233c-17 0-33 11-39 27l-570 1562 241 139 620-1701c5-14-5-28-19-28z"/></g></g><g transform="matrix(.26458 0 0 .26458 0 52.917)" stroke-width="2.249"><path d="m500 250a250 250 0 0 1-250 250 250 250 0 0 1-250-250 250 250 0 0 1 250-250 250 250 0 0 1 250 250z" fill="#26a17b"/><path d="m276.65 273.07c-1.7317 0.11245-10.66 0.65221-30.497 0.65221-15.878 0-26.988-0.4498-30.946-0.65221-61.061-2.6988-106.58-13.314-106.58-26.044s45.587-23.345 106.58-26.044v41.517c3.9808 0.29237 15.428 0.96708 31.239 0.96708 18.959 0 28.45-0.80965 30.227-0.96708v-41.472c60.926 2.7438 106.36 13.337 106.36 26.044s-45.452 23.3-106.36 26.044m0-56.383v-37.154h85.013v-56.63h-231.45v56.63h85.013v37.131c-69.09 3.1711-121.02 16.845-121.02 33.24s51.975 30.069 121.02 33.285v119.04h61.443v-119.04c68.977-3.1711 120.82-16.845 120.82-33.24s-51.84-30.069-120.82-33.24" fill="#fff"/></g></g></g></svg>
