<?xml version="1.0" encoding="UTF-8"?>
<svg width="900" height="900" version="1.1" viewBox="0 0 238.12 238.12" xmlns="http://www.w3.org/2000/svg"><g><g><g transform="matrix(.052959 0 0 .052959 113.25 52.917)"><path class="st1" d="m226 760v980c0 63 33 120 88 152l849 490c54 31 121 31 175 0l849-490c54-31 88-89 88-152v-980c0-63-33-120-88-152l-849-490c-54-31-121-31-175 0l-849 490c-54 31-87 89-87 152z" fill="#213147"/><g><g><g><path class="st2" d="m1435 1440-121 332c-3 9-3 19 0 29l208 571 241-139-289-793c-7-18-32-18-39 0z" fill="#12aaff"/></g><g><path class="st2" d="m1678 882c-7-18-32-18-39 0l-121 332c-3 9-3 19 0 29l341 935 241-139-422-1156z" fill="#12aaff"/></g></g></g><g><path class="st3" d="m1250 155c6 0 12 2 17 5l918 530c11 6 17 18 17 30v1060c0 12-7 24-17 30l-918 530c-5 3-11 5-17 5s-12-2-17-5l-918-530c-11-6-17-18-17-30v-1061c0-12 7-24 17-30l918-530c5-3 11-5 17-5zm0-155c-33 0-65 8-95 25l-918 530c-59 34-95 96-95 164v1060c0 68 36 130 95 164l918 530c29 17 62 25 95 25s65-8 95-25l918-530c59-34 95-96 95-164v-1060c0-68-36-130-95-164l-919-530c-29-17-62-25-95-25z" fill="#9dcced"/></g><path class="st1" d="m897 2088-159 146-96-55 85-232z" fill="#213147"/><g fill="#fff"><path class="st4" d="m1172 644h-233c-17 0-33 11-39 27l-499 1368 241 139 550-1507c5-14-5-28-19-28z"/><path class="st4" d="m1580 644h-233c-17 0-33 11-39 27l-570 1562 241 139 620-1701c5-14-5-28-19-28z"/></g></g><g transform="matrix(.066146 0 0 .066146 0 52.917)"><path d="m1e3 2e3c554.17 0 1e3 -445.83 1e3 -1e3s-445.83-1e3 -1e3 -1e3 -1e3 445.83-1e3 1e3 445.83 1e3 1e3 1e3z" fill="#2775ca"/><path d="m1275 1158.3c0-145.83-87.5-195.83-262.5-216.66-125-16.67-150-50-150-108.34s41.67-95.83 125-95.83c75 0 116.67 25 137.5 87.5 4.17 12.5 16.67 20.83 29.17 20.83h66.66c16.67 0 29.17-12.5 29.17-29.16v-4.17c-16.67-91.67-91.67-162.5-187.5-170.83v-100c0-16.67-12.5-29.17-33.33-33.34h-62.5c-16.67 0-29.17 12.5-33.34 33.34v95.83c-125 16.67-204.16 100-204.16 204.17 0 137.5 83.33 191.66 258.33 212.5 116.67 20.83 154.17 45.83 154.17 112.5s-58.34 112.5-137.5 112.5c-108.34 0-145.84-45.84-158.34-108.34-4.16-16.66-16.66-25-29.16-25h-70.84c-16.66 0-29.16 12.5-29.16 29.17v4.17c16.66 104.16 83.33 179.16 220.83 200v100c0 16.66 12.5 29.16 33.33 33.33h62.5c16.67 0 29.17-12.5 33.34-33.33v-100c125-20.84 208.33-108.34 208.33-220.84z" fill="#fff"/><path d="m787.5 1595.8c-325-116.66-491.67-479.16-370.83-800 62.5-175 200-308.33 370.83-370.83 16.67-8.33 25-20.83 25-41.67v-58.33c0-16.67-8.33-29.17-25-33.33-4.17 0-12.5 0-16.67 4.16-395.83 125-612.5 545.84-487.5 941.67 75 233.33 254.17 412.5 487.5 487.5 16.67 8.33 33.34 0 37.5-16.67 4.17-4.16 4.17-8.33 4.17-16.66v-58.34c0-12.5-12.5-29.16-25-37.5zm441.67-1300c-16.67-8.33-33.34 0-37.5 16.67-4.17 4.17-4.17 8.33-4.17 16.67v58.33c0 16.67 12.5 33.33 25 41.67 325 116.66 491.67 479.16 370.83 800-62.5 175-200 308.33-370.83 370.83-16.67 8.33-25 20.83-25 41.67v58.33c0 16.67 8.33 29.17 25 33.33 4.17 0 12.5 0 16.67-4.16 395.83-125 612.5-545.84 487.5-941.67-75-237.5-258.34-416.67-487.5-491.67z" fill="#fff"/></g></g></g></svg>
