<?xml version="1.0" encoding="UTF-8"?>
<svg version="1.1" viewBox="0 0 900 900" xmlns="http://www.w3.org/2000/svg"><defs><linearGradient id="a" x1="300.55" x2="547.98" y1="184.63" y2="425.53" gradientTransform="matrix(.27166 0 0 -.26458 197.36 218.96)" gradientUnits="userSpaceOnUse"><stop stop-color="#CF41E8" offset="0"/><stop stop-color="#10F2B0" offset="1"/></linearGradient></defs><title>Tether logo</title><g transform="translate(0 200)"><g transform="matrix(3.7639,0,0,3.763,-523.04,-270.53)" stroke-width=".2681"><path class="st0" d="m311.6 71.892h0.10869c36.647 0 66.367 28.945 66.367 64.638v3.5983c0 35.692-29.72 64.638-66.367 64.638h-0.10869c-36.647 0-66.367-28.945-66.367-64.638v-3.5983c0-35.692 29.72-64.638 66.367-64.638z" fill="#232323"/><path class="st1" d="m340.04 121.9c-0.21735 0.23813-0.48901 0.42333-0.78782 0.52917-0.29885 0.13229-0.62484 0.18521-0.95083 0.18521h-61.532c-2.1733 0-3.2871-2.6458-1.7658-4.2333l10.106-10.451c0.21733-0.23812 0.48899-0.42333 0.81499-0.55562 0.29883-0.1323 0.62482-0.18521 0.95082-0.18521h61.776c2.2005 0 3.2871 2.6723 1.7386 4.2598zm0 46.725c-0.46184 0.44979-1.0867 0.71437-1.7386 0.71437h-61.532c-2.1733 0-3.2871-2.5929-1.7658-4.1275l10.106-10.213c0.21733-0.23813 0.51616-0.42334 0.81499-0.52917 0.29883-0.13229 0.62482-0.18521 0.95082-0.18521h61.776c2.2005 0 3.2871 2.6194 1.7386 4.154zm0-37.174c-0.46184-0.44979-1.0867-0.71438-1.7386-0.71438h-61.532c-2.1733 0-3.2871 2.5929-1.7658 4.1275l10.106 10.213c0.21733 0.23813 0.51616 0.42333 0.81499 0.52917 0.29883 0.13229 0.62482 0.18521 0.95082 0.18521h61.776c2.2005 0 3.2871-2.6194 1.7386-4.154z" fill="url(#a)"/></g><g transform="scale(.25)"><path d="m1e3 2e3c554.17 0 1e3 -445.83 1e3 -1e3s-445.83-1e3 -1e3 -1e3 -1e3 445.83-1e3 1e3 445.83 1e3 1e3 1e3z" fill="#2775ca"/><path d="m1275 1158.3c0-145.83-87.5-195.83-262.5-216.66-125-16.67-150-50-150-108.34s41.67-95.83 125-95.83c75 0 116.67 25 137.5 87.5 4.17 12.5 16.67 20.83 29.17 20.83h66.66c16.67 0 29.17-12.5 29.17-29.16v-4.17c-16.67-91.67-91.67-162.5-187.5-170.83v-100c0-16.67-12.5-29.17-33.33-33.34h-62.5c-16.67 0-29.17 12.5-33.34 33.34v95.83c-125 16.67-204.16 100-204.16 204.17 0 137.5 83.33 191.66 258.33 212.5 116.67 20.83 154.17 45.83 154.17 112.5s-58.34 112.5-137.5 112.5c-108.34 0-145.84-45.84-158.34-108.34-4.16-16.66-16.66-25-29.16-25h-70.84c-16.66 0-29.16 12.5-29.16 29.17v4.17c16.66 104.16 83.33 179.16 220.83 200v100c0 16.66 12.5 29.16 33.33 33.33h62.5c16.67 0 29.17-12.5 33.34-33.33v-100c125-20.84 208.33-108.34 208.33-220.84z" fill="#fff"/><path d="m787.5 1595.8c-325-116.66-491.67-479.16-370.83-800 62.5-175 200-308.33 370.83-370.83 16.67-8.33 25-20.83 25-41.67v-58.33c0-16.67-8.33-29.17-25-33.33-4.17 0-12.5 0-16.67 4.16-395.83 125-612.5 545.84-487.5 941.67 75 233.33 254.17 412.5 487.5 487.5 16.67 8.33 33.34 0 37.5-16.67 4.17-4.16 4.17-8.33 4.17-16.66v-58.34c0-12.5-12.5-29.16-25-37.5zm441.67-1300c-16.67-8.33-33.34 0-37.5 16.67-4.17 4.17-4.17 8.33-4.17 16.67v58.33c0 16.67 12.5 33.33 25 41.67 325 116.66 491.67 479.16 370.83 800-62.5 175-200 308.33-370.83 370.83-16.67 8.33-25 20.83-25 41.67v58.33c0 16.67 8.33 29.17 25 33.33 4.17 0 12.5 0 16.67-4.16 395.83-125 612.5-545.84 487.5-941.67-75-237.5-258.34-416.67-487.5-491.67z" fill="#fff"/></g></g></svg>
