<?xml version="1.0" encoding="UTF-8"?>
<svg version="1.1" viewBox="0 0 900 900" xmlns="http://www.w3.org/2000/svg"><title>Tether logo</title><g transform="translate(0,200)"><g transform="matrix(3.7796,0,0,3.7796,400.02,4.7623e-4)"><path class="st0" d="m132.28 66.144a66.144 66.144 0 0 1-66.144 66.144 66.144 66.144 0 0 1-66.144-66.144 66.144 66.144 0 0 1 66.144-66.144 66.144 66.144 0 0 1 66.144 66.144z" fill="#627eea" stroke-width=".18082"/><g transform="matrix(.18082 0 0 .18082 -48.178 -20.902)" fill="#fff"><path class="st1" d="m803.6 486.5-171.4-279.4v202.8z" fill-opacity=".602"/><path class="st2" d="m632.2 409.9v-202.8l-171.4 279.4z"/><path class="st1" d="m803.7 518.4-171.5 99.5v137.8z" fill-opacity=".602"/><path class="st2" d="m460.8 518.4 171.4 237.3v-137.8z"/><path class="st3" d="m632.2 409.9v176.1l171.4-99.5z" fill-opacity=".2"/><path class="st1" d="m632.2 409.9-171.4 76.6 171.4 99.5z" fill="#fff" fill-opacity=".602"/></g></g><g stroke-width="2.249"><path d="m500 250a250 250 0 0 1-250 250 250 250 0 0 1-250-250 250 250 0 0 1 250-250 250 250 0 0 1 250 250z" fill="#26a17b"/><path d="m276.65 273.07c-1.7317 0.11245-10.66 0.65221-30.497 0.65221-15.878 0-26.988-0.4498-30.946-0.65221-61.061-2.6988-106.58-13.314-106.58-26.044s45.587-23.345 106.58-26.044v41.517c3.9808 0.29237 15.428 0.96708 31.239 0.96708 18.959 0 28.45-0.80965 30.227-0.96708v-41.472c60.926 2.7438 106.36 13.337 106.36 26.044s-45.452 23.3-106.36 26.044m0-56.383v-37.154h85.013v-56.63h-231.45v56.63h85.013v37.131c-69.09 3.1711-121.02 16.845-121.02 33.24s51.975 30.069 121.02 33.285v119.04h61.443v-119.04c68.977-3.1711 120.82-16.845 120.82-33.24s-51.84-30.069-120.82-33.24" fill="#fff"/></g></g></svg>
