<?xml version="1.0" encoding="UTF-8"?>
<svg version="1.1" viewBox="0 0 900 900" xmlns="http://www.w3.org/2000/svg"><defs><clipPath id="b"><rect x="231.5" y="155.3" width="333.1" height="291.9"/></clipPath></defs><title>Tether logo</title><g transform="translate(0 199.99)"><g transform="matrix(3.7186,0,0,3.7179,262.05,-161.7)"><path class="st0" d="m104.3 43.494c37.148 0 67.257 30.11 67.257 67.257 0 37.148-30.11 67.231-67.231 67.231-37.147 0-67.231-30.11-67.231-67.231-0.02646-37.147 30.083-67.257 67.204-67.257z" fill="#8247e5" stroke-width=".26458"/><g transform="matrix(.26458 0 0 .26458 -1.4838 31.482)" clip-path="url(#b)"><path class="st2" d="m483.1 244.2c-6.1-3.5-13.9-3.5-20.8 0l-48.6 28.8-33 18.3-47.7 28.7c-6.1 3.5-13.9 3.5-20.8 0l-37.3-22.7c-6.1-3.5-10.4-10.5-10.4-18.3v-43.6c0-7 3.5-13.9 10.4-18.3l37.3-21.8c6.1-3.5 13.9-3.5 20.8 0l37.3 22.7c6.1 3.5 10.4 10.5 10.4 18.3v28.8l33-19.2v-29.6c0-7-3.5-13.9-10.4-18.3l-69.4-41c-6.1-3.5-13.9-3.5-20.8 0l-71.1 41.9c-6.9 3.5-10.4 10.5-10.4 17.4v81.9c0 7 3.5 13.9 10.4 18.3l70.3 41c6.1 3.5 13.9 3.5 20.8 0l47.7-27.9 33-19.2 47.7-27.9c6.1-3.5 13.9-3.5 20.8 0l37.3 21.8c6.1 3.5 10.4 10.5 10.4 18.3v43.6c0 7-3.5 13.9-10.4 18.3l-36.4 21.8c-6.1 3.5-13.9 3.5-20.8 0l-37.4-21.8c-6.1-3.5-10.4-10.5-10.4-18.3v-27.9l-33 19.2v28.8c0 7 3.5 13.9 10.4 18.3l70.3 41c6.1 3.5 13.9 3.5 20.8 0l70.3-41c6.1-3.5 10.4-10.5 10.4-18.3v-82.8c0-7-3.5-13.9-10.4-18.3z" fill="#fff"/></g></g><g stroke-width="2.249"><path d="m500 250a250 250 0 0 1-250 250 250 250 0 0 1-250-250 250 250 0 0 1 250-250 250 250 0 0 1 250 250z" fill="#26a17b"/><path d="m276.65 273.07c-1.7317 0.11245-10.66 0.65221-30.497 0.65221-15.878 0-26.988-0.4498-30.946-0.65221-61.061-2.6988-106.58-13.314-106.58-26.044s45.587-23.345 106.58-26.044v41.517c3.9808 0.29237 15.428 0.96708 31.239 0.96708 18.959 0 28.45-0.80965 30.227-0.96708v-41.472c60.926 2.7438 106.36 13.337 106.36 26.044s-45.452 23.3-106.36 26.044m0-56.383v-37.154h85.013v-56.63h-231.45v56.63h85.013v37.131c-69.09 3.1711-121.02 16.845-121.02 33.24s51.975 30.069 121.02 33.285v119.04h61.443v-119.04c68.977-3.1711 120.82-16.845 120.82-33.24s-51.84-30.069-120.82-33.24" fill="#fff"/></g></g></svg>
