<?xml version="1.0" encoding="UTF-8"?>
<svg width="900" height="900" version="1.1" viewBox="0 0 238.12 238.12" xmlns="http://www.w3.org/2000/svg"><g><g><g transform="matrix(.26458 0 0 .26458 105.83 52.917)"><path class="st0" d="m500 250a250 250 0 0 1-250 250 250 250 0 0 1-250-250 250 250 0 0 1 250-250 250 250 0 0 1 250 250z" fill="#ff0420"/><path class="st1" d="m177.1 316.4c-14.9 0-27.1-3.5-36.6-10.5-9.4-7.1-14.1-17.3-14.1-30.4 0-2.8 0.3-6.1 0.9-10.1 1.6-9 3.9-19.8 6.9-32.5 8.5-34.4 30.5-51.6 65.9-51.6 9.6 0 18.3 1.6 25.9 4.9 7.6 3.1 13.6 7.9 18 14.3 4.4 6.3 6.6 13.8 6.6 22.5 0 2.6-0.3 5.9-0.9 9.9-1.9 11.1-4.1 22-6.8 32.5-4.4 17.1-11.9 30-22.7 38.5-10.7 8.4-25.1 12.5-43.1 12.5zm2.7-27c7 0 12.9-2.1 17.8-6.2 5-4.1 8.6-10.4 10.7-19 2.9-11.8 5.1-22 6.6-30.8 0.5-2.6 0.8-5.3 0.8-8.1 0-11.4-5.9-17.1-17.8-17.1-7 0-13 2.1-18 6.2-4.9 4.1-8.4 10.4-10.5 19-2.3 8.4-4.5 18.6-6.8 30.8-0.5 2.5-0.8 5.1-0.8 7.9-0.1 11.6 6 17.3 18 17.3z" fill="#fff"/><path class="st1" d="m259.3 314.6c-1.4 0-2.4-0.4-3.2-1.3-0.6-1-0.8-2.1-0.6-3.4l25.9-122c0.2-1.4 0.9-2.5 2.1-3.4 1.1-0.9 2.3-1.3 3.6-1.3h49.9c13.9 0 25 2.9 33.4 8.6 8.5 5.8 12.8 14.1 12.8 25 0 3.1-0.4 6.4-1.1 9.8-3.1 14.4-9.4 25-19 31.9-9.4 6.9-22.3 10.3-38.7 10.3h-25.3l-8.6 41.1c-0.3 1.4-0.9 2.5-2.1 3.4-1.1 0.9-2.3 1.3-3.6 1.3zm66.4-71.7c5.3 0 9.8-1.4 13.7-4.3 4-2.9 6.6-7 7.9-12.4 0.4-2.1 0.6-4 0.6-5.6 0-3.6-1.1-6.4-3.2-8.3-2.1-2-5.8-3-10.9-3h-22.5l-7.1 33.6z" fill="#fff"/></g><g transform="matrix(.26458 0 0 .26458 0 52.917)" stroke-width="2.249"><path d="m500 250a250 250 0 0 1-250 250 250 250 0 0 1-250-250 250 250 0 0 1 250-250 250 250 0 0 1 250 250z" fill="#26a17b"/><path d="m276.65 273.07c-1.7317 0.11245-10.66 0.65221-30.497 0.65221-15.878 0-26.988-0.4498-30.946-0.65221-61.061-2.6988-106.58-13.314-106.58-26.044s45.587-23.345 106.58-26.044v41.517c3.9808 0.29237 15.428 0.96708 31.239 0.96708 18.959 0 28.45-0.80965 30.227-0.96708v-41.472c60.926 2.7438 106.36 13.337 106.36 26.044s-45.452 23.3-106.36 26.044m0-56.383v-37.154h85.013v-56.63h-231.45v56.63h85.013v37.131c-69.09 3.1711-121.02 16.845-121.02 33.24s51.975 30.069 121.02 33.285v119.04h61.443v-119.04c68.977-3.1711 120.82-16.845 120.82-33.24s-51.84-30.069-120.82-33.24" fill="#fff"/></g></g></g></svg>
