<?xml version="1.0" encoding="UTF-8"?>
<svg width="900" height="900" version="1.1" viewBox="0 0 238.12 238.12" xmlns="http://www.w3.org/2000/svg"><g><g><g transform="matrix(.26458 0 0 .26458 105.83 52.917)"><path class="st0" d="m500 250a250 250 0 0 1-250 250 250 250 0 0 1-250-250 250 250 0 0 1 250-250 250 250 0 0 1 250 250z" fill="#ff0420"/><path class="st1" d="m177.1 316.4c-14.9 0-27.1-3.5-36.6-10.5-9.4-7.1-14.1-17.3-14.1-30.4 0-2.8 0.3-6.1 0.9-10.1 1.6-9 3.9-19.8 6.9-32.5 8.5-34.4 30.5-51.6 65.9-51.6 9.6 0 18.3 1.6 25.9 4.9 7.6 3.1 13.6 7.9 18 14.3 4.4 6.3 6.6 13.8 6.6 22.5 0 2.6-0.3 5.9-0.9 9.9-1.9 11.1-4.1 22-6.8 32.5-4.4 17.1-11.9 30-22.7 38.5-10.7 8.4-25.1 12.5-43.1 12.5zm2.7-27c7 0 12.9-2.1 17.8-6.2 5-4.1 8.6-10.4 10.7-19 2.9-11.8 5.1-22 6.6-30.8 0.5-2.6 0.8-5.3 0.8-8.1 0-11.4-5.9-17.1-17.8-17.1-7 0-13 2.1-18 6.2-4.9 4.1-8.4 10.4-10.5 19-2.3 8.4-4.5 18.6-6.8 30.8-0.5 2.5-0.8 5.1-0.8 7.9-0.1 11.6 6 17.3 18 17.3z" fill="#fff"/><path class="st1" d="m259.3 314.6c-1.4 0-2.4-0.4-3.2-1.3-0.6-1-0.8-2.1-0.6-3.4l25.9-122c0.2-1.4 0.9-2.5 2.1-3.4 1.1-0.9 2.3-1.3 3.6-1.3h49.9c13.9 0 25 2.9 33.4 8.6 8.5 5.8 12.8 14.1 12.8 25 0 3.1-0.4 6.4-1.1 9.8-3.1 14.4-9.4 25-19 31.9-9.4 6.9-22.3 10.3-38.7 10.3h-25.3l-8.6 41.1c-0.3 1.4-0.9 2.5-2.1 3.4-1.1 0.9-2.3 1.3-3.6 1.3zm66.4-71.7c5.3 0 9.8-1.4 13.7-4.3 4-2.9 6.6-7 7.9-12.4 0.4-2.1 0.6-4 0.6-5.6 0-3.6-1.1-6.4-3.2-8.3-2.1-2-5.8-3-10.9-3h-22.5l-7.1 33.6z" fill="#fff"/></g><g transform="matrix(.066146 0 0 .066146 0 52.917)"><path d="m1e3 2e3c554.17 0 1e3 -445.83 1e3 -1e3s-445.83-1e3 -1e3 -1e3 -1e3 445.83-1e3 1e3 445.83 1e3 1e3 1e3z" fill="#2775ca"/><path d="m1275 1158.3c0-145.83-87.5-195.83-262.5-216.66-125-16.67-150-50-150-108.34s41.67-95.83 125-95.83c75 0 116.67 25 137.5 87.5 4.17 12.5 16.67 20.83 29.17 20.83h66.66c16.67 0 29.17-12.5 29.17-29.16v-4.17c-16.67-91.67-91.67-162.5-187.5-170.83v-100c0-16.67-12.5-29.17-33.33-33.34h-62.5c-16.67 0-29.17 12.5-33.34 33.34v95.83c-125 16.67-204.16 100-204.16 204.17 0 137.5 83.33 191.66 258.33 212.5 116.67 20.83 154.17 45.83 154.17 112.5s-58.34 112.5-137.5 112.5c-108.34 0-145.84-45.84-158.34-108.34-4.16-16.66-16.66-25-29.16-25h-70.84c-16.66 0-29.16 12.5-29.16 29.17v4.17c16.66 104.16 83.33 179.16 220.83 200v100c0 16.66 12.5 29.16 33.33 33.33h62.5c16.67 0 29.17-12.5 33.34-33.33v-100c125-20.84 208.33-108.34 208.33-220.84z" fill="#fff"/><path d="m787.5 1595.8c-325-116.66-491.67-479.16-370.83-800 62.5-175 200-308.33 370.83-370.83 16.67-8.33 25-20.83 25-41.67v-58.33c0-16.67-8.33-29.17-25-33.33-4.17 0-12.5 0-16.67 4.16-395.83 125-612.5 545.84-487.5 941.67 75 233.33 254.17 412.5 487.5 487.5 16.67 8.33 33.34 0 37.5-16.67 4.17-4.16 4.17-8.33 4.17-16.66v-58.34c0-12.5-12.5-29.16-25-37.5zm441.67-1300c-16.67-8.33-33.34 0-37.5 16.67-4.17 4.17-4.17 8.33-4.17 16.67v58.33c0 16.67 12.5 33.33 25 41.67 325 116.66 491.67 479.16 370.83 800-62.5 175-200 308.33-370.83 370.83-16.67 8.33-25 20.83-25 41.67v58.33c0 16.67 8.33 29.17 25 33.33 4.17 0 12.5 0 16.67-4.16 395.83-125 612.5-545.84 487.5-941.67-75-237.5-258.34-416.67-487.5-491.67z" fill="#fff"/></g></g></g></svg>
