<?xml version="1.0" encoding="UTF-8"?>
<svg version="1.1" viewBox="0 0 900 900" xmlns="http://www.w3.org/2000/svg"><g transform="translate(0 200)"><g transform="matrix(.20032 0 0 .20032 400 0)"><path d="m1248 0c689.3 0 1248 558.7 1248 1248s-558.7 1248-1248 1248-1248-558.7-1248-1248 558.7-1248 1248-1248z" clip-rule="evenodd" fill="#f0b90b" fill-rule="evenodd"/><g fill="#fff"><path d="m685.9 1248 0.9 330 280.4 165v193.2l-444.5-260.7v-524zm0-330v192.3l-163.3-96.6v-192.3l163.3-96.6 164.1 96.6zm398.4-96.6 163.3-96.6 164.1 96.6-164.1 96.6z"/><path d="m803.9 1509.6v-193.2l163.3 96.6v192.3zm280.4 302.6 163.3 96.6 164.1-96.6v192.3l-164.1 96.6-163.3-96.6zm561.6-990.8 163.3-96.6 164.1 96.6v192.3l-164.1 96.6v-192.3zm163.3 756.6 0.9-330 163.3-96.6v524l-444.5 260.7v-193.2z"/><polygon points="1692.1 1316.4 1692.1 1509.6 1528.8 1605.3 1528.8 1413"/><path d="m1692.1 986.4 0.9 193.2-281.2 165v330.8l-163.3 95.7-163.3-95.7v-330.8l-281.2-165v-193.2l164-96.6 279.5 165.8 281.2-165.8 164.1 96.6zm-888.2-329.9 443.7-261.6 444.5 261.6-163.3 96.6-281.2-165.8-280.4 165.8z"/></g></g><g transform="matrix(.13312 0 0 .1331 -.0053248 .006655)"><path transform="translate(-371.96,-371.75)" d="m4128 2249.8c0 1037.2-840.74 1878-1878 1878s-1878-840.86-1878-1878 840.76-1878.1 1878-1878.1 1878 840.79 1878 1878.1z" fill="#fff"/><path transform="translate(-371.96,-371.75)" d="m2250 371.75c-1036.9 0-1879.1 842.06-1877.8 1878 0.26 207.26 33.31 406.63 95.34 593.12h561.88v-1579.9l1220.6 1220.6 1220.5-1220.6v1579.9h562c62.12-186.48 95-385.85 95.37-593.12 1.77-1037-840.89-1877.8-1877.9-1877.8z" fill="#f26822" data-name=" 149931032"/><path transform="translate(-371.96,-371.75)" d="m1969.3 2764.2-532.67-532.7v994.14h-407.25l-384.29 0.07c329.63 540.8 925.35 902.56 1604.9 902.56s1275.3-361.84 1605-902.64h-791.75v-994.13l-813.31 813.31-280.62-280.61z" fill="#4d4d4d" data-name=" 149931160"/></g></g></svg>
