<?xml version="1.0" encoding="UTF-8"?>
<svg data-name="Layer 1" version="1.1" viewBox="0 0 500 500" xmlns="http://www.w3.org/2000/svg"><defs><style>.cls-1{fill:#fff;}.cls-2{fill:#345d9d;}</style></defs><title>litecoin-ltc</title><g><path d="m500 250a250 250 0 0 1-250 250 250 250 0 0 1-250-250 250 250 0 0 1 250-250 250 250 0 0 1 250 250z" fill="#345d9d"/><path d="m242.09 131.3c-3.0479-0.0937-5.7672 1.9018-6.5921 4.8373l-36.495 123.97-29.011 8.7963-6.6006 20.219 29.018-8.7897-25.936 88.362h154.76c3.0582 0.12608 5.7959-1.8824 6.5934-4.8373l8.7897-30.371v-1.6696c-0.10089-2.8151-2.4646-5.0156-5.2798-4.9153h-101.12l18.908-63.74 29.462-8.3271 6.1438-21.104-29.018 8.7963 30.773-104.63v-1.6753c-0.0964-2.8156-2.457-5.0201-5.2728-4.9238z" fill="#fff" stroke-width=".7263"/></g></svg>
