<?xml version="1.0" encoding="UTF-8"?>
<svg width="500" height="500" version="1.1" viewBox="0 0 132.29 132.29" xmlns="http://www.w3.org/2000/svg" xmlns:xlink="http://www.w3.org/1999/xlink"><defs><clipPath id="b"><use xlink:href="#a"/></clipPath><rect id="a" x="231.5" y="155.3" width="333.1" height="291.9"/></defs><g transform="matrix(.98386 0 0 .98367 -36.496 -42.784)"><path class="st0" d="m104.3 43.494c37.148 0 67.257 30.11 67.257 67.257 0 37.148-30.11 67.231-67.231 67.231-37.147 0-67.231-30.11-67.231-67.231-0.02646-37.147 30.083-67.257 67.204-67.257z" fill="#8247e5" stroke-width=".26458"/><g transform="matrix(.26458 0 0 .26458 -1.4838 31.482)" clip-path="url(#b)"><path class="st2" d="m483.1 244.2c-6.1-3.5-13.9-3.5-20.8 0l-48.6 28.8-33 18.3-47.7 28.7c-6.1 3.5-13.9 3.5-20.8 0l-37.3-22.7c-6.1-3.5-10.4-10.5-10.4-18.3v-43.6c0-7 3.5-13.9 10.4-18.3l37.3-21.8c6.1-3.5 13.9-3.5 20.8 0l37.3 22.7c6.1 3.5 10.4 10.5 10.4 18.3v28.8l33-19.2v-29.6c0-7-3.5-13.9-10.4-18.3l-69.4-41c-6.1-3.5-13.9-3.5-20.8 0l-71.1 41.9c-6.9 3.5-10.4 10.5-10.4 17.4v81.9c0 7 3.5 13.9 10.4 18.3l70.3 41c6.1 3.5 13.9 3.5 20.8 0l47.7-27.9 33-19.2 47.7-27.9c6.1-3.5 13.9-3.5 20.8 0l37.3 21.8c6.1 3.5 10.4 10.5 10.4 18.3v43.6c0 7-3.5 13.9-10.4 18.3l-36.4 21.8c-6.1 3.5-13.9 3.5-20.8 0l-37.4-21.8c-6.1-3.5-10.4-10.5-10.4-18.3v-27.9l-33 19.2v28.8c0 7 3.5 13.9 10.4 18.3l70.3 41c6.1 3.5 13.9 3.5 20.8 0l70.3-41c6.1-3.5 10.4-10.5 10.4-18.3v-82.8c0-7-3.5-13.9-10.4-18.3z" fill="#fff"/></g></g></svg>
