<?xml version="1.0" encoding="UTF-8"?>
<svg fill="none" version="1.1" viewBox="0 0 500 500" xmlns="http://www.w3.org/2000/svg"><g transform="scale(8.9286)"><path d="m28 56c15.464 0 28-12.536 28-28s-12.536-28-28-28-28 12.536-28 28 12.536 28 28 28z" fill="#0098ea"/><path d="m37.56 15.628h-19.122c-3.5158 0-5.7442 3.7925-3.9754 6.8584l11.801 20.455c0.7701 1.3356 2.7 1.3356 3.4701 0l11.804-20.455c1.7664-3.061-0.462-6.8584-3.9754-6.8584zm-11.306 21.179-2.5701-4.9741-6.2014-11.091c-0.4091-0.7099 0.0962-1.6196 0.9529-1.6196h7.8162v17.687zm12.256-16.068-6.199 11.096-2.5701 4.9717v-17.687h7.8162c0.8567 0 1.362 0.9097 0.9529 1.6196z" fill="#fff"/></g></svg>
