<?xml version="1.0" encoding="UTF-8"?>
<svg width="500" height="500" version="1.1" viewBox="0 0 20 20" xmlns="http://www.w3.org/2000/svg"><g transform="scale(.625)"><path d="m32 16a16 16 0 0 1-16 16 16 16 0 0 1-16-16 16 16 0 0 1 16-16 16 16 0 0 1 16 16z" fill="#ef0027"/><path d="m21.932 9.913-14.432-2.656 7.595 19.112 10.583-12.894zm-0.232 1.17 2.208 2.099-6.038 1.093zm-5.142 2.973-6.364-5.278 10.402 1.914zm-0.453 0.934-1.038 8.58-5.595-14.083 6.633 5.502zm0.96 0.455 6.687-1.21-7.67 9.343z" fill="#fff"/></g></svg>
