<?xml version="1.0" encoding="UTF-8"?>
<svg version="1.1" viewBox="0 0 900 900" xmlns="http://www.w3.org/2000/svg"><title>Tether logo</title><g transform="translate(0,200)"><g transform="matrix(.20032 0 0 .20032 400 0)"><path d="m1248 0c689.3 0 1248 558.7 1248 1248s-558.7 1248-1248 1248-1248-558.7-1248-1248 558.7-1248 1248-1248z" clip-rule="evenodd" fill="#f0b90b" fill-rule="evenodd"/><g fill="#fff"><path d="m685.9 1248 0.9 330 280.4 165v193.2l-444.5-260.7v-524zm0-330v192.3l-163.3-96.6v-192.3l163.3-96.6 164.1 96.6zm398.4-96.6 163.3-96.6 164.1 96.6-164.1 96.6z"/><path d="m803.9 1509.6v-193.2l163.3 96.6v192.3zm280.4 302.6 163.3 96.6 164.1-96.6v192.3l-164.1 96.6-163.3-96.6zm561.6-990.8 163.3-96.6 164.1 96.6v192.3l-164.1 96.6v-192.3zm163.3 756.6 0.9-330 163.3-96.6v524l-444.5 260.7v-193.2z"/><polygon points="1528.8 1413 1692.1 1316.4 1692.1 1509.6 1528.8 1605.3"/><path d="m1692.1 986.4 0.9 193.2-281.2 165v330.8l-163.3 95.7-163.3-95.7v-330.8l-281.2-165v-193.2l164-96.6 279.5 165.8 281.2-165.8 164.1 96.6zm-888.2-329.9 443.7-261.6 444.5 261.6-163.3 96.6-281.2-165.8-280.4 165.8z"/></g></g><g stroke-width="2.249"><path d="m500 250a250 250 0 0 1-250 250 250 250 0 0 1-250-250 250 250 0 0 1 250-250 250 250 0 0 1 250 250z" fill="#26a17b"/><path d="m276.65 273.07c-1.7317 0.11245-10.66 0.65221-30.497 0.65221-15.878 0-26.988-0.4498-30.946-0.65221-61.061-2.6988-106.58-13.314-106.58-26.044s45.587-23.345 106.58-26.044v41.517c3.9808 0.29237 15.428 0.96708 31.239 0.96708 18.959 0 28.45-0.80965 30.227-0.96708v-41.472c60.926 2.7438 106.36 13.337 106.36 26.044s-45.452 23.3-106.36 26.044m0-56.383v-37.154h85.013v-56.63h-231.45v56.63h85.013v37.131c-69.09 3.1711-121.02 16.845-121.02 33.24s51.975 30.069 121.02 33.285v119.04h61.443v-119.04c68.977-3.1711 120.82-16.845 120.82-33.24s-51.84-30.069-120.82-33.24" fill="#fff"/></g></g></svg>
