<?xml version='1.0' encoding='UTF-8'?>
<svg width="14.8mm" height="14.8mm" version="1.1" viewBox="0 0 14.8 14.8" xmlns="http://www.w3.org/2000/svg"><rect fill="white" x="0" y="0" width="100%" height="100%" /><path d="M0,0H0.4V0.4H0zM0.4,0H0.8V0.4H0.4zM0.8,0H1.2V0.4H0.8zM1.2,0H1.6V0.4H1.2zM1.6,0H2V0.4H1.6zM2,0H2.4V0.4H2zM2.4,0H2.8V0.4H2.4zM3.2,0.2A0.2,0.2 0 0 0 3.6,0.2A0.2,0.2 0 0 0 3.2,0.2zM4,0.2A0.2,0.2 0 0 0 4.4,0.2A0.2,0.2 0 0 0 4,0.2zM4.8,0.2A0.2,0.2 0 0 0 5.2,0.2A0.2,0.2 0 0 0 4.8,0.2zM5.6,0.2A0.2,0.2 0 0 0 6,0.2A0.2,0.2 0 0 0 5.6,0.2zM6,0.2A0.2,0.2 0 0 0 6.4,0.2A0.2,0.2 0 0 0 6,0.2zM6.4,0.2A0.2,0.2 0 0 0 6.8,0.2A0.2,0.2 0 0 0 6.4,0.2zM6.8,0.2A0.2,0.2 0 0 0 7.2,0.2A0.2,0.2 0 0 0 6.8,0.2zM7.6,0.2A0.2,0.2 0 0 0 8,0.2A0.2,0.2 0 0 0 7.6,0.2zM8.4,0.2A0.2,0.2 0 0 0 8.8,0.2A0.2,0.2 0 0 0 8.4,0.2zM8.8,0.2A0.2,0.2 0 0 0 9.2,0.2A0.2,0.2 0 0 0 8.8,0.2zM9.2,0.2A0.2,0.2 0 0 0 9.6,0.2A0.2,0.2 0 0 0 9.2,0.2zM10.4,0.2A0.2,0.2 0 0 0 10.8,0.2A0.2,0.2 0 0 0 10.4,0.2zM10.8,0.2A0.2,0.2 0 0 0 11.2,0.2A0.2,0.2 0 0 0 10.8,0.2zM12,0H12.4V0.4H12zM12.4,0H12.8V0.4H12.4zM12.8,0H13.2V0.4H12.8zM13.2,0H13.6V0.4H13.2zM13.6,0H14V0.4H13.6zM14,0H14.4V0.4H14zM14.4,0H14.8V0.4H14.4zM0,0.4H0.4V0.8H0zM2.4,0.4H2.8V0.8H2.4zM3.6,0.6A0.2,0.2 0 0 0 4,0.6A0.2,0.2 0 0 0 3.6,0.6zM4.4,0.6A0.2,0.2 0 0 0 4.8,0.6A0.2,0.2 0 0 0 4.4,0.6zM4.8,0.6A0.2,0.2 0 0 0 5.2,0.6A0.2,0.2 0 0 0 4.8,0.6zM5.2,0.6A0.2,0.2 0 0 0 5.6,0.6A0.2,0.2 0 0 0 5.2,0.6zM5.6,0.6A0.2,0.2 0 0 0 6,0.6A0.2,0.2 0 0 0 5.6,0.6zM6,0.6A0.2,0.2 0 0 0 6.4,0.6A0.2,0.2 0 0 0 6,0.6zM6.4,0.6A0.2,0.2 0 0 0 6.8,0.6A0.2,0.2 0 0 0 6.4,0.6zM7.6,0.6A0.2,0.2 0 0 0 8,0.6A0.2,0.2 0 0 0 7.6,0.6zM8.8,0.6A0.2,0.2 0 0 0 9.2,0.6A0.2,0.2 0 0 0 8.8,0.6zM9.6,0.6A0.2,0.2 0 0 0 10,0.6A0.2,0.2 0 0 0 9.6,0.6zM10,0.6A0.2,0.2 0 0 0 10.4,0.6A0.2,0.2 0 0 0 10,0.6zM10.4,0.6A0.2,0.2 0 0 0 10.8,0.6A0.2,0.2 0 0 0 10.4,0.6zM12,0.4H12.4V0.8H12zM14.4,0.4H14.8V0.8H14.4zM0,0.8H0.4V1.2H0zM0.8,0.8H1.2V1.2H0.8zM1.2,0.8H1.6V1.2H1.2zM1.6,0.8H2V1.2H1.6zM2.4,0.8H2.8V1.2H2.4zM3.2,1A0.2,0.2 0 0 0 3.6,1A0.2,0.2 0 0 0 3.2,1zM4,1A0.2,0.2 0 0 0 4.4,1A0.2,0.2 0 0 0 4,1zM4.8,1A0.2,0.2 0 0 0 5.2,1A0.2,0.2 0 0 0 4.8,1zM6,1A0.2,0.2 0 0 0 6.4,1A0.2,0.2 0 0 0 6,1zM6.4,1A0.2,0.2 0 0 0 6.8,1A0.2,0.2 0 0 0 6.4,1zM6.8,1A0.2,0.2 0 0 0 7.2,1A0.2,0.2 0 0 0 6.8,1zM8.4,1A0.2,0.2 0 0 0 8.8,1A0.2,0.2 0 0 0 8.4,1zM11.2,1A0.2,0.2 0 0 0 11.6,1A0.2,0.2 0 0 0 11.2,1zM12,0.8H12.4V1.2H12zM12.8,0.8H13.2V1.2H12.8zM13.2,0.8H13.6V1.2H13.2zM13.6,0.8H14V1.2H13.6zM14.4,0.8H14.8V1.2H14.4zM0,1.2H0.4V1.6H0zM0.8,1.2H1.2V1.6H0.8zM1.2,1.2H1.6V1.6H1.2zM1.6,1.2H2V1.6H1.6zM2.4,1.2H2.8V1.6H2.4zM4,1.4A0.2,0.2 0 0 0 4.4,1.4A0.2,0.2 0 0 0 4,1.4zM4.4,1.4A0.2,0.2 0 0 0 4.8,1.4A0.2,0.2 0 0 0 4.4,1.4zM5.2,1.4A0.2,0.2 0 0 0 5.6,1.4A0.2,0.2 0 0 0 5.2,1.4zM5.6,1.4A0.2,0.2 0 0 0 6,1.4A0.2,0.2 0 0 0 5.6,1.4zM6,1.4A0.2,0.2 0 0 0 6.4,1.4A0.2,0.2 0 0 0 6,1.4zM6.8,1.4A0.2,0.2 0 0 0 7.2,1.4A0.2,0.2 0 0 0 6.8,1.4zM7.6,1.4A0.2,0.2 0 0 0 8,1.4A0.2,0.2 0 0 0 7.6,1.4zM8,1.4A0.2,0.2 0 0 0 8.4,1.4A0.2,0.2 0 0 0 8,1.4zM8.4,1.4A0.2,0.2 0 0 0 8.8,1.4A0.2,0.2 0 0 0 8.4,1.4zM12,1.2H12.4V1.6H12zM12.8,1.2H13.2V1.6H12.8zM13.2,1.2H13.6V1.6H13.2zM13.6,1.2H14V1.6H13.6zM14.4,1.2H14.8V1.6H14.4zM0,1.6H0.4V2H0zM0.8,1.6H1.2V2H0.8zM1.2,1.6H1.6V2H1.2zM1.6,1.6H2V2H1.6zM2.4,1.6H2.8V2H2.4zM3.2,1.8A0.2,0.2 0 0 0 3.6,1.8A0.2,0.2 0 0 0 3.2,1.8zM3.6,1.8A0.2,0.2 0 0 0 4,1.8A0.2,0.2 0 0 0 3.6,1.8zM4,1.8A0.2,0.2 0 0 0 4.4,1.8A0.2,0.2 0 0 0 4,1.8zM4.8,1.8A0.2,0.2 0 0 0 5.2,1.8A0.2,0.2 0 0 0 4.8,1.8zM5.2,1.8A0.2,0.2 0 0 0 5.6,1.8A0.2,0.2 0 0 0 5.2,1.8zM6,1.8A0.2,0.2 0 0 0 6.4,1.8A0.2,0.2 0 0 0 6,1.8zM7.6,1.8A0.2,0.2 0 0 0 8,1.8A0.2,0.2 0 0 0 7.6,1.8zM8.8,1.8A0.2,0.2 0 0 0 9.2,1.8A0.2,0.2 0 0 0 8.8,1.8zM10,1.8A0.2,0.2 0 0 0 10.4,1.8A0.2,0.2 0 0 0 10,1.8zM12,1.6H12.4V2H12zM12.8,1.6H13.2V2H12.8zM13.2,1.6H13.6V2H13.2zM13.6,1.6H14V2H13.6zM14.4,1.6H14.8V2H14.4zM0,2H0.4V2.4H0zM2.4,2H2.8V2.4H2.4zM6.4,2.2A0.2,0.2 0 0 0 6.8,2.2A0.2,0.2 0 0 0 6.4,2.2zM6.8,2.2A0.2,0.2 0 0 0 7.2,2.2A0.2,0.2 0 0 0 6.8,2.2zM7.2,2.2A0.2,0.2 0 0 0 7.6,2.2A0.2,0.2 0 0 0 7.2,2.2zM7.6,2.2A0.2,0.2 0 0 0 8,2.2A0.2,0.2 0 0 0 7.6,2.2zM8,2.2A0.2,0.2 0 0 0 8.4,2.2A0.2,0.2 0 0 0 8,2.2zM8.4,2.2A0.2,0.2 0 0 0 8.8,2.2A0.2,0.2 0 0 0 8.4,2.2zM8.8,2.2A0.2,0.2 0 0 0 9.2,2.2A0.2,0.2 0 0 0 8.8,2.2zM9.2,2.2A0.2,0.2 0 0 0 9.6,2.2A0.2,0.2 0 0 0 9.2,2.2zM10,2.2A0.2,0.2 0 0 0 10.4,2.2A0.2,0.2 0 0 0 10,2.2zM12,2H12.4V2.4H12zM14.4,2H14.8V2.4H14.4zM0,2.4H0.4V2.8H0zM0.4,2.4H0.8V2.8H0.4zM0.8,2.4H1.2V2.8H0.8zM1.2,2.4H1.6V2.8H1.2zM1.6,2.4H2V2.8H1.6zM2,2.4H2.4V2.8H2zM2.4,2.4H2.8V2.8H2.4zM3.2,2.6A0.2,0.2 0 0 0 3.6,2.6A0.2,0.2 0 0 0 3.2,2.6zM4,2.6A0.2,0.2 0 0 0 4.4,2.6A0.2,0.2 0 0 0 4,2.6zM4.8,2.6A0.2,0.2 0 0 0 5.2,2.6A0.2,0.2 0 0 0 4.8,2.6zM5.6,2.6A0.2,0.2 0 0 0 6,2.6A0.2,0.2 0 0 0 5.6,2.6zM6.4,2.6A0.2,0.2 0 0 0 6.8,2.6A0.2,0.2 0 0 0 6.4,2.6zM7.2,2.6A0.2,0.2 0 0 0 7.6,2.6A0.2,0.2 0 0 0 7.2,2.6zM8,2.6A0.2,0.2 0 0 0 8.4,2.6A0.2,0.2 0 0 0 8,2.6zM8.8,2.6A0.2,0.2 0 0 0 9.2,2.6A0.2,0.2 0 0 0 8.8,2.6zM9.6,2.6A0.2,0.2 0 0 0 10,2.6A0.2,0.2 0 0 0 9.6,2.6zM10.4,2.6A0.2,0.2 0 0 0 10.8,2.6A0.2,0.2 0 0 0 10.4,2.6zM11.2,2.6A0.2,0.2 0 0 0 11.6,2.6A0.2,0.2 0 0 0 11.2,2.6zM12,2.4H12.4V2.8H12zM12.4,2.4H12.8V2.8H12.4zM12.8,2.4H13.2V2.8H12.8zM13.2,2.4H13.6V2.8H13.2zM13.6,2.4H14V2.8H13.6zM14,2.4H14.4V2.8H14zM14.4,2.4H14.8V2.8H14.4zM3.2,3A0.2,0.2 0 0 0 3.6,3A0.2,0.2 0 0 0 3.2,3zM3.6,3A0.2,0.2 0 0 0 4,3A0.2,0.2 0 0 0 3.6,3zM4,3A0.2,0.2 0 0 0 4.4,3A0.2,0.2 0 0 0 4,3zM4.4,3A0.2,0.2 0 0 0 4.8,3A0.2,0.2 0 0 0 4.4,3zM4.8,3A0.2,0.2 0 0 0 5.2,3A0.2,0.2 0 0 0 4.8,3zM5.6,3A0.2,0.2 0 0 0 6,3A0.2,0.2 0 0 0 5.6,3zM6.4,3A0.2,0.2 0 0 0 6.8,3A0.2,0.2 0 0 0 6.4,3zM7.2,3A0.2,0.2 0 0 0 7.6,3A0.2,0.2 0 0 0 7.2,3zM7.6,3A0.2,0.2 0 0 0 8,3A0.2,0.2 0 0 0 7.6,3zM8,3A0.2,0.2 0 0 0 8.4,3A0.2,0.2 0 0 0 8,3zM9.2,3A0.2,0.2 0 0 0 9.6,3A0.2,0.2 0 0 0 9.2,3zM9.6,3A0.2,0.2 0 0 0 10,3A0.2,0.2 0 0 0 9.6,3zM10.4,3A0.2,0.2 0 0 0 10.8,3A0.2,0.2 0 0 0 10.4,3zM2,3.4A0.2,0.2 0 0 0 2.4,3.4A0.2,0.2 0 0 0 2,3.4zM2.4,3.4A0.2,0.2 0 0 0 2.8,3.4A0.2,0.2 0 0 0 2.4,3.4zM3.6,3.4A0.2,0.2 0 0 0 4,3.4A0.2,0.2 0 0 0 3.6,3.4zM5.2,3.4A0.2,0.2 0 0 0 5.6,3.4A0.2,0.2 0 0 0 5.2,3.4zM5.6,3.4A0.2,0.2 0 0 0 6,3.4A0.2,0.2 0 0 0 5.6,3.4zM6,3.4A0.2,0.2 0 0 0 6.4,3.4A0.2,0.2 0 0 0 6,3.4zM6.8,3.4A0.2,0.2 0 0 0 7.2,3.4A0.2,0.2 0 0 0 6.8,3.4zM7.2,3.4A0.2,0.2 0 0 0 7.6,3.4A0.2,0.2 0 0 0 7.2,3.4zM8.8,3.4A0.2,0.2 0 0 0 9.2,3.4A0.2,0.2 0 0 0 8.8,3.4zM9.2,3.4A0.2,0.2 0 0 0 9.6,3.4A0.2,0.2 0 0 0 9.2,3.4zM10.4,3.4A0.2,0.2 0 0 0 10.8,3.4A0.2,0.2 0 0 0 10.4,3.4zM10.8,3.4A0.2,0.2 0 0 0 11.2,3.4A0.2,0.2 0 0 0 10.8,3.4zM12,3.4A0.2,0.2 0 0 0 12.4,3.4A0.2,0.2 0 0 0 12,3.4zM12.8,3.4A0.2,0.2 0 0 0 13.2,3.4A0.2,0.2 0 0 0 12.8,3.4zM13.6,3.4A0.2,0.2 0 0 0 14,3.4A0.2,0.2 0 0 0 13.6,3.4zM14.4,3.4A0.2,0.2 0 0 0 14.8,3.4A0.2,0.2 0 0 0 14.4,3.4zM0.4,3.8A0.2,0.2 0 0 0 0.8,3.8A0.2,0.2 0 0 0 0.4,3.8zM0.8,3.8A0.2,0.2 0 0 0 1.2,3.8A0.2,0.2 0 0 0 0.8,3.8zM1.6,3.8A0.2,0.2 0 0 0 2,3.8A0.2,0.2 0 0 0 1.6,3.8zM3.6,3.8A0.2,0.2 0 0 0 4,3.8A0.2,0.2 0 0 0 3.6,3.8zM5.2,3.8A0.2,0.2 0 0 0 5.6,3.8A0.2,0.2 0 0 0 5.2,3.8zM5.6,3.8A0.2,0.2 0 0 0 6,3.8A0.2,0.2 0 0 0 5.6,3.8zM6,3.8A0.2,0.2 0 0 0 6.4,3.8A0.2,0.2 0 0 0 6,3.8zM7.2,3.8A0.2,0.2 0 0 0 7.6,3.8A0.2,0.2 0 0 0 7.2,3.8zM7.6,3.8A0.2,0.2 0 0 0 8,3.8A0.2,0.2 0 0 0 7.6,3.8zM8,3.8A0.2,0.2 0 0 0 8.4,3.8A0.2,0.2 0 0 0 8,3.8zM8.8,3.8A0.2,0.2 0 0 0 9.2,3.8A0.2,0.2 0 0 0 8.8,3.8zM9.6,3.8A0.2,0.2 0 0 0 10,3.8A0.2,0.2 0 0 0 9.6,3.8zM10.8,3.8A0.2,0.2 0 0 0 11.2,3.8A0.2,0.2 0 0 0 10.8,3.8zM12,3.8A0.2,0.2 0 0 0 12.4,3.8A0.2,0.2 0 0 0 12,3.8zM12.4,3.8A0.2,0.2 0 0 0 12.8,3.8A0.2,0.2 0 0 0 12.4,3.8zM12.8,3.8A0.2,0.2 0 0 0 13.2,3.8A0.2,0.2 0 0 0 12.8,3.8zM13.2,3.8A0.2,0.2 0 0 0 13.6,3.8A0.2,0.2 0 0 0 13.2,3.8zM13.6,3.8A0.2,0.2 0 0 0 14,3.8A0.2,0.2 0 0 0 13.6,3.8zM14,3.8A0.2,0.2 0 0 0 14.4,3.8A0.2,0.2 0 0 0 14,3.8zM1.2,4.2A0.2,0.2 0 0 0 1.6,4.2A0.2,0.2 0 0 0 1.2,4.2zM1.6,4.2A0.2,0.2 0 0 0 2,4.2A0.2,0.2 0 0 0 1.6,4.2zM2,4.2A0.2,0.2 0 0 0 2.4,4.2A0.2,0.2 0 0 0 2,4.2zM2.4,4.2A0.2,0.2 0 0 0 2.8,4.2A0.2,0.2 0 0 0 2.4,4.2zM3.2,4.2A0.2,0.2 0 0 0 3.6,4.2A0.2,0.2 0 0 0 3.2,4.2zM4,4.2A0.2,0.2 0 0 0 4.4,4.2A0.2,0.2 0 0 0 4,4.2zM6.4,4.2A0.2,0.2 0 0 0 6.8,4.2A0.2,0.2 0 0 0 6.4,4.2zM6.8,4.2A0.2,0.2 0 0 0 7.2,4.2A0.2,0.2 0 0 0 6.8,4.2zM8.4,4.2A0.2,0.2 0 0 0 8.8,4.2A0.2,0.2 0 0 0 8.4,4.2zM8.8,4.2A0.2,0.2 0 0 0 9.2,4.2A0.2,0.2 0 0 0 8.8,4.2zM9.2,4.2A0.2,0.2 0 0 0 9.6,4.2A0.2,0.2 0 0 0 9.2,4.2zM10,4.2A0.2,0.2 0 0 0 10.4,4.2A0.2,0.2 0 0 0 10,4.2zM10.4,4.2A0.2,0.2 0 0 0 10.8,4.2A0.2,0.2 0 0 0 10.4,4.2zM10.8,4.2A0.2,0.2 0 0 0 11.2,4.2A0.2,0.2 0 0 0 10.8,4.2zM12.8,4.2A0.2,0.2 0 0 0 13.2,4.2A0.2,0.2 0 0 0 12.8,4.2zM13.2,4.2A0.2,0.2 0 0 0 13.6,4.2A0.2,0.2 0 0 0 13.2,4.2zM14,4.2A0.2,0.2 0 0 0 14.4,4.2A0.2,0.2 0 0 0 14,4.2zM14.4,4.2A0.2,0.2 0 0 0 14.8,4.2A0.2,0.2 0 0 0 14.4,4.2zM0.8,4.6A0.2,0.2 0 0 0 1.2,4.6A0.2,0.2 0 0 0 0.8,4.6zM2.8,4.6A0.2,0.2 0 0 0 3.2,4.6A0.2,0.2 0 0 0 2.8,4.6zM4.4,4.6A0.2,0.2 0 0 0 4.8,4.6A0.2,0.2 0 0 0 4.4,4.6zM5.2,4.6A0.2,0.2 0 0 0 5.6,4.6A0.2,0.2 0 0 0 5.2,4.6zM5.6,4.6A0.2,0.2 0 0 0 6,4.6A0.2,0.2 0 0 0 5.6,4.6zM6.4,4.6A0.2,0.2 0 0 0 6.8,4.6A0.2,0.2 0 0 0 6.4,4.6zM7.2,4.6A0.2,0.2 0 0 0 7.6,4.6A0.2,0.2 0 0 0 7.2,4.6zM9.2,4.6A0.2,0.2 0 0 0 9.6,4.6A0.2,0.2 0 0 0 9.2,4.6zM9.6,4.6A0.2,0.2 0 0 0 10,4.6A0.2,0.2 0 0 0 9.6,4.6zM11.2,4.6A0.2,0.2 0 0 0 11.6,4.6A0.2,0.2 0 0 0 11.2,4.6zM11.6,4.6A0.2,0.2 0 0 0 12,4.6A0.2,0.2 0 0 0 11.6,4.6zM12,4.6A0.2,0.2 0 0 0 12.4,4.6A0.2,0.2 0 0 0 12,4.6zM12.4,4.6A0.2,0.2 0 0 0 12.8,4.6A0.2,0.2 0 0 0 12.4,4.6zM14,4.6A0.2,0.2 0 0 0 14.4,4.6A0.2,0.2 0 0 0 14,4.6zM2,5A0.2,0.2 0 0 0 2.4,5A0.2,0.2 0 0 0 2,5zM2.4,5A0.2,0.2 0 0 0 2.8,5A0.2,0.2 0 0 0 2.4,5zM4,5A0.2,0.2 0 0 0 4.4,5A0.2,0.2 0 0 0 4,5zM6,5A0.2,0.2 0 0 0 6.4,5A0.2,0.2 0 0 0 6,5zM6.4,5A0.2,0.2 0 0 0 6.8,5A0.2,0.2 0 0 0 6.4,5zM8.4,5A0.2,0.2 0 0 0 8.8,5A0.2,0.2 0 0 0 8.4,5zM9.2,5A0.2,0.2 0 0 0 9.6,5A0.2,0.2 0 0 0 9.2,5zM9.6,5A0.2,0.2 0 0 0 10,5A0.2,0.2 0 0 0 9.6,5zM10,5A0.2,0.2 0 0 0 10.4,5A0.2,0.2 0 0 0 10,5zM10.8,5A0.2,0.2 0 0 0 11.2,5A0.2,0.2 0 0 0 10.8,5zM11.2,5A0.2,0.2 0 0 0 11.6,5A0.2,0.2 0 0 0 11.2,5zM12,5A0.2,0.2 0 0 0 12.4,5A0.2,0.2 0 0 0 12,5zM12.8,5A0.2,0.2 0 0 0 13.2,5A0.2,0.2 0 0 0 12.8,5zM14.4,5A0.2,0.2 0 0 0 14.8,5A0.2,0.2 0 0 0 14.4,5zM0,5.4A0.2,0.2 0 0 0 0.4,5.4A0.2,0.2 0 0 0 0,5.4zM0.4,5.4A0.2,0.2 0 0 0 0.8,5.4A0.2,0.2 0 0 0 0.4,5.4zM2,5.4A0.2,0.2 0 0 0 2.4,5.4A0.2,0.2 0 0 0 2,5.4zM2.8,5.4A0.2,0.2 0 0 0 3.2,5.4A0.2,0.2 0 0 0 2.8,5.4zM3.6,5.4A0.2,0.2 0 0 0 4,5.4A0.2,0.2 0 0 0 3.6,5.4zM4,5.4A0.2,0.2 0 0 0 4.4,5.4A0.2,0.2 0 0 0 4,5.4zM4.4,5.4A0.2,0.2 0 0 0 4.8,5.4A0.2,0.2 0 0 0 4.4,5.4zM5.2,5.4A0.2,0.2 0 0 0 5.6,5.4A0.2,0.2 0 0 0 5.2,5.4zM5.6,5.4A0.2,0.2 0 0 0 6,5.4A0.2,0.2 0 0 0 5.6,5.4zM6.4,5.4A0.2,0.2 0 0 0 6.8,5.4A0.2,0.2 0 0 0 6.4,5.4zM6.8,5.4A0.2,0.2 0 0 0 7.2,5.4A0.2,0.2 0 0 0 6.8,5.4zM8,5.4A0.2,0.2 0 0 0 8.4,5.4A0.2,0.2 0 0 0 8,5.4zM9.2,5.4A0.2,0.2 0 0 0 9.6,5.4A0.2,0.2 0 0 0 9.2,5.4zM10,5.4A0.2,0.2 0 0 0 10.4,5.4A0.2,0.2 0 0 0 10,5.4zM10.4,5.4A0.2,0.2 0 0 0 10.8,5.4A0.2,0.2 0 0 0 10.4,5.4zM11.2,5.4A0.2,0.2 0 0 0 11.6,5.4A0.2,0.2 0 0 0 11.2,5.4zM12,5.4A0.2,0.2 0 0 0 12.4,5.4A0.2,0.2 0 0 0 12,5.4zM12.4,5.4A0.2,0.2 0 0 0 12.8,5.4A0.2,0.2 0 0 0 12.4,5.4zM13.6,5.4A0.2,0.2 0 0 0 14,5.4A0.2,0.2 0 0 0 13.6,5.4zM14.4,5.4A0.2,0.2 0 0 0 14.8,5.4A0.2,0.2 0 0 0 14.4,5.4zM0.8,5.8A0.2,0.2 0 0 0 1.2,5.8A0.2,0.2 0 0 0 0.8,5.8zM1.6,5.8A0.2,0.2 0 0 0 2,5.8A0.2,0.2 0 0 0 1.6,5.8zM2.4,5.8A0.2,0.2 0 0 0 2.8,5.8A0.2,0.2 0 0 0 2.4,5.8zM3.6,5.8A0.2,0.2 0 0 0 4,5.8A0.2,0.2 0 0 0 3.6,5.8zM4,5.8A0.2,0.2 0 0 0 4.4,5.8A0.2,0.2 0 0 0 4,5.8zM5.6,5.8A0.2,0.2 0 0 0 6,5.8A0.2,0.2 0 0 0 5.6,5.8zM6.4,5.8A0.2,0.2 0 0 0 6.8,5.8A0.2,0.2 0 0 0 6.4,5.8zM7.2,5.8A0.2,0.2 0 0 0 7.6,5.8A0.2,0.2 0 0 0 7.2,5.8zM7.6,5.8A0.2,0.2 0 0 0 8,5.8A0.2,0.2 0 0 0 7.6,5.8zM8,5.8A0.2,0.2 0 0 0 8.4,5.8A0.2,0.2 0 0 0 8,5.8zM9.6,5.8A0.2,0.2 0 0 0 10,5.8A0.2,0.2 0 0 0 9.6,5.8zM10.4,5.8A0.2,0.2 0 0 0 10.8,5.8A0.2,0.2 0 0 0 10.4,5.8zM10.8,5.8A0.2,0.2 0 0 0 11.2,5.8A0.2,0.2 0 0 0 10.8,5.8zM11.2,5.8A0.2,0.2 0 0 0 11.6,5.8A0.2,0.2 0 0 0 11.2,5.8zM12.4,5.8A0.2,0.2 0 0 0 12.8,5.8A0.2,0.2 0 0 0 12.4,5.8zM12.8,5.8A0.2,0.2 0 0 0 13.2,5.8A0.2,0.2 0 0 0 12.8,5.8zM14,5.8A0.2,0.2 0 0 0 14.4,5.8A0.2,0.2 0 0 0 14,5.8zM14.4,5.8A0.2,0.2 0 0 0 14.8,5.8A0.2,0.2 0 0 0 14.4,5.8zM0.4,6.2A0.2,0.2 0 0 0 0.8,6.2A0.2,0.2 0 0 0 0.4,6.2zM1.2,6.2A0.2,0.2 0 0 0 1.6,6.2A0.2,0.2 0 0 0 1.2,6.2zM1.6,6.2A0.2,0.2 0 0 0 2,6.2A0.2,0.2 0 0 0 1.6,6.2zM2,6.2A0.2,0.2 0 0 0 2.4,6.2A0.2,0.2 0 0 0 2,6.2zM3.2,6.2A0.2,0.2 0 0 0 3.6,6.2A0.2,0.2 0 0 0 3.2,6.2zM3.6,6.2A0.2,0.2 0 0 0 4,6.2A0.2,0.2 0 0 0 3.6,6.2zM5.2,6.2A0.2,0.2 0 0 0 5.6,6.2A0.2,0.2 0 0 0 5.2,6.2zM5.6,6.2A0.2,0.2 0 0 0 6,6.2A0.2,0.2 0 0 0 5.6,6.2zM6,6.2A0.2,0.2 0 0 0 6.4,6.2A0.2,0.2 0 0 0 6,6.2zM6.4,6.2A0.2,0.2 0 0 0 6.8,6.2A0.2,0.2 0 0 0 6.4,6.2zM7.2,6.2A0.2,0.2 0 0 0 7.6,6.2A0.2,0.2 0 0 0 7.2,6.2zM9.2,6.2A0.2,0.2 0 0 0 9.6,6.2A0.2,0.2 0 0 0 9.2,6.2zM9.6,6.2A0.2,0.2 0 0 0 10,6.2A0.2,0.2 0 0 0 9.6,6.2zM10.4,6.2A0.2,0.2 0 0 0 10.8,6.2A0.2,0.2 0 0 0 10.4,6.2zM10.8,6.2A0.2,0.2 0 0 0 11.2,6.2A0.2,0.2 0 0 0 10.8,6.2zM11.6,6.2A0.2,0.2 0 0 0 12,6.2A0.2,0.2 0 0 0 11.6,6.2zM12,6.2A0.2,0.2 0 0 0 12.4,6.2A0.2,0.2 0 0 0 12,6.2zM12.8,6.2A0.2,0.2 0 0 0 13.2,6.2A0.2,0.2 0 0 0 12.8,6.2zM13.2,6.2A0.2,0.2 0 0 0 13.6,6.2A0.2,0.2 0 0 0 13.2,6.2zM13.6,6.2A0.2,0.2 0 0 0 14,6.2A0.2,0.2 0 0 0 13.6,6.2zM14,6.2A0.2,0.2 0 0 0 14.4,6.2A0.2,0.2 0 0 0 14,6.2zM14.4,6.2A0.2,0.2 0 0 0 14.8,6.2A0.2,0.2 0 0 0 14.4,6.2zM0.8,6.6A0.2,0.2 0 0 0 1.2,6.6A0.2,0.2 0 0 0 0.8,6.6zM2.4,6.6A0.2,0.2 0 0 0 2.8,6.6A0.2,0.2 0 0 0 2.4,6.6zM2.8,6.6A0.2,0.2 0 0 0 3.2,6.6A0.2,0.2 0 0 0 2.8,6.6zM3.6,6.6A0.2,0.2 0 0 0 4,6.6A0.2,0.2 0 0 0 3.6,6.6zM4.4,6.6A0.2,0.2 0 0 0 4.8,6.6A0.2,0.2 0 0 0 4.4,6.6zM4.8,6.6A0.2,0.2 0 0 0 5.2,6.6A0.2,0.2 0 0 0 4.8,6.6zM5.2,6.6A0.2,0.2 0 0 0 5.6,6.6A0.2,0.2 0 0 0 5.2,6.6zM6.4,6.6A0.2,0.2 0 0 0 6.8,6.6A0.2,0.2 0 0 0 6.4,6.6zM7.2,6.6A0.2,0.2 0 0 0 7.6,6.6A0.2,0.2 0 0 0 7.2,6.6zM8.4,6.6A0.2,0.2 0 0 0 8.8,6.6A0.2,0.2 0 0 0 8.4,6.6zM8.8,6.6A0.2,0.2 0 0 0 9.2,6.6A0.2,0.2 0 0 0 8.8,6.6zM10,6.6A0.2,0.2 0 0 0 10.4,6.6A0.2,0.2 0 0 0 10,6.6zM10.4,6.6A0.2,0.2 0 0 0 10.8,6.6A0.2,0.2 0 0 0 10.4,6.6zM11.2,6.6A0.2,0.2 0 0 0 11.6,6.6A0.2,0.2 0 0 0 11.2,6.6zM11.6,6.6A0.2,0.2 0 0 0 12,6.6A0.2,0.2 0 0 0 11.6,6.6zM12,6.6A0.2,0.2 0 0 0 12.4,6.6A0.2,0.2 0 0 0 12,6.6zM12.8,6.6A0.2,0.2 0 0 0 13.2,6.6A0.2,0.2 0 0 0 12.8,6.6zM13.2,6.6A0.2,0.2 0 0 0 13.6,6.6A0.2,0.2 0 0 0 13.2,6.6zM13.6,6.6A0.2,0.2 0 0 0 14,6.6A0.2,0.2 0 0 0 13.6,6.6zM1.2,7A0.2,0.2 0 0 0 1.6,7A0.2,0.2 0 0 0 1.2,7zM4.8,7A0.2,0.2 0 0 0 5.2,7A0.2,0.2 0 0 0 4.8,7zM5.2,7A0.2,0.2 0 0 0 5.6,7A0.2,0.2 0 0 0 5.2,7zM6,7A0.2,0.2 0 0 0 6.4,7A0.2,0.2 0 0 0 6,7zM10,7A0.2,0.2 0 0 0 10.4,7A0.2,0.2 0 0 0 10,7zM10.4,7A0.2,0.2 0 0 0 10.8,7A0.2,0.2 0 0 0 10.4,7zM11.2,7A0.2,0.2 0 0 0 11.6,7A0.2,0.2 0 0 0 11.2,7zM12,7A0.2,0.2 0 0 0 12.4,7A0.2,0.2 0 0 0 12,7zM12.4,7A0.2,0.2 0 0 0 12.8,7A0.2,0.2 0 0 0 12.4,7zM13.6,7A0.2,0.2 0 0 0 14,7A0.2,0.2 0 0 0 13.6,7zM14,7A0.2,0.2 0 0 0 14.4,7A0.2,0.2 0 0 0 14,7zM0.4,7.4A0.2,0.2 0 0 0 0.8,7.4A0.2,0.2 0 0 0 0.4,7.4zM2.4,7.4A0.2,0.2 0 0 0 2.8,7.4A0.2,0.2 0 0 0 2.4,7.4zM2.8,7.4A0.2,0.2 0 0 0 3.2,7.4A0.2,0.2 0 0 0 2.8,7.4zM3.2,7.4A0.2,0.2 0 0 0 3.6,7.4A0.2,0.2 0 0 0 3.2,7.4zM4,7.4A0.2,0.2 0 0 0 4.4,7.4A0.2,0.2 0 0 0 4,7.4zM4.8,7.4A0.2,0.2 0 0 0 5.2,7.4A0.2,0.2 0 0 0 4.8,7.4zM5.2,7.4A0.2,0.2 0 0 0 5.6,7.4A0.2,0.2 0 0 0 5.2,7.4zM6,7.4A0.2,0.2 0 0 0 6.4,7.4A0.2,0.2 0 0 0 6,7.4zM6.4,7.4A0.2,0.2 0 0 0 6.8,7.4A0.2,0.2 0 0 0 6.4,7.4zM7.2,7.4A0.2,0.2 0 0 0 7.6,7.4A0.2,0.2 0 0 0 7.2,7.4zM8,7.4A0.2,0.2 0 0 0 8.4,7.4A0.2,0.2 0 0 0 8,7.4zM9.6,7.4A0.2,0.2 0 0 0 10,7.4A0.2,0.2 0 0 0 9.6,7.4zM10,7.4A0.2,0.2 0 0 0 10.4,7.4A0.2,0.2 0 0 0 10,7.4zM10.4,7.4A0.2,0.2 0 0 0 10.8,7.4A0.2,0.2 0 0 0 10.4,7.4zM10.8,7.4A0.2,0.2 0 0 0 11.2,7.4A0.2,0.2 0 0 0 10.8,7.4zM11.2,7.4A0.2,0.2 0 0 0 11.6,7.4A0.2,0.2 0 0 0 11.2,7.4zM11.6,7.4A0.2,0.2 0 0 0 12,7.4A0.2,0.2 0 0 0 11.6,7.4zM12,7.4A0.2,0.2 0 0 0 12.4,7.4A0.2,0.2 0 0 0 12,7.4zM12.4,7.4A0.2,0.2 0 0 0 12.8,7.4A0.2,0.2 0 0 0 12.4,7.4zM12.8,7.4A0.2,0.2 0 0 0 13.2,7.4A0.2,0.2 0 0 0 12.8,7.4zM13.2,7.4A0.2,0.2 0 0 0 13.6,7.4A0.2,0.2 0 0 0 13.2,7.4zM13.6,7.4A0.2,0.2 0 0 0 14,7.4A0.2,0.2 0 0 0 13.6,7.4zM14,7.4A0.2,0.2 0 0 0 14.4,7.4A0.2,0.2 0 0 0 14,7.4zM14.4,7.4A0.2,0.2 0 0 0 14.8,7.4A0.2,0.2 0 0 0 14.4,7.4zM0,7.8A0.2,0.2 0 0 0 0.4,7.8A0.2,0.2 0 0 0 0,7.8zM0.4,7.8A0.2,0.2 0 0 0 0.8,7.8A0.2,0.2 0 0 0 0.4,7.8zM1.2,7.8A0.2,0.2 0 0 0 1.6,7.8A0.2,0.2 0 0 0 1.2,7.8zM1.6,7.8A0.2,0.2 0 0 0 2,7.8A0.2,0.2 0 0 0 1.6,7.8zM3.2,7.8A0.2,0.2 0 0 0 3.6,7.8A0.2,0.2 0 0 0 3.2,7.8zM5.2,7.8A0.2,0.2 0 0 0 5.6,7.8A0.2,0.2 0 0 0 5.2,7.8zM5.6,7.8A0.2,0.2 0 0 0 6,7.8A0.2,0.2 0 0 0 5.6,7.8zM6,7.8A0.2,0.2 0 0 0 6.4,7.8A0.2,0.2 0 0 0 6,7.8zM6.8,7.8A0.2,0.2 0 0 0 7.2,7.8A0.2,0.2 0 0 0 6.8,7.8zM7.6,7.8A0.2,0.2 0 0 0 8,7.8A0.2,0.2 0 0 0 7.6,7.8zM8,7.8A0.2,0.2 0 0 0 8.4,7.8A0.2,0.2 0 0 0 8,7.8zM10.8,7.8A0.2,0.2 0 0 0 11.2,7.8A0.2,0.2 0 0 0 10.8,7.8zM11.6,7.8A0.2,0.2 0 0 0 12,7.8A0.2,0.2 0 0 0 11.6,7.8zM13.2,7.8A0.2,0.2 0 0 0 13.6,7.8A0.2,0.2 0 0 0 13.2,7.8zM14.4,7.8A0.2,0.2 0 0 0 14.8,7.8A0.2,0.2 0 0 0 14.4,7.8zM0,8.2A0.2,0.2 0 0 0 0.4,8.2A0.2,0.2 0 0 0 0,8.2zM1.6,8.2A0.2,0.2 0 0 0 2,8.2A0.2,0.2 0 0 0 1.6,8.2zM2.4,8.2A0.2,0.2 0 0 0 2.8,8.2A0.2,0.2 0 0 0 2.4,8.2zM2.8,8.2A0.2,0.2 0 0 0 3.2,8.2A0.2,0.2 0 0 0 2.8,8.2zM4.4,8.2A0.2,0.2 0 0 0 4.8,8.2A0.2,0.2 0 0 0 4.4,8.2zM5.2,8.2A0.2,0.2 0 0 0 5.6,8.2A0.2,0.2 0 0 0 5.2,8.2zM6,8.2A0.2,0.2 0 0 0 6.4,8.2A0.2,0.2 0 0 0 6,8.2zM7.6,8.2A0.2,0.2 0 0 0 8,8.2A0.2,0.2 0 0 0 7.6,8.2zM8,8.2A0.2,0.2 0 0 0 8.4,8.2A0.2,0.2 0 0 0 8,8.2zM8.4,8.2A0.2,0.2 0 0 0 8.8,8.2A0.2,0.2 0 0 0 8.4,8.2zM9.2,8.2A0.2,0.2 0 0 0 9.6,8.2A0.2,0.2 0 0 0 9.2,8.2zM9.6,8.2A0.2,0.2 0 0 0 10,8.2A0.2,0.2 0 0 0 9.6,8.2zM10.4,8.2A0.2,0.2 0 0 0 10.8,8.2A0.2,0.2 0 0 0 10.4,8.2zM11.2,8.2A0.2,0.2 0 0 0 11.6,8.2A0.2,0.2 0 0 0 11.2,8.2zM11.6,8.2A0.2,0.2 0 0 0 12,8.2A0.2,0.2 0 0 0 11.6,8.2zM12,8.2A0.2,0.2 0 0 0 12.4,8.2A0.2,0.2 0 0 0 12,8.2zM12.8,8.2A0.2,0.2 0 0 0 13.2,8.2A0.2,0.2 0 0 0 12.8,8.2zM14,8.2A0.2,0.2 0 0 0 14.4,8.2A0.2,0.2 0 0 0 14,8.2zM0,8.6A0.2,0.2 0 0 0 0.4,8.6A0.2,0.2 0 0 0 0,8.6zM0.4,8.6A0.2,0.2 0 0 0 0.8,8.6A0.2,0.2 0 0 0 0.4,8.6zM0.8,8.6A0.2,0.2 0 0 0 1.2,8.6A0.2,0.2 0 0 0 0.8,8.6zM1.6,8.6A0.2,0.2 0 0 0 2,8.6A0.2,0.2 0 0 0 1.6,8.6zM3.2,8.6A0.2,0.2 0 0 0 3.6,8.6A0.2,0.2 0 0 0 3.2,8.6zM3.6,8.6A0.2,0.2 0 0 0 4,8.6A0.2,0.2 0 0 0 3.6,8.6zM4,8.6A0.2,0.2 0 0 0 4.4,8.6A0.2,0.2 0 0 0 4,8.6zM4.8,8.6A0.2,0.2 0 0 0 5.2,8.6A0.2,0.2 0 0 0 4.8,8.6zM5.2,8.6A0.2,0.2 0 0 0 5.6,8.6A0.2,0.2 0 0 0 5.2,8.6zM5.6,8.6A0.2,0.2 0 0 0 6,8.6A0.2,0.2 0 0 0 5.6,8.6zM6,8.6A0.2,0.2 0 0 0 6.4,8.6A0.2,0.2 0 0 0 6,8.6zM6.8,8.6A0.2,0.2 0 0 0 7.2,8.6A0.2,0.2 0 0 0 6.8,8.6zM7.6,8.6A0.2,0.2 0 0 0 8,8.6A0.2,0.2 0 0 0 7.6,8.6zM8,8.6A0.2,0.2 0 0 0 8.4,8.6A0.2,0.2 0 0 0 8,8.6zM8.4,8.6A0.2,0.2 0 0 0 8.8,8.6A0.2,0.2 0 0 0 8.4,8.6zM9.6,8.6A0.2,0.2 0 0 0 10,8.6A0.2,0.2 0 0 0 9.6,8.6zM10.4,8.6A0.2,0.2 0 0 0 10.8,8.6A0.2,0.2 0 0 0 10.4,8.6zM10.8,8.6A0.2,0.2 0 0 0 11.2,8.6A0.2,0.2 0 0 0 10.8,8.6zM11.6,8.6A0.2,0.2 0 0 0 12,8.6A0.2,0.2 0 0 0 11.6,8.6zM12,8.6A0.2,0.2 0 0 0 12.4,8.6A0.2,0.2 0 0 0 12,8.6zM12.4,8.6A0.2,0.2 0 0 0 12.8,8.6A0.2,0.2 0 0 0 12.4,8.6zM12.8,8.6A0.2,0.2 0 0 0 13.2,8.6A0.2,0.2 0 0 0 12.8,8.6zM13.6,8.6A0.2,0.2 0 0 0 14,8.6A0.2,0.2 0 0 0 13.6,8.6zM0.4,9A0.2,0.2 0 0 0 0.8,9A0.2,0.2 0 0 0 0.4,9zM0.8,9A0.2,0.2 0 0 0 1.2,9A0.2,0.2 0 0 0 0.8,9zM1.6,9A0.2,0.2 0 0 0 2,9A0.2,0.2 0 0 0 1.6,9zM2,9A0.2,0.2 0 0 0 2.4,9A0.2,0.2 0 0 0 2,9zM2.4,9A0.2,0.2 0 0 0 2.8,9A0.2,0.2 0 0 0 2.4,9zM3.6,9A0.2,0.2 0 0 0 4,9A0.2,0.2 0 0 0 3.6,9zM4.4,9A0.2,0.2 0 0 0 4.8,9A0.2,0.2 0 0 0 4.4,9zM4.8,9A0.2,0.2 0 0 0 5.2,9A0.2,0.2 0 0 0 4.8,9zM5.2,9A0.2,0.2 0 0 0 5.6,9A0.2,0.2 0 0 0 5.2,9zM5.6,9A0.2,0.2 0 0 0 6,9A0.2,0.2 0 0 0 5.6,9zM6.4,9A0.2,0.2 0 0 0 6.8,9A0.2,0.2 0 0 0 6.4,9zM6.8,9A0.2,0.2 0 0 0 7.2,9A0.2,0.2 0 0 0 6.8,9zM7.6,9A0.2,0.2 0 0 0 8,9A0.2,0.2 0 0 0 7.6,9zM9.2,9A0.2,0.2 0 0 0 9.6,9A0.2,0.2 0 0 0 9.2,9zM9.6,9A0.2,0.2 0 0 0 10,9A0.2,0.2 0 0 0 9.6,9zM10,9A0.2,0.2 0 0 0 10.4,9A0.2,0.2 0 0 0 10,9zM10.4,9A0.2,0.2 0 0 0 10.8,9A0.2,0.2 0 0 0 10.4,9zM10.8,9A0.2,0.2 0 0 0 11.2,9A0.2,0.2 0 0 0 10.8,9zM11.6,9A0.2,0.2 0 0 0 12,9A0.2,0.2 0 0 0 11.6,9zM13.6,9A0.2,0.2 0 0 0 14,9A0.2,0.2 0 0 0 13.6,9zM14,9A0.2,0.2 0 0 0 14.4,9A0.2,0.2 0 0 0 14,9zM14.4,9A0.2,0.2 0 0 0 14.8,9A0.2,0.2 0 0 0 14.4,9zM0,9.4A0.2,0.2 0 0 0 0.4,9.4A0.2,0.2 0 0 0 0,9.4zM1.2,9.4A0.2,0.2 0 0 0 1.6,9.4A0.2,0.2 0 0 0 1.2,9.4zM2,9.4A0.2,0.2 0 0 0 2.4,9.4A0.2,0.2 0 0 0 2,9.4zM2.8,9.4A0.2,0.2 0 0 0 3.2,9.4A0.2,0.2 0 0 0 2.8,9.4zM3.2,9.4A0.2,0.2 0 0 0 3.6,9.4A0.2,0.2 0 0 0 3.2,9.4zM3.6,9.4A0.2,0.2 0 0 0 4,9.4A0.2,0.2 0 0 0 3.6,9.4zM5.2,9.4A0.2,0.2 0 0 0 5.6,9.4A0.2,0.2 0 0 0 5.2,9.4zM5.6,9.4A0.2,0.2 0 0 0 6,9.4A0.2,0.2 0 0 0 5.6,9.4zM6,9.4A0.2,0.2 0 0 0 6.4,9.4A0.2,0.2 0 0 0 6,9.4zM8,9.4A0.2,0.2 0 0 0 8.4,9.4A0.2,0.2 0 0 0 8,9.4zM8.4,9.4A0.2,0.2 0 0 0 8.8,9.4A0.2,0.2 0 0 0 8.4,9.4zM8.8,9.4A0.2,0.2 0 0 0 9.2,9.4A0.2,0.2 0 0 0 8.8,9.4zM9.2,9.4A0.2,0.2 0 0 0 9.6,9.4A0.2,0.2 0 0 0 9.2,9.4zM12,9.4A0.2,0.2 0 0 0 12.4,9.4A0.2,0.2 0 0 0 12,9.4zM12.4,9.4A0.2,0.2 0 0 0 12.8,9.4A0.2,0.2 0 0 0 12.4,9.4zM13.2,9.4A0.2,0.2 0 0 0 13.6,9.4A0.2,0.2 0 0 0 13.2,9.4zM14.4,9.4A0.2,0.2 0 0 0 14.8,9.4A0.2,0.2 0 0 0 14.4,9.4zM0.4,9.8A0.2,0.2 0 0 0 0.8,9.8A0.2,0.2 0 0 0 0.4,9.8zM0.8,9.8A0.2,0.2 0 0 0 1.2,9.8A0.2,0.2 0 0 0 0.8,9.8zM1.6,9.8A0.2,0.2 0 0 0 2,9.8A0.2,0.2 0 0 0 1.6,9.8zM2.4,9.8A0.2,0.2 0 0 0 2.8,9.8A0.2,0.2 0 0 0 2.4,9.8zM2.8,9.8A0.2,0.2 0 0 0 3.2,9.8A0.2,0.2 0 0 0 2.8,9.8zM3.2,9.8A0.2,0.2 0 0 0 3.6,9.8A0.2,0.2 0 0 0 3.2,9.8zM4.4,9.8A0.2,0.2 0 0 0 4.8,9.8A0.2,0.2 0 0 0 4.4,9.8zM4.8,9.8A0.2,0.2 0 0 0 5.2,9.8A0.2,0.2 0 0 0 4.8,9.8zM5.2,9.8A0.2,0.2 0 0 0 5.6,9.8A0.2,0.2 0 0 0 5.2,9.8zM5.6,9.8A0.2,0.2 0 0 0 6,9.8A0.2,0.2 0 0 0 5.6,9.8zM7.2,9.8A0.2,0.2 0 0 0 7.6,9.8A0.2,0.2 0 0 0 7.2,9.8zM8,9.8A0.2,0.2 0 0 0 8.4,9.8A0.2,0.2 0 0 0 8,9.8zM8.8,9.8A0.2,0.2 0 0 0 9.2,9.8A0.2,0.2 0 0 0 8.8,9.8zM9.2,9.8A0.2,0.2 0 0 0 9.6,9.8A0.2,0.2 0 0 0 9.2,9.8zM9.6,9.8A0.2,0.2 0 0 0 10,9.8A0.2,0.2 0 0 0 9.6,9.8zM10.4,9.8A0.2,0.2 0 0 0 10.8,9.8A0.2,0.2 0 0 0 10.4,9.8zM10.8,9.8A0.2,0.2 0 0 0 11.2,9.8A0.2,0.2 0 0 0 10.8,9.8zM11.2,9.8A0.2,0.2 0 0 0 11.6,9.8A0.2,0.2 0 0 0 11.2,9.8zM12,9.8A0.2,0.2 0 0 0 12.4,9.8A0.2,0.2 0 0 0 12,9.8zM12.4,9.8A0.2,0.2 0 0 0 12.8,9.8A0.2,0.2 0 0 0 12.4,9.8zM13.2,9.8A0.2,0.2 0 0 0 13.6,9.8A0.2,0.2 0 0 0 13.2,9.8zM14.4,9.8A0.2,0.2 0 0 0 14.8,9.8A0.2,0.2 0 0 0 14.4,9.8zM0,10.2A0.2,0.2 0 0 0 0.4,10.2A0.2,0.2 0 0 0 0,10.2zM0.4,10.2A0.2,0.2 0 0 0 0.8,10.2A0.2,0.2 0 0 0 0.4,10.2zM0.8,10.2A0.2,0.2 0 0 0 1.2,10.2A0.2,0.2 0 0 0 0.8,10.2zM1.6,10.2A0.2,0.2 0 0 0 2,10.2A0.2,0.2 0 0 0 1.6,10.2zM3.6,10.2A0.2,0.2 0 0 0 4,10.2A0.2,0.2 0 0 0 3.6,10.2zM4,10.2A0.2,0.2 0 0 0 4.4,10.2A0.2,0.2 0 0 0 4,10.2zM5.2,10.2A0.2,0.2 0 0 0 5.6,10.2A0.2,0.2 0 0 0 5.2,10.2zM6,10.2A0.2,0.2 0 0 0 6.4,10.2A0.2,0.2 0 0 0 6,10.2zM7.2,10.2A0.2,0.2 0 0 0 7.6,10.2A0.2,0.2 0 0 0 7.2,10.2zM8.4,10.2A0.2,0.2 0 0 0 8.8,10.2A0.2,0.2 0 0 0 8.4,10.2zM9.6,10.2A0.2,0.2 0 0 0 10,10.2A0.2,0.2 0 0 0 9.6,10.2zM10,10.2A0.2,0.2 0 0 0 10.4,10.2A0.2,0.2 0 0 0 10,10.2zM10.4,10.2A0.2,0.2 0 0 0 10.8,10.2A0.2,0.2 0 0 0 10.4,10.2zM10.8,10.2A0.2,0.2 0 0 0 11.2,10.2A0.2,0.2 0 0 0 10.8,10.2zM11.2,10.2A0.2,0.2 0 0 0 11.6,10.2A0.2,0.2 0 0 0 11.2,10.2zM12,10.2A0.2,0.2 0 0 0 12.4,10.2A0.2,0.2 0 0 0 12,10.2zM12.4,10.2A0.2,0.2 0 0 0 12.8,10.2A0.2,0.2 0 0 0 12.4,10.2zM13.6,10.2A0.2,0.2 0 0 0 14,10.2A0.2,0.2 0 0 0 13.6,10.2zM14,10.2A0.2,0.2 0 0 0 14.4,10.2A0.2,0.2 0 0 0 14,10.2zM0,10.6A0.2,0.2 0 0 0 0.4,10.6A0.2,0.2 0 0 0 0,10.6zM1.2,10.6A0.2,0.2 0 0 0 1.6,10.6A0.2,0.2 0 0 0 1.2,10.6zM2.4,10.6A0.2,0.2 0 0 0 2.8,10.6A0.2,0.2 0 0 0 2.4,10.6zM3.2,10.6A0.2,0.2 0 0 0 3.6,10.6A0.2,0.2 0 0 0 3.2,10.6zM3.6,10.6A0.2,0.2 0 0 0 4,10.6A0.2,0.2 0 0 0 3.6,10.6zM4,10.6A0.2,0.2 0 0 0 4.4,10.6A0.2,0.2 0 0 0 4,10.6zM4.8,10.6A0.2,0.2 0 0 0 5.2,10.6A0.2,0.2 0 0 0 4.8,10.6zM5.6,10.6A0.2,0.2 0 0 0 6,10.6A0.2,0.2 0 0 0 5.6,10.6zM6.4,10.6A0.2,0.2 0 0 0 6.8,10.6A0.2,0.2 0 0 0 6.4,10.6zM7.2,10.6A0.2,0.2 0 0 0 7.6,10.6A0.2,0.2 0 0 0 7.2,10.6zM8,10.6A0.2,0.2 0 0 0 8.4,10.6A0.2,0.2 0 0 0 8,10.6zM8.4,10.6A0.2,0.2 0 0 0 8.8,10.6A0.2,0.2 0 0 0 8.4,10.6zM10.8,10.6A0.2,0.2 0 0 0 11.2,10.6A0.2,0.2 0 0 0 10.8,10.6zM11.2,10.6A0.2,0.2 0 0 0 11.6,10.6A0.2,0.2 0 0 0 11.2,10.6zM12,10.6A0.2,0.2 0 0 0 12.4,10.6A0.2,0.2 0 0 0 12,10.6zM12.8,10.6A0.2,0.2 0 0 0 13.2,10.6A0.2,0.2 0 0 0 12.8,10.6zM14.4,10.6A0.2,0.2 0 0 0 14.8,10.6A0.2,0.2 0 0 0 14.4,10.6zM0,11A0.2,0.2 0 0 0 0.4,11A0.2,0.2 0 0 0 0,11zM0.8,11A0.2,0.2 0 0 0 1.2,11A0.2,0.2 0 0 0 0.8,11zM1.6,11A0.2,0.2 0 0 0 2,11A0.2,0.2 0 0 0 1.6,11zM2.8,11A0.2,0.2 0 0 0 3.2,11A0.2,0.2 0 0 0 2.8,11zM3.2,11A0.2,0.2 0 0 0 3.6,11A0.2,0.2 0 0 0 3.2,11zM4,11A0.2,0.2 0 0 0 4.4,11A0.2,0.2 0 0 0 4,11zM4.4,11A0.2,0.2 0 0 0 4.8,11A0.2,0.2 0 0 0 4.4,11zM6,11A0.2,0.2 0 0 0 6.4,11A0.2,0.2 0 0 0 6,11zM7.2,11A0.2,0.2 0 0 0 7.6,11A0.2,0.2 0 0 0 7.2,11zM7.6,11A0.2,0.2 0 0 0 8,11A0.2,0.2 0 0 0 7.6,11zM8,11A0.2,0.2 0 0 0 8.4,11A0.2,0.2 0 0 0 8,11zM8.8,11A0.2,0.2 0 0 0 9.2,11A0.2,0.2 0 0 0 8.8,11zM9.6,11A0.2,0.2 0 0 0 10,11A0.2,0.2 0 0 0 9.6,11zM10.4,11A0.2,0.2 0 0 0 10.8,11A0.2,0.2 0 0 0 10.4,11zM10.8,11A0.2,0.2 0 0 0 11.2,11A0.2,0.2 0 0 0 10.8,11zM11.2,11A0.2,0.2 0 0 0 11.6,11A0.2,0.2 0 0 0 11.2,11zM11.6,11A0.2,0.2 0 0 0 12,11A0.2,0.2 0 0 0 11.6,11zM13.2,11A0.2,0.2 0 0 0 13.6,11A0.2,0.2 0 0 0 13.2,11zM13.6,11A0.2,0.2 0 0 0 14,11A0.2,0.2 0 0 0 13.6,11zM14,11A0.2,0.2 0 0 0 14.4,11A0.2,0.2 0 0 0 14,11zM0,11.4A0.2,0.2 0 0 0 0.4,11.4A0.2,0.2 0 0 0 0,11.4zM1.2,11.4A0.2,0.2 0 0 0 1.6,11.4A0.2,0.2 0 0 0 1.2,11.4zM2,11.4A0.2,0.2 0 0 0 2.4,11.4A0.2,0.2 0 0 0 2,11.4zM2.4,11.4A0.2,0.2 0 0 0 2.8,11.4A0.2,0.2 0 0 0 2.4,11.4zM3.6,11.4A0.2,0.2 0 0 0 4,11.4A0.2,0.2 0 0 0 3.6,11.4zM4.4,11.4A0.2,0.2 0 0 0 4.8,11.4A0.2,0.2 0 0 0 4.4,11.4zM6,11.4A0.2,0.2 0 0 0 6.4,11.4A0.2,0.2 0 0 0 6,11.4zM6.4,11.4A0.2,0.2 0 0 0 6.8,11.4A0.2,0.2 0 0 0 6.4,11.4zM6.8,11.4A0.2,0.2 0 0 0 7.2,11.4A0.2,0.2 0 0 0 6.8,11.4zM7.2,11.4A0.2,0.2 0 0 0 7.6,11.4A0.2,0.2 0 0 0 7.2,11.4zM7.6,11.4A0.2,0.2 0 0 0 8,11.4A0.2,0.2 0 0 0 7.6,11.4zM8.4,11.4A0.2,0.2 0 0 0 8.8,11.4A0.2,0.2 0 0 0 8.4,11.4zM9.2,11.4A0.2,0.2 0 0 0 9.6,11.4A0.2,0.2 0 0 0 9.2,11.4zM9.6,11.4A0.2,0.2 0 0 0 10,11.4A0.2,0.2 0 0 0 9.6,11.4zM10.4,11.4A0.2,0.2 0 0 0 10.8,11.4A0.2,0.2 0 0 0 10.4,11.4zM10.8,11.4A0.2,0.2 0 0 0 11.2,11.4A0.2,0.2 0 0 0 10.8,11.4zM11.2,11.4A0.2,0.2 0 0 0 11.6,11.4A0.2,0.2 0 0 0 11.2,11.4zM11.6,11.4A0.2,0.2 0 0 0 12,11.4A0.2,0.2 0 0 0 11.6,11.4zM12,11.4A0.2,0.2 0 0 0 12.4,11.4A0.2,0.2 0 0 0 12,11.4zM12.4,11.4A0.2,0.2 0 0 0 12.8,11.4A0.2,0.2 0 0 0 12.4,11.4zM12.8,11.4A0.2,0.2 0 0 0 13.2,11.4A0.2,0.2 0 0 0 12.8,11.4zM13.2,11.4A0.2,0.2 0 0 0 13.6,11.4A0.2,0.2 0 0 0 13.2,11.4zM13.6,11.4A0.2,0.2 0 0 0 14,11.4A0.2,0.2 0 0 0 13.6,11.4zM3.2,11.8A0.2,0.2 0 0 0 3.6,11.8A0.2,0.2 0 0 0 3.2,11.8zM4,11.8A0.2,0.2 0 0 0 4.4,11.8A0.2,0.2 0 0 0 4,11.8zM5.6,11.8A0.2,0.2 0 0 0 6,11.8A0.2,0.2 0 0 0 5.6,11.8zM6,11.8A0.2,0.2 0 0 0 6.4,11.8A0.2,0.2 0 0 0 6,11.8zM7.6,11.8A0.2,0.2 0 0 0 8,11.8A0.2,0.2 0 0 0 7.6,11.8zM8.8,11.8A0.2,0.2 0 0 0 9.2,11.8A0.2,0.2 0 0 0 8.8,11.8zM10.4,11.8A0.2,0.2 0 0 0 10.8,11.8A0.2,0.2 0 0 0 10.4,11.8zM11.2,11.8A0.2,0.2 0 0 0 11.6,11.8A0.2,0.2 0 0 0 11.2,11.8zM12.8,11.8A0.2,0.2 0 0 0 13.2,11.8A0.2,0.2 0 0 0 12.8,11.8zM13.2,11.8A0.2,0.2 0 0 0 13.6,11.8A0.2,0.2 0 0 0 13.2,11.8zM13.6,11.8A0.2,0.2 0 0 0 14,11.8A0.2,0.2 0 0 0 13.6,11.8zM14,11.8A0.2,0.2 0 0 0 14.4,11.8A0.2,0.2 0 0 0 14,11.8zM14.4,11.8A0.2,0.2 0 0 0 14.8,11.8A0.2,0.2 0 0 0 14.4,11.8zM0,12H0.4V12.4H0zM0.4,12H0.8V12.4H0.4zM0.8,12H1.2V12.4H0.8zM1.2,12H1.6V12.4H1.2zM1.6,12H2V12.4H1.6zM2,12H2.4V12.4H2zM2.4,12H2.8V12.4H2.4zM4,12.2A0.2,0.2 0 0 0 4.4,12.2A0.2,0.2 0 0 0 4,12.2zM4.8,12.2A0.2,0.2 0 0 0 5.2,12.2A0.2,0.2 0 0 0 4.8,12.2zM5.6,12.2A0.2,0.2 0 0 0 6,12.2A0.2,0.2 0 0 0 5.6,12.2zM6.4,12.2A0.2,0.2 0 0 0 6.8,12.2A0.2,0.2 0 0 0 6.4,12.2zM6.8,12.2A0.2,0.2 0 0 0 7.2,12.2A0.2,0.2 0 0 0 6.8,12.2zM7.2,12.2A0.2,0.2 0 0 0 7.6,12.2A0.2,0.2 0 0 0 7.2,12.2zM9.2,12.2A0.2,0.2 0 0 0 9.6,12.2A0.2,0.2 0 0 0 9.2,12.2zM10,12.2A0.2,0.2 0 0 0 10.4,12.2A0.2,0.2 0 0 0 10,12.2zM10.4,12.2A0.2,0.2 0 0 0 10.8,12.2A0.2,0.2 0 0 0 10.4,12.2zM11.2,12.2A0.2,0.2 0 0 0 11.6,12.2A0.2,0.2 0 0 0 11.2,12.2zM12,12.2A0.2,0.2 0 0 0 12.4,12.2A0.2,0.2 0 0 0 12,12.2zM12.8,12.2A0.2,0.2 0 0 0 13.2,12.2A0.2,0.2 0 0 0 12.8,12.2zM13.6,12.2A0.2,0.2 0 0 0 14,12.2A0.2,0.2 0 0 0 13.6,12.2zM14.4,12.2A0.2,0.2 0 0 0 14.8,12.2A0.2,0.2 0 0 0 14.4,12.2zM0,12.4H0.4V12.8H0zM2.4,12.4H2.8V12.8H2.4zM3.2,12.6A0.2,0.2 0 0 0 3.6,12.6A0.2,0.2 0 0 0 3.2,12.6zM4,12.6A0.2,0.2 0 0 0 4.4,12.6A0.2,0.2 0 0 0 4,12.6zM5.2,12.6A0.2,0.2 0 0 0 5.6,12.6A0.2,0.2 0 0 0 5.2,12.6zM5.6,12.6A0.2,0.2 0 0 0 6,12.6A0.2,0.2 0 0 0 5.6,12.6zM6,12.6A0.2,0.2 0 0 0 6.4,12.6A0.2,0.2 0 0 0 6,12.6zM6.8,12.6A0.2,0.2 0 0 0 7.2,12.6A0.2,0.2 0 0 0 6.8,12.6zM7.6,12.6A0.2,0.2 0 0 0 8,12.6A0.2,0.2 0 0 0 7.6,12.6zM9.2,12.6A0.2,0.2 0 0 0 9.6,12.6A0.2,0.2 0 0 0 9.2,12.6zM9.6,12.6A0.2,0.2 0 0 0 10,12.6A0.2,0.2 0 0 0 9.6,12.6zM10.4,12.6A0.2,0.2 0 0 0 10.8,12.6A0.2,0.2 0 0 0 10.4,12.6zM10.8,12.6A0.2,0.2 0 0 0 11.2,12.6A0.2,0.2 0 0 0 10.8,12.6zM11.2,12.6A0.2,0.2 0 0 0 11.6,12.6A0.2,0.2 0 0 0 11.2,12.6zM12.8,12.6A0.2,0.2 0 0 0 13.2,12.6A0.2,0.2 0 0 0 12.8,12.6zM13.2,12.6A0.2,0.2 0 0 0 13.6,12.6A0.2,0.2 0 0 0 13.2,12.6zM14.4,12.6A0.2,0.2 0 0 0 14.8,12.6A0.2,0.2 0 0 0 14.4,12.6zM0,12.8H0.4V13.2H0zM0.8,12.8H1.2V13.2H0.8zM1.2,12.8H1.6V13.2H1.2zM1.6,12.8H2V13.2H1.6zM2.4,12.8H2.8V13.2H2.4zM4,13A0.2,0.2 0 0 0 4.4,13A0.2,0.2 0 0 0 4,13zM4.8,13A0.2,0.2 0 0 0 5.2,13A0.2,0.2 0 0 0 4.8,13zM7.2,13A0.2,0.2 0 0 0 7.6,13A0.2,0.2 0 0 0 7.2,13zM10,13A0.2,0.2 0 0 0 10.4,13A0.2,0.2 0 0 0 10,13zM10.4,13A0.2,0.2 0 0 0 10.8,13A0.2,0.2 0 0 0 10.4,13zM10.8,13A0.2,0.2 0 0 0 11.2,13A0.2,0.2 0 0 0 10.8,13zM11.2,13A0.2,0.2 0 0 0 11.6,13A0.2,0.2 0 0 0 11.2,13zM11.6,13A0.2,0.2 0 0 0 12,13A0.2,0.2 0 0 0 11.6,13zM12,13A0.2,0.2 0 0 0 12.4,13A0.2,0.2 0 0 0 12,13zM12.4,13A0.2,0.2 0 0 0 12.8,13A0.2,0.2 0 0 0 12.4,13zM12.8,13A0.2,0.2 0 0 0 13.2,13A0.2,0.2 0 0 0 12.8,13zM13.2,13A0.2,0.2 0 0 0 13.6,13A0.2,0.2 0 0 0 13.2,13zM14.4,13A0.2,0.2 0 0 0 14.8,13A0.2,0.2 0 0 0 14.4,13zM0,13.2H0.4V13.6H0zM0.8,13.2H1.2V13.6H0.8zM1.2,13.2H1.6V13.6H1.2zM1.6,13.2H2V13.6H1.6zM2.4,13.2H2.8V13.6H2.4zM3.6,13.4A0.2,0.2 0 0 0 4,13.4A0.2,0.2 0 0 0 3.6,13.4zM4,13.4A0.2,0.2 0 0 0 4.4,13.4A0.2,0.2 0 0 0 4,13.4zM4.8,13.4A0.2,0.2 0 0 0 5.2,13.4A0.2,0.2 0 0 0 4.8,13.4zM5.2,13.4A0.2,0.2 0 0 0 5.6,13.4A0.2,0.2 0 0 0 5.2,13.4zM5.6,13.4A0.2,0.2 0 0 0 6,13.4A0.2,0.2 0 0 0 5.6,13.4zM6,13.4A0.2,0.2 0 0 0 6.4,13.4A0.2,0.2 0 0 0 6,13.4zM6.4,13.4A0.2,0.2 0 0 0 6.8,13.4A0.2,0.2 0 0 0 6.4,13.4zM6.8,13.4A0.2,0.2 0 0 0 7.2,13.4A0.2,0.2 0 0 0 6.8,13.4zM7.6,13.4A0.2,0.2 0 0 0 8,13.4A0.2,0.2 0 0 0 7.6,13.4zM8.4,13.4A0.2,0.2 0 0 0 8.8,13.4A0.2,0.2 0 0 0 8.4,13.4zM8.8,13.4A0.2,0.2 0 0 0 9.2,13.4A0.2,0.2 0 0 0 8.8,13.4zM9.2,13.4A0.2,0.2 0 0 0 9.6,13.4A0.2,0.2 0 0 0 9.2,13.4zM9.6,13.4A0.2,0.2 0 0 0 10,13.4A0.2,0.2 0 0 0 9.6,13.4zM10.4,13.4A0.2,0.2 0 0 0 10.8,13.4A0.2,0.2 0 0 0 10.4,13.4zM11.2,13.4A0.2,0.2 0 0 0 11.6,13.4A0.2,0.2 0 0 0 11.2,13.4zM11.6,13.4A0.2,0.2 0 0 0 12,13.4A0.2,0.2 0 0 0 11.6,13.4zM12,13.4A0.2,0.2 0 0 0 12.4,13.4A0.2,0.2 0 0 0 12,13.4zM12.4,13.4A0.2,0.2 0 0 0 12.8,13.4A0.2,0.2 0 0 0 12.4,13.4zM12.8,13.4A0.2,0.2 0 0 0 13.2,13.4A0.2,0.2 0 0 0 12.8,13.4zM0,13.6H0.4V14H0zM0.8,13.6H1.2V14H0.8zM1.2,13.6H1.6V14H1.2zM1.6,13.6H2V14H1.6zM2.4,13.6H2.8V14H2.4zM5.2,13.8A0.2,0.2 0 0 0 5.6,13.8A0.2,0.2 0 0 0 5.2,13.8zM6,13.8A0.2,0.2 0 0 0 6.4,13.8A0.2,0.2 0 0 0 6,13.8zM7.6,13.8A0.2,0.2 0 0 0 8,13.8A0.2,0.2 0 0 0 7.6,13.8zM8.4,13.8A0.2,0.2 0 0 0 8.8,13.8A0.2,0.2 0 0 0 8.4,13.8zM10,13.8A0.2,0.2 0 0 0 10.4,13.8A0.2,0.2 0 0 0 10,13.8zM10.4,13.8A0.2,0.2 0 0 0 10.8,13.8A0.2,0.2 0 0 0 10.4,13.8zM10.8,13.8A0.2,0.2 0 0 0 11.2,13.8A0.2,0.2 0 0 0 10.8,13.8zM11.6,13.8A0.2,0.2 0 0 0 12,13.8A0.2,0.2 0 0 0 11.6,13.8zM12.4,13.8A0.2,0.2 0 0 0 12.8,13.8A0.2,0.2 0 0 0 12.4,13.8zM14.4,13.8A0.2,0.2 0 0 0 14.8,13.8A0.2,0.2 0 0 0 14.4,13.8zM0,14H0.4V14.4H0zM2.4,14H2.8V14.4H2.4zM4,14.2A0.2,0.2 0 0 0 4.4,14.2A0.2,0.2 0 0 0 4,14.2zM4.8,14.2A0.2,0.2 0 0 0 5.2,14.2A0.2,0.2 0 0 0 4.8,14.2zM6,14.2A0.2,0.2 0 0 0 6.4,14.2A0.2,0.2 0 0 0 6,14.2zM6.4,14.2A0.2,0.2 0 0 0 6.8,14.2A0.2,0.2 0 0 0 6.4,14.2zM6.8,14.2A0.2,0.2 0 0 0 7.2,14.2A0.2,0.2 0 0 0 6.8,14.2zM7.6,14.2A0.2,0.2 0 0 0 8,14.2A0.2,0.2 0 0 0 7.6,14.2zM8.4,14.2A0.2,0.2 0 0 0 8.8,14.2A0.2,0.2 0 0 0 8.4,14.2zM10.4,14.2A0.2,0.2 0 0 0 10.8,14.2A0.2,0.2 0 0 0 10.4,14.2zM10.8,14.2A0.2,0.2 0 0 0 11.2,14.2A0.2,0.2 0 0 0 10.8,14.2zM11.2,14.2A0.2,0.2 0 0 0 11.6,14.2A0.2,0.2 0 0 0 11.2,14.2zM11.6,14.2A0.2,0.2 0 0 0 12,14.2A0.2,0.2 0 0 0 11.6,14.2zM12,14.2A0.2,0.2 0 0 0 12.4,14.2A0.2,0.2 0 0 0 12,14.2zM12.8,14.2A0.2,0.2 0 0 0 13.2,14.2A0.2,0.2 0 0 0 12.8,14.2zM13.2,14.2A0.2,0.2 0 0 0 13.6,14.2A0.2,0.2 0 0 0 13.2,14.2zM14.4,14.2A0.2,0.2 0 0 0 14.8,14.2A0.2,0.2 0 0 0 14.4,14.2zM0,14.4H0.4V14.8H0zM0.4,14.4H0.8V14.8H0.4zM0.8,14.4H1.2V14.8H0.8zM1.2,14.4H1.6V14.8H1.2zM1.6,14.4H2V14.8H1.6zM2,14.4H2.4V14.8H2zM2.4,14.4H2.8V14.8H2.4zM4,14.6A0.2,0.2 0 0 0 4.4,14.6A0.2,0.2 0 0 0 4,14.6zM4.4,14.6A0.2,0.2 0 0 0 4.8,14.6A0.2,0.2 0 0 0 4.4,14.6zM5.2,14.6A0.2,0.2 0 0 0 5.6,14.6A0.2,0.2 0 0 0 5.2,14.6zM5.6,14.6A0.2,0.2 0 0 0 6,14.6A0.2,0.2 0 0 0 5.6,14.6zM6,14.6A0.2,0.2 0 0 0 6.4,14.6A0.2,0.2 0 0 0 6,14.6zM6.4,14.6A0.2,0.2 0 0 0 6.8,14.6A0.2,0.2 0 0 0 6.4,14.6zM7.2,14.6A0.2,0.2 0 0 0 7.6,14.6A0.2,0.2 0 0 0 7.2,14.6zM8,14.6A0.2,0.2 0 0 0 8.4,14.6A0.2,0.2 0 0 0 8,14.6zM8.8,14.6A0.2,0.2 0 0 0 9.2,14.6A0.2,0.2 0 0 0 8.8,14.6zM9.2,14.6A0.2,0.2 0 0 0 9.6,14.6A0.2,0.2 0 0 0 9.2,14.6zM10,14.6A0.2,0.2 0 0 0 10.4,14.6A0.2,0.2 0 0 0 10,14.6zM11.2,14.6A0.2,0.2 0 0 0 11.6,14.6A0.2,0.2 0 0 0 11.2,14.6zM11.6,14.6A0.2,0.2 0 0 0 12,14.6A0.2,0.2 0 0 0 11.6,14.6zM12,14.6A0.2,0.2 0 0 0 12.4,14.6A0.2,0.2 0 0 0 12,14.6zM12.8,14.6A0.2,0.2 0 0 0 13.2,14.6A0.2,0.2 0 0 0 12.8,14.6zM14.4,14.6A0.2,0.2 0 0 0 14.8,14.6A0.2,0.2 0 0 0 14.4,14.6z" id="qr-path" fill="#000000" fill-opacity="1" fill-rule="nonzero" stroke="none" /></svg>