<?xml version='1.0' encoding='UTF-8'?>
<svg width="19.6mm" height="19.6mm" version="1.1" viewBox="0 0 19.6 19.6" xmlns="http://www.w3.org/2000/svg"><rect fill="white" x="0" y="0" width="100%" height="100%" /><path d="M1.6,1.6H2V2H1.6zM2,1.6H2.4V2H2zM2.4,1.6H2.8V2H2.4zM2.8,1.6H3.2V2H2.8zM3.2,1.6H3.6V2H3.2zM3.6,1.6H4V2H3.6zM4,1.6H4.4V2H4zM4.8,1.8A0.2,0.2 0 0 0 5.2,1.8A0.2,0.2 0 0 0 4.8,1.8zM5.6,1.8A0.2,0.2 0 0 0 6,1.8A0.2,0.2 0 0 0 5.6,1.8zM6.4,1.8A0.2,0.2 0 0 0 6.8,1.8A0.2,0.2 0 0 0 6.4,1.8zM6.8,1.8A0.2,0.2 0 0 0 7.2,1.8A0.2,0.2 0 0 0 6.8,1.8zM7.6,1.8A0.2,0.2 0 0 0 8,1.8A0.2,0.2 0 0 0 7.6,1.8zM8,1.8A0.2,0.2 0 0 0 8.4,1.8A0.2,0.2 0 0 0 8,1.8zM8.4,1.8A0.2,0.2 0 0 0 8.8,1.8A0.2,0.2 0 0 0 8.4,1.8zM8.8,1.8A0.2,0.2 0 0 0 9.2,1.8A0.2,0.2 0 0 0 8.8,1.8zM9.2,1.8A0.2,0.2 0 0 0 9.6,1.8A0.2,0.2 0 0 0 9.2,1.8zM9.6,1.8A0.2,0.2 0 0 0 10,1.8A0.2,0.2 0 0 0 9.6,1.8zM10,1.8A0.2,0.2 0 0 0 10.4,1.8A0.2,0.2 0 0 0 10,1.8zM10.4,1.8A0.2,0.2 0 0 0 10.8,1.8A0.2,0.2 0 0 0 10.4,1.8zM11.6,1.8A0.2,0.2 0 0 0 12,1.8A0.2,0.2 0 0 0 11.6,1.8zM12,1.8A0.2,0.2 0 0 0 12.4,1.8A0.2,0.2 0 0 0 12,1.8zM12.4,1.8A0.2,0.2 0 0 0 12.8,1.8A0.2,0.2 0 0 0 12.4,1.8zM14.4,1.8A0.2,0.2 0 0 0 14.8,1.8A0.2,0.2 0 0 0 14.4,1.8zM15.2,1.6H15.6V2H15.2zM15.6,1.6H16V2H15.6zM16,1.6H16.4V2H16zM16.4,1.6H16.8V2H16.4zM16.8,1.6H17.2V2H16.8zM17.2,1.6H17.6V2H17.2zM17.6,1.6H18V2H17.6zM1.6,2H2V2.4H1.6zM4,2H4.4V2.4H4zM5.2,2.2A0.2,0.2 0 0 0 5.6,2.2A0.2,0.2 0 0 0 5.2,2.2zM6.4,2.2A0.2,0.2 0 0 0 6.8,2.2A0.2,0.2 0 0 0 6.4,2.2zM7.2,2.2A0.2,0.2 0 0 0 7.6,2.2A0.2,0.2 0 0 0 7.2,2.2zM8.4,2.2A0.2,0.2 0 0 0 8.8,2.2A0.2,0.2 0 0 0 8.4,2.2zM9.2,2.2A0.2,0.2 0 0 0 9.6,2.2A0.2,0.2 0 0 0 9.2,2.2zM10,2.2A0.2,0.2 0 0 0 10.4,2.2A0.2,0.2 0 0 0 10,2.2zM10.4,2.2A0.2,0.2 0 0 0 10.8,2.2A0.2,0.2 0 0 0 10.4,2.2zM10.8,2.2A0.2,0.2 0 0 0 11.2,2.2A0.2,0.2 0 0 0 10.8,2.2zM12.8,2.2A0.2,0.2 0 0 0 13.2,2.2A0.2,0.2 0 0 0 12.8,2.2zM13.2,2.2A0.2,0.2 0 0 0 13.6,2.2A0.2,0.2 0 0 0 13.2,2.2zM14.4,2.2A0.2,0.2 0 0 0 14.8,2.2A0.2,0.2 0 0 0 14.4,2.2zM15.2,2H15.6V2.4H15.2zM17.6,2H18V2.4H17.6zM1.6,2.4H2V2.8H1.6zM2.4,2.4H2.8V2.8H2.4zM2.8,2.4H3.2V2.8H2.8zM3.2,2.4H3.6V2.8H3.2zM4,2.4H4.4V2.8H4zM4.8,2.6A0.2,0.2 0 0 0 5.2,2.6A0.2,0.2 0 0 0 4.8,2.6zM5.6,2.6A0.2,0.2 0 0 0 6,2.6A0.2,0.2 0 0 0 5.6,2.6zM6,2.6A0.2,0.2 0 0 0 6.4,2.6A0.2,0.2 0 0 0 6,2.6zM6.4,2.6A0.2,0.2 0 0 0 6.8,2.6A0.2,0.2 0 0 0 6.4,2.6zM8,2.6A0.2,0.2 0 0 0 8.4,2.6A0.2,0.2 0 0 0 8,2.6zM8.4,2.6A0.2,0.2 0 0 0 8.8,2.6A0.2,0.2 0 0 0 8.4,2.6zM8.8,2.6A0.2,0.2 0 0 0 9.2,2.6A0.2,0.2 0 0 0 8.8,2.6zM9.6,2.6A0.2,0.2 0 0 0 10,2.6A0.2,0.2 0 0 0 9.6,2.6zM10,2.6A0.2,0.2 0 0 0 10.4,2.6A0.2,0.2 0 0 0 10,2.6zM10.4,2.6A0.2,0.2 0 0 0 10.8,2.6A0.2,0.2 0 0 0 10.4,2.6zM10.8,2.6A0.2,0.2 0 0 0 11.2,2.6A0.2,0.2 0 0 0 10.8,2.6zM11.2,2.6A0.2,0.2 0 0 0 11.6,2.6A0.2,0.2 0 0 0 11.2,2.6zM12,2.6A0.2,0.2 0 0 0 12.4,2.6A0.2,0.2 0 0 0 12,2.6zM12.4,2.6A0.2,0.2 0 0 0 12.8,2.6A0.2,0.2 0 0 0 12.4,2.6zM12.8,2.6A0.2,0.2 0 0 0 13.2,2.6A0.2,0.2 0 0 0 12.8,2.6zM13.2,2.6A0.2,0.2 0 0 0 13.6,2.6A0.2,0.2 0 0 0 13.2,2.6zM13.6,2.6A0.2,0.2 0 0 0 14,2.6A0.2,0.2 0 0 0 13.6,2.6zM14,2.6A0.2,0.2 0 0 0 14.4,2.6A0.2,0.2 0 0 0 14,2.6zM15.2,2.4H15.6V2.8H15.2zM16,2.4H16.4V2.8H16zM16.4,2.4H16.8V2.8H16.4zM16.8,2.4H17.2V2.8H16.8zM17.6,2.4H18V2.8H17.6zM1.6,2.8H2V3.2H1.6zM2.4,2.8H2.8V3.2H2.4zM2.8,2.8H3.2V3.2H2.8zM3.2,2.8H3.6V3.2H3.2zM4,2.8H4.4V3.2H4zM5.6,3A0.2,0.2 0 0 0 6,3A0.2,0.2 0 0 0 5.6,3zM6,3A0.2,0.2 0 0 0 6.4,3A0.2,0.2 0 0 0 6,3zM6.4,3A0.2,0.2 0 0 0 6.8,3A0.2,0.2 0 0 0 6.4,3zM7.2,3A0.2,0.2 0 0 0 7.6,3A0.2,0.2 0 0 0 7.2,3zM7.6,3A0.2,0.2 0 0 0 8,3A0.2,0.2 0 0 0 7.6,3zM8,3A0.2,0.2 0 0 0 8.4,3A0.2,0.2 0 0 0 8,3zM8.8,3A0.2,0.2 0 0 0 9.2,3A0.2,0.2 0 0 0 8.8,3zM9.6,3A0.2,0.2 0 0 0 10,3A0.2,0.2 0 0 0 9.6,3zM10.4,3A0.2,0.2 0 0 0 10.8,3A0.2,0.2 0 0 0 10.4,3zM10.8,3A0.2,0.2 0 0 0 11.2,3A0.2,0.2 0 0 0 10.8,3zM11.2,3A0.2,0.2 0 0 0 11.6,3A0.2,0.2 0 0 0 11.2,3zM12,3A0.2,0.2 0 0 0 12.4,3A0.2,0.2 0 0 0 12,3zM12.8,3A0.2,0.2 0 0 0 13.2,3A0.2,0.2 0 0 0 12.8,3zM14.4,3A0.2,0.2 0 0 0 14.8,3A0.2,0.2 0 0 0 14.4,3zM15.2,2.8H15.6V3.2H15.2zM16,2.8H16.4V3.2H16zM16.4,2.8H16.8V3.2H16.4zM16.8,2.8H17.2V3.2H16.8zM17.6,2.8H18V3.2H17.6zM1.6,3.2H2V3.6H1.6zM2.4,3.2H2.8V3.6H2.4zM2.8,3.2H3.2V3.6H2.8zM3.2,3.2H3.6V3.6H3.2zM4,3.2H4.4V3.6H4zM4.8,3.4A0.2,0.2 0 0 0 5.2,3.4A0.2,0.2 0 0 0 4.8,3.4zM5.6,3.4A0.2,0.2 0 0 0 6,3.4A0.2,0.2 0 0 0 5.6,3.4zM6,3.4A0.2,0.2 0 0 0 6.4,3.4A0.2,0.2 0 0 0 6,3.4zM6.8,3.4A0.2,0.2 0 0 0 7.2,3.4A0.2,0.2 0 0 0 6.8,3.4zM8.4,3.4A0.2,0.2 0 0 0 8.8,3.4A0.2,0.2 0 0 0 8.4,3.4zM8.8,3.4A0.2,0.2 0 0 0 9.2,3.4A0.2,0.2 0 0 0 8.8,3.4zM9.2,3.4A0.2,0.2 0 0 0 9.6,3.4A0.2,0.2 0 0 0 9.2,3.4zM10,3.4A0.2,0.2 0 0 0 10.4,3.4A0.2,0.2 0 0 0 10,3.4zM10.4,3.4A0.2,0.2 0 0 0 10.8,3.4A0.2,0.2 0 0 0 10.4,3.4zM12,3.4A0.2,0.2 0 0 0 12.4,3.4A0.2,0.2 0 0 0 12,3.4zM12.8,3.4A0.2,0.2 0 0 0 13.2,3.4A0.2,0.2 0 0 0 12.8,3.4zM13.6,3.4A0.2,0.2 0 0 0 14,3.4A0.2,0.2 0 0 0 13.6,3.4zM14,3.4A0.2,0.2 0 0 0 14.4,3.4A0.2,0.2 0 0 0 14,3.4zM14.4,3.4A0.2,0.2 0 0 0 14.8,3.4A0.2,0.2 0 0 0 14.4,3.4zM15.2,3.2H15.6V3.6H15.2zM16,3.2H16.4V3.6H16zM16.4,3.2H16.8V3.6H16.4zM16.8,3.2H17.2V3.6H16.8zM17.6,3.2H18V3.6H17.6zM1.6,3.6H2V4H1.6zM4,3.6H4.4V4H4zM5.2,3.8A0.2,0.2 0 0 0 5.6,3.8A0.2,0.2 0 0 0 5.2,3.8zM6,3.8A0.2,0.2 0 0 0 6.4,3.8A0.2,0.2 0 0 0 6,3.8zM6.4,3.8A0.2,0.2 0 0 0 6.8,3.8A0.2,0.2 0 0 0 6.4,3.8zM7.2,3.8A0.2,0.2 0 0 0 7.6,3.8A0.2,0.2 0 0 0 7.2,3.8zM7.6,3.8A0.2,0.2 0 0 0 8,3.8A0.2,0.2 0 0 0 7.6,3.8zM9.6,3.8A0.2,0.2 0 0 0 10,3.8A0.2,0.2 0 0 0 9.6,3.8zM10,3.8A0.2,0.2 0 0 0 10.4,3.8A0.2,0.2 0 0 0 10,3.8zM10.4,3.8A0.2,0.2 0 0 0 10.8,3.8A0.2,0.2 0 0 0 10.4,3.8zM10.8,3.8A0.2,0.2 0 0 0 11.2,3.8A0.2,0.2 0 0 0 10.8,3.8zM11.6,3.8A0.2,0.2 0 0 0 12,3.8A0.2,0.2 0 0 0 11.6,3.8zM13.2,3.8A0.2,0.2 0 0 0 13.6,3.8A0.2,0.2 0 0 0 13.2,3.8zM14.4,3.8A0.2,0.2 0 0 0 14.8,3.8A0.2,0.2 0 0 0 14.4,3.8zM15.2,3.6H15.6V4H15.2zM17.6,3.6H18V4H17.6zM1.6,4H2V4.4H1.6zM2,4H2.4V4.4H2zM2.4,4H2.8V4.4H2.4zM2.8,4H3.2V4.4H2.8zM3.2,4H3.6V4.4H3.2zM3.6,4H4V4.4H3.6zM4,4H4.4V4.4H4zM4.8,4.2A0.2,0.2 0 0 0 5.2,4.2A0.2,0.2 0 0 0 4.8,4.2zM5.6,4.2A0.2,0.2 0 0 0 6,4.2A0.2,0.2 0 0 0 5.6,4.2zM6.4,4.2A0.2,0.2 0 0 0 6.8,4.2A0.2,0.2 0 0 0 6.4,4.2zM7.2,4.2A0.2,0.2 0 0 0 7.6,4.2A0.2,0.2 0 0 0 7.2,4.2zM8,4.2A0.2,0.2 0 0 0 8.4,4.2A0.2,0.2 0 0 0 8,4.2zM8.8,4.2A0.2,0.2 0 0 0 9.2,4.2A0.2,0.2 0 0 0 8.8,4.2zM9.6,4.2A0.2,0.2 0 0 0 10,4.2A0.2,0.2 0 0 0 9.6,4.2zM10.4,4.2A0.2,0.2 0 0 0 10.8,4.2A0.2,0.2 0 0 0 10.4,4.2zM11.2,4.2A0.2,0.2 0 0 0 11.6,4.2A0.2,0.2 0 0 0 11.2,4.2zM12,4.2A0.2,0.2 0 0 0 12.4,4.2A0.2,0.2 0 0 0 12,4.2zM12.8,4.2A0.2,0.2 0 0 0 13.2,4.2A0.2,0.2 0 0 0 12.8,4.2zM13.6,4.2A0.2,0.2 0 0 0 14,4.2A0.2,0.2 0 0 0 13.6,4.2zM14.4,4.2A0.2,0.2 0 0 0 14.8,4.2A0.2,0.2 0 0 0 14.4,4.2zM15.2,4H15.6V4.4H15.2zM15.6,4H16V4.4H15.6zM16,4H16.4V4.4H16zM16.4,4H16.8V4.4H16.4zM16.8,4H17.2V4.4H16.8zM17.2,4H17.6V4.4H17.2zM17.6,4H18V4.4H17.6zM4.8,4.6A0.2,0.2 0 0 0 5.2,4.6A0.2,0.2 0 0 0 4.8,4.6zM5.2,4.6A0.2,0.2 0 0 0 5.6,4.6A0.2,0.2 0 0 0 5.2,4.6zM5.6,4.6A0.2,0.2 0 0 0 6,4.6A0.2,0.2 0 0 0 5.6,4.6zM6.8,4.6A0.2,0.2 0 0 0 7.2,4.6A0.2,0.2 0 0 0 6.8,4.6zM7.6,4.6A0.2,0.2 0 0 0 8,4.6A0.2,0.2 0 0 0 7.6,4.6zM8,4.6A0.2,0.2 0 0 0 8.4,4.6A0.2,0.2 0 0 0 8,4.6zM8.4,4.6A0.2,0.2 0 0 0 8.8,4.6A0.2,0.2 0 0 0 8.4,4.6zM9.2,4.6A0.2,0.2 0 0 0 9.6,4.6A0.2,0.2 0 0 0 9.2,4.6zM9.6,4.6A0.2,0.2 0 0 0 10,4.6A0.2,0.2 0 0 0 9.6,4.6zM10,4.6A0.2,0.2 0 0 0 10.4,4.6A0.2,0.2 0 0 0 10,4.6zM10.4,4.6A0.2,0.2 0 0 0 10.8,4.6A0.2,0.2 0 0 0 10.4,4.6zM10.8,4.6A0.2,0.2 0 0 0 11.2,4.6A0.2,0.2 0 0 0 10.8,4.6zM11.6,4.6A0.2,0.2 0 0 0 12,4.6A0.2,0.2 0 0 0 11.6,4.6zM12.4,4.6A0.2,0.2 0 0 0 12.8,4.6A0.2,0.2 0 0 0 12.4,4.6zM3.6,5A0.2,0.2 0 0 0 4,5A0.2,0.2 0 0 0 3.6,5zM4,5A0.2,0.2 0 0 0 4.4,5A0.2,0.2 0 0 0 4,5zM5.2,5A0.2,0.2 0 0 0 5.6,5A0.2,0.2 0 0 0 5.2,5zM5.6,5A0.2,0.2 0 0 0 6,5A0.2,0.2 0 0 0 5.6,5zM6,5A0.2,0.2 0 0 0 6.4,5A0.2,0.2 0 0 0 6,5zM6.8,5A0.2,0.2 0 0 0 7.2,5A0.2,0.2 0 0 0 6.8,5zM8,5A0.2,0.2 0 0 0 8.4,5A0.2,0.2 0 0 0 8,5zM8.4,5A0.2,0.2 0 0 0 8.8,5A0.2,0.2 0 0 0 8.4,5zM10.8,5A0.2,0.2 0 0 0 11.2,5A0.2,0.2 0 0 0 10.8,5zM11.2,5A0.2,0.2 0 0 0 11.6,5A0.2,0.2 0 0 0 11.2,5zM11.6,5A0.2,0.2 0 0 0 12,5A0.2,0.2 0 0 0 11.6,5zM12.8,5A0.2,0.2 0 0 0 13.2,5A0.2,0.2 0 0 0 12.8,5zM15.2,5A0.2,0.2 0 0 0 15.6,5A0.2,0.2 0 0 0 15.2,5zM16,5A0.2,0.2 0 0 0 16.4,5A0.2,0.2 0 0 0 16,5zM16.8,5A0.2,0.2 0 0 0 17.2,5A0.2,0.2 0 0 0 16.8,5zM17.6,5A0.2,0.2 0 0 0 18,5A0.2,0.2 0 0 0 17.6,5zM1.6,5.4A0.2,0.2 0 0 0 2,5.4A0.2,0.2 0 0 0 1.6,5.4zM2.8,5.4A0.2,0.2 0 0 0 3.2,5.4A0.2,0.2 0 0 0 2.8,5.4zM3.6,5.4A0.2,0.2 0 0 0 4,5.4A0.2,0.2 0 0 0 3.6,5.4zM4.4,5.4A0.2,0.2 0 0 0 4.8,5.4A0.2,0.2 0 0 0 4.4,5.4zM6.4,5.4A0.2,0.2 0 0 0 6.8,5.4A0.2,0.2 0 0 0 6.4,5.4zM6.8,5.4A0.2,0.2 0 0 0 7.2,5.4A0.2,0.2 0 0 0 6.8,5.4zM7.6,5.4A0.2,0.2 0 0 0 8,5.4A0.2,0.2 0 0 0 7.6,5.4zM8.4,5.4A0.2,0.2 0 0 0 8.8,5.4A0.2,0.2 0 0 0 8.4,5.4zM8.8,5.4A0.2,0.2 0 0 0 9.2,5.4A0.2,0.2 0 0 0 8.8,5.4zM9.2,5.4A0.2,0.2 0 0 0 9.6,5.4A0.2,0.2 0 0 0 9.2,5.4zM9.6,5.4A0.2,0.2 0 0 0 10,5.4A0.2,0.2 0 0 0 9.6,5.4zM10,5.4A0.2,0.2 0 0 0 10.4,5.4A0.2,0.2 0 0 0 10,5.4zM10.4,5.4A0.2,0.2 0 0 0 10.8,5.4A0.2,0.2 0 0 0 10.4,5.4zM11.2,5.4A0.2,0.2 0 0 0 11.6,5.4A0.2,0.2 0 0 0 11.2,5.4zM12,5.4A0.2,0.2 0 0 0 12.4,5.4A0.2,0.2 0 0 0 12,5.4zM14,5.4A0.2,0.2 0 0 0 14.4,5.4A0.2,0.2 0 0 0 14,5.4zM14.8,5.4A0.2,0.2 0 0 0 15.2,5.4A0.2,0.2 0 0 0 14.8,5.4zM15.2,5.4A0.2,0.2 0 0 0 15.6,5.4A0.2,0.2 0 0 0 15.2,5.4zM15.6,5.4A0.2,0.2 0 0 0 16,5.4A0.2,0.2 0 0 0 15.6,5.4zM16,5.4A0.2,0.2 0 0 0 16.4,5.4A0.2,0.2 0 0 0 16,5.4zM16.4,5.4A0.2,0.2 0 0 0 16.8,5.4A0.2,0.2 0 0 0 16.4,5.4zM16.8,5.4A0.2,0.2 0 0 0 17.2,5.4A0.2,0.2 0 0 0 16.8,5.4zM17.6,5.4A0.2,0.2 0 0 0 18,5.4A0.2,0.2 0 0 0 17.6,5.4zM1.6,5.8A0.2,0.2 0 0 0 2,5.8A0.2,0.2 0 0 0 1.6,5.8zM2,5.8A0.2,0.2 0 0 0 2.4,5.8A0.2,0.2 0 0 0 2,5.8zM3.2,5.8A0.2,0.2 0 0 0 3.6,5.8A0.2,0.2 0 0 0 3.2,5.8zM3.6,5.8A0.2,0.2 0 0 0 4,5.8A0.2,0.2 0 0 0 3.6,5.8zM4,5.8A0.2,0.2 0 0 0 4.4,5.8A0.2,0.2 0 0 0 4,5.8zM4.4,5.8A0.2,0.2 0 0 0 4.8,5.8A0.2,0.2 0 0 0 4.4,5.8zM4.8,5.8A0.2,0.2 0 0 0 5.2,5.8A0.2,0.2 0 0 0 4.8,5.8zM5.2,5.8A0.2,0.2 0 0 0 5.6,5.8A0.2,0.2 0 0 0 5.2,5.8zM6,5.8A0.2,0.2 0 0 0 6.4,5.8A0.2,0.2 0 0 0 6,5.8zM6.8,5.8A0.2,0.2 0 0 0 7.2,5.8A0.2,0.2 0 0 0 6.8,5.8zM8,5.8A0.2,0.2 0 0 0 8.4,5.8A0.2,0.2 0 0 0 8,5.8zM8.4,5.8A0.2,0.2 0 0 0 8.8,5.8A0.2,0.2 0 0 0 8.4,5.8zM8.8,5.8A0.2,0.2 0 0 0 9.2,5.8A0.2,0.2 0 0 0 8.8,5.8zM9.2,5.8A0.2,0.2 0 0 0 9.6,5.8A0.2,0.2 0 0 0 9.2,5.8zM10,5.8A0.2,0.2 0 0 0 10.4,5.8A0.2,0.2 0 0 0 10,5.8zM10.8,5.8A0.2,0.2 0 0 0 11.2,5.8A0.2,0.2 0 0 0 10.8,5.8zM11.2,5.8A0.2,0.2 0 0 0 11.6,5.8A0.2,0.2 0 0 0 11.2,5.8zM11.6,5.8A0.2,0.2 0 0 0 12,5.8A0.2,0.2 0 0 0 11.6,5.8zM12,5.8A0.2,0.2 0 0 0 12.4,5.8A0.2,0.2 0 0 0 12,5.8zM12.4,5.8A0.2,0.2 0 0 0 12.8,5.8A0.2,0.2 0 0 0 12.4,5.8zM15.2,5.8A0.2,0.2 0 0 0 15.6,5.8A0.2,0.2 0 0 0 15.2,5.8zM16.4,5.8A0.2,0.2 0 0 0 16.8,5.8A0.2,0.2 0 0 0 16.4,5.8zM2,6.2A0.2,0.2 0 0 0 2.4,6.2A0.2,0.2 0 0 0 2,6.2zM2.4,6.2A0.2,0.2 0 0 0 2.8,6.2A0.2,0.2 0 0 0 2.4,6.2zM4.4,6.2A0.2,0.2 0 0 0 4.8,6.2A0.2,0.2 0 0 0 4.4,6.2zM5.6,6.2A0.2,0.2 0 0 0 6,6.2A0.2,0.2 0 0 0 5.6,6.2zM6,6.2A0.2,0.2 0 0 0 6.4,6.2A0.2,0.2 0 0 0 6,6.2zM6.4,6.2A0.2,0.2 0 0 0 6.8,6.2A0.2,0.2 0 0 0 6.4,6.2zM6.8,6.2A0.2,0.2 0 0 0 7.2,6.2A0.2,0.2 0 0 0 6.8,6.2zM7.2,6.2A0.2,0.2 0 0 0 7.6,6.2A0.2,0.2 0 0 0 7.2,6.2zM7.6,6.2A0.2,0.2 0 0 0 8,6.2A0.2,0.2 0 0 0 7.6,6.2zM8.8,6.2A0.2,0.2 0 0 0 9.2,6.2A0.2,0.2 0 0 0 8.8,6.2zM9.2,6.2A0.2,0.2 0 0 0 9.6,6.2A0.2,0.2 0 0 0 9.2,6.2zM10.4,6.2A0.2,0.2 0 0 0 10.8,6.2A0.2,0.2 0 0 0 10.4,6.2zM10.8,6.2A0.2,0.2 0 0 0 11.2,6.2A0.2,0.2 0 0 0 10.8,6.2zM12,6.2A0.2,0.2 0 0 0 12.4,6.2A0.2,0.2 0 0 0 12,6.2zM12.4,6.2A0.2,0.2 0 0 0 12.8,6.2A0.2,0.2 0 0 0 12.4,6.2zM14,6.2A0.2,0.2 0 0 0 14.4,6.2A0.2,0.2 0 0 0 14,6.2zM14.4,6.2A0.2,0.2 0 0 0 14.8,6.2A0.2,0.2 0 0 0 14.4,6.2zM15.2,6.2A0.2,0.2 0 0 0 15.6,6.2A0.2,0.2 0 0 0 15.2,6.2zM16.4,6.2A0.2,0.2 0 0 0 16.8,6.2A0.2,0.2 0 0 0 16.4,6.2zM2.8,6.6A0.2,0.2 0 0 0 3.2,6.6A0.2,0.2 0 0 0 2.8,6.6zM3.2,6.6A0.2,0.2 0 0 0 3.6,6.6A0.2,0.2 0 0 0 3.2,6.6zM4,6.6A0.2,0.2 0 0 0 4.4,6.6A0.2,0.2 0 0 0 4,6.6zM4.4,6.6A0.2,0.2 0 0 0 4.8,6.6A0.2,0.2 0 0 0 4.4,6.6zM4.8,6.6A0.2,0.2 0 0 0 5.2,6.6A0.2,0.2 0 0 0 4.8,6.6zM5.6,6.6A0.2,0.2 0 0 0 6,6.6A0.2,0.2 0 0 0 5.6,6.6zM6,6.6A0.2,0.2 0 0 0 6.4,6.6A0.2,0.2 0 0 0 6,6.6zM6.4,6.6A0.2,0.2 0 0 0 6.8,6.6A0.2,0.2 0 0 0 6.4,6.6zM7.2,6.6A0.2,0.2 0 0 0 7.6,6.6A0.2,0.2 0 0 0 7.2,6.6zM8,6.6A0.2,0.2 0 0 0 8.4,6.6A0.2,0.2 0 0 0 8,6.6zM8.4,6.6A0.2,0.2 0 0 0 8.8,6.6A0.2,0.2 0 0 0 8.4,6.6zM8.8,6.6A0.2,0.2 0 0 0 9.2,6.6A0.2,0.2 0 0 0 8.8,6.6zM9.6,6.6A0.2,0.2 0 0 0 10,6.6A0.2,0.2 0 0 0 9.6,6.6zM10.4,6.6A0.2,0.2 0 0 0 10.8,6.6A0.2,0.2 0 0 0 10.4,6.6zM12,6.6A0.2,0.2 0 0 0 12.4,6.6A0.2,0.2 0 0 0 12,6.6zM12.4,6.6A0.2,0.2 0 0 0 12.8,6.6A0.2,0.2 0 0 0 12.4,6.6zM12.8,6.6A0.2,0.2 0 0 0 13.2,6.6A0.2,0.2 0 0 0 12.8,6.6zM14,6.6A0.2,0.2 0 0 0 14.4,6.6A0.2,0.2 0 0 0 14,6.6zM15.6,6.6A0.2,0.2 0 0 0 16,6.6A0.2,0.2 0 0 0 15.6,6.6zM16,6.6A0.2,0.2 0 0 0 16.4,6.6A0.2,0.2 0 0 0 16,6.6zM16.8,6.6A0.2,0.2 0 0 0 17.2,6.6A0.2,0.2 0 0 0 16.8,6.6zM17.2,6.6A0.2,0.2 0 0 0 17.6,6.6A0.2,0.2 0 0 0 17.2,6.6zM3.2,7A0.2,0.2 0 0 0 3.6,7A0.2,0.2 0 0 0 3.2,7zM4.4,7A0.2,0.2 0 0 0 4.8,7A0.2,0.2 0 0 0 4.4,7zM4.8,7A0.2,0.2 0 0 0 5.2,7A0.2,0.2 0 0 0 4.8,7zM6.8,7A0.2,0.2 0 0 0 7.2,7A0.2,0.2 0 0 0 6.8,7zM7.2,7A0.2,0.2 0 0 0 7.6,7A0.2,0.2 0 0 0 7.2,7zM7.6,7A0.2,0.2 0 0 0 8,7A0.2,0.2 0 0 0 7.6,7zM8,7A0.2,0.2 0 0 0 8.4,7A0.2,0.2 0 0 0 8,7zM8.4,7A0.2,0.2 0 0 0 8.8,7A0.2,0.2 0 0 0 8.4,7zM8.8,7A0.2,0.2 0 0 0 9.2,7A0.2,0.2 0 0 0 8.8,7zM9.6,7A0.2,0.2 0 0 0 10,7A0.2,0.2 0 0 0 9.6,7zM12.8,7A0.2,0.2 0 0 0 13.2,7A0.2,0.2 0 0 0 12.8,7zM13.2,7A0.2,0.2 0 0 0 13.6,7A0.2,0.2 0 0 0 13.2,7zM15.6,7A0.2,0.2 0 0 0 16,7A0.2,0.2 0 0 0 15.6,7zM16,7A0.2,0.2 0 0 0 16.4,7A0.2,0.2 0 0 0 16,7zM16.4,7A0.2,0.2 0 0 0 16.8,7A0.2,0.2 0 0 0 16.4,7zM17.2,7A0.2,0.2 0 0 0 17.6,7A0.2,0.2 0 0 0 17.2,7zM17.6,7A0.2,0.2 0 0 0 18,7A0.2,0.2 0 0 0 17.6,7zM1.6,7.4A0.2,0.2 0 0 0 2,7.4A0.2,0.2 0 0 0 1.6,7.4zM2.4,7.4A0.2,0.2 0 0 0 2.8,7.4A0.2,0.2 0 0 0 2.4,7.4zM2.8,7.4A0.2,0.2 0 0 0 3.2,7.4A0.2,0.2 0 0 0 2.8,7.4zM3.2,7.4A0.2,0.2 0 0 0 3.6,7.4A0.2,0.2 0 0 0 3.2,7.4zM3.6,7.4A0.2,0.2 0 0 0 4,7.4A0.2,0.2 0 0 0 3.6,7.4zM4,7.4A0.2,0.2 0 0 0 4.4,7.4A0.2,0.2 0 0 0 4,7.4zM4.4,7.4A0.2,0.2 0 0 0 4.8,7.4A0.2,0.2 0 0 0 4.4,7.4zM7.2,7.4A0.2,0.2 0 0 0 7.6,7.4A0.2,0.2 0 0 0 7.2,7.4zM8.4,7.4A0.2,0.2 0 0 0 8.8,7.4A0.2,0.2 0 0 0 8.4,7.4zM9.2,7.4A0.2,0.2 0 0 0 9.6,7.4A0.2,0.2 0 0 0 9.2,7.4zM10.8,7.4A0.2,0.2 0 0 0 11.2,7.4A0.2,0.2 0 0 0 10.8,7.4zM11.6,7.4A0.2,0.2 0 0 0 12,7.4A0.2,0.2 0 0 0 11.6,7.4zM12,7.4A0.2,0.2 0 0 0 12.4,7.4A0.2,0.2 0 0 0 12,7.4zM13.6,7.4A0.2,0.2 0 0 0 14,7.4A0.2,0.2 0 0 0 13.6,7.4zM14.4,7.4A0.2,0.2 0 0 0 14.8,7.4A0.2,0.2 0 0 0 14.4,7.4zM15.2,7.4A0.2,0.2 0 0 0 15.6,7.4A0.2,0.2 0 0 0 15.2,7.4zM16.4,7.4A0.2,0.2 0 0 0 16.8,7.4A0.2,0.2 0 0 0 16.4,7.4zM16.8,7.4A0.2,0.2 0 0 0 17.2,7.4A0.2,0.2 0 0 0 16.8,7.4zM17.2,7.4A0.2,0.2 0 0 0 17.6,7.4A0.2,0.2 0 0 0 17.2,7.4zM1.6,7.8A0.2,0.2 0 0 0 2,7.8A0.2,0.2 0 0 0 1.6,7.8zM2,7.8A0.2,0.2 0 0 0 2.4,7.8A0.2,0.2 0 0 0 2,7.8zM2.8,7.8A0.2,0.2 0 0 0 3.2,7.8A0.2,0.2 0 0 0 2.8,7.8zM3.2,7.8A0.2,0.2 0 0 0 3.6,7.8A0.2,0.2 0 0 0 3.2,7.8zM4.4,7.8A0.2,0.2 0 0 0 4.8,7.8A0.2,0.2 0 0 0 4.4,7.8zM6,7.8A0.2,0.2 0 0 0 6.4,7.8A0.2,0.2 0 0 0 6,7.8zM6.8,7.8A0.2,0.2 0 0 0 7.2,7.8A0.2,0.2 0 0 0 6.8,7.8zM7.6,7.8A0.2,0.2 0 0 0 8,7.8A0.2,0.2 0 0 0 7.6,7.8zM8,7.8A0.2,0.2 0 0 0 8.4,7.8A0.2,0.2 0 0 0 8,7.8zM8.4,7.8A0.2,0.2 0 0 0 8.8,7.8A0.2,0.2 0 0 0 8.4,7.8zM9.2,7.8A0.2,0.2 0 0 0 9.6,7.8A0.2,0.2 0 0 0 9.2,7.8zM10,7.8A0.2,0.2 0 0 0 10.4,7.8A0.2,0.2 0 0 0 10,7.8zM10.4,7.8A0.2,0.2 0 0 0 10.8,7.8A0.2,0.2 0 0 0 10.4,7.8zM10.8,7.8A0.2,0.2 0 0 0 11.2,7.8A0.2,0.2 0 0 0 10.8,7.8zM11.2,7.8A0.2,0.2 0 0 0 11.6,7.8A0.2,0.2 0 0 0 11.2,7.8zM11.6,7.8A0.2,0.2 0 0 0 12,7.8A0.2,0.2 0 0 0 11.6,7.8zM12,7.8A0.2,0.2 0 0 0 12.4,7.8A0.2,0.2 0 0 0 12,7.8zM12.4,7.8A0.2,0.2 0 0 0 12.8,7.8A0.2,0.2 0 0 0 12.4,7.8zM13.6,7.8A0.2,0.2 0 0 0 14,7.8A0.2,0.2 0 0 0 13.6,7.8zM14.4,7.8A0.2,0.2 0 0 0 14.8,7.8A0.2,0.2 0 0 0 14.4,7.8zM14.8,7.8A0.2,0.2 0 0 0 15.2,7.8A0.2,0.2 0 0 0 14.8,7.8zM15.2,7.8A0.2,0.2 0 0 0 15.6,7.8A0.2,0.2 0 0 0 15.2,7.8zM15.6,7.8A0.2,0.2 0 0 0 16,7.8A0.2,0.2 0 0 0 15.6,7.8zM16,7.8A0.2,0.2 0 0 0 16.4,7.8A0.2,0.2 0 0 0 16,7.8zM16.8,7.8A0.2,0.2 0 0 0 17.2,7.8A0.2,0.2 0 0 0 16.8,7.8zM17.6,7.8A0.2,0.2 0 0 0 18,7.8A0.2,0.2 0 0 0 17.6,7.8zM1.6,8.2A0.2,0.2 0 0 0 2,8.2A0.2,0.2 0 0 0 1.6,8.2zM2,8.2A0.2,0.2 0 0 0 2.4,8.2A0.2,0.2 0 0 0 2,8.2zM2.4,8.2A0.2,0.2 0 0 0 2.8,8.2A0.2,0.2 0 0 0 2.4,8.2zM4,8.2A0.2,0.2 0 0 0 4.4,8.2A0.2,0.2 0 0 0 4,8.2zM4.4,8.2A0.2,0.2 0 0 0 4.8,8.2A0.2,0.2 0 0 0 4.4,8.2zM4.8,8.2A0.2,0.2 0 0 0 5.2,8.2A0.2,0.2 0 0 0 4.8,8.2zM5.2,8.2A0.2,0.2 0 0 0 5.6,8.2A0.2,0.2 0 0 0 5.2,8.2zM6,8.2A0.2,0.2 0 0 0 6.4,8.2A0.2,0.2 0 0 0 6,8.2zM6.4,8.2A0.2,0.2 0 0 0 6.8,8.2A0.2,0.2 0 0 0 6.4,8.2zM7.6,8.2A0.2,0.2 0 0 0 8,8.2A0.2,0.2 0 0 0 7.6,8.2zM8,8.2A0.2,0.2 0 0 0 8.4,8.2A0.2,0.2 0 0 0 8,8.2zM10,8.2A0.2,0.2 0 0 0 10.4,8.2A0.2,0.2 0 0 0 10,8.2zM10.4,8.2A0.2,0.2 0 0 0 10.8,8.2A0.2,0.2 0 0 0 10.4,8.2zM10.8,8.2A0.2,0.2 0 0 0 11.2,8.2A0.2,0.2 0 0 0 10.8,8.2zM11.2,8.2A0.2,0.2 0 0 0 11.6,8.2A0.2,0.2 0 0 0 11.2,8.2zM12.8,8.2A0.2,0.2 0 0 0 13.2,8.2A0.2,0.2 0 0 0 12.8,8.2zM13.2,8.2A0.2,0.2 0 0 0 13.6,8.2A0.2,0.2 0 0 0 13.2,8.2zM16.4,8.2A0.2,0.2 0 0 0 16.8,8.2A0.2,0.2 0 0 0 16.4,8.2zM16.8,8.2A0.2,0.2 0 0 0 17.2,8.2A0.2,0.2 0 0 0 16.8,8.2zM17.2,8.2A0.2,0.2 0 0 0 17.6,8.2A0.2,0.2 0 0 0 17.2,8.2zM17.6,8.2A0.2,0.2 0 0 0 18,8.2A0.2,0.2 0 0 0 17.6,8.2zM2.8,8.6A0.2,0.2 0 0 0 3.2,8.6A0.2,0.2 0 0 0 2.8,8.6zM3.6,8.6A0.2,0.2 0 0 0 4,8.6A0.2,0.2 0 0 0 3.6,8.6zM4.4,8.6A0.2,0.2 0 0 0 4.8,8.6A0.2,0.2 0 0 0 4.4,8.6zM5.2,8.6A0.2,0.2 0 0 0 5.6,8.6A0.2,0.2 0 0 0 5.2,8.6zM6.8,8.6A0.2,0.2 0 0 0 7.2,8.6A0.2,0.2 0 0 0 6.8,8.6zM7.2,8.6A0.2,0.2 0 0 0 7.6,8.6A0.2,0.2 0 0 0 7.2,8.6zM8.4,8.6A0.2,0.2 0 0 0 8.8,8.6A0.2,0.2 0 0 0 8.4,8.6zM9.2,8.6A0.2,0.2 0 0 0 9.6,8.6A0.2,0.2 0 0 0 9.2,8.6zM9.6,8.6A0.2,0.2 0 0 0 10,8.6A0.2,0.2 0 0 0 9.6,8.6zM10,8.6A0.2,0.2 0 0 0 10.4,8.6A0.2,0.2 0 0 0 10,8.6zM11.6,8.6A0.2,0.2 0 0 0 12,8.6A0.2,0.2 0 0 0 11.6,8.6zM12.4,8.6A0.2,0.2 0 0 0 12.8,8.6A0.2,0.2 0 0 0 12.4,8.6zM13.6,8.6A0.2,0.2 0 0 0 14,8.6A0.2,0.2 0 0 0 13.6,8.6zM14.4,8.6A0.2,0.2 0 0 0 14.8,8.6A0.2,0.2 0 0 0 14.4,8.6zM15.2,8.6A0.2,0.2 0 0 0 15.6,8.6A0.2,0.2 0 0 0 15.2,8.6zM15.6,8.6A0.2,0.2 0 0 0 16,8.6A0.2,0.2 0 0 0 15.6,8.6zM16,8.6A0.2,0.2 0 0 0 16.4,8.6A0.2,0.2 0 0 0 16,8.6zM16.8,8.6A0.2,0.2 0 0 0 17.2,8.6A0.2,0.2 0 0 0 16.8,8.6zM1.6,9A0.2,0.2 0 0 0 2,9A0.2,0.2 0 0 0 1.6,9zM2.4,9A0.2,0.2 0 0 0 2.8,9A0.2,0.2 0 0 0 2.4,9zM4,9A0.2,0.2 0 0 0 4.4,9A0.2,0.2 0 0 0 4,9zM4.4,9A0.2,0.2 0 0 0 4.8,9A0.2,0.2 0 0 0 4.4,9zM5.2,9A0.2,0.2 0 0 0 5.6,9A0.2,0.2 0 0 0 5.2,9zM6,9A0.2,0.2 0 0 0 6.4,9A0.2,0.2 0 0 0 6,9zM6.4,9A0.2,0.2 0 0 0 6.8,9A0.2,0.2 0 0 0 6.4,9zM10,9A0.2,0.2 0 0 0 10.4,9A0.2,0.2 0 0 0 10,9zM10.4,9A0.2,0.2 0 0 0 10.8,9A0.2,0.2 0 0 0 10.4,9zM11.6,9A0.2,0.2 0 0 0 12,9A0.2,0.2 0 0 0 11.6,9zM12.4,9A0.2,0.2 0 0 0 12.8,9A0.2,0.2 0 0 0 12.4,9zM13.2,9A0.2,0.2 0 0 0 13.6,9A0.2,0.2 0 0 0 13.2,9zM13.6,9A0.2,0.2 0 0 0 14,9A0.2,0.2 0 0 0 13.6,9zM14,9A0.2,0.2 0 0 0 14.4,9A0.2,0.2 0 0 0 14,9zM15.2,9A0.2,0.2 0 0 0 15.6,9A0.2,0.2 0 0 0 15.2,9zM16,9A0.2,0.2 0 0 0 16.4,9A0.2,0.2 0 0 0 16,9zM16.8,9A0.2,0.2 0 0 0 17.2,9A0.2,0.2 0 0 0 16.8,9zM17.6,9A0.2,0.2 0 0 0 18,9A0.2,0.2 0 0 0 17.6,9zM1.6,9.4A0.2,0.2 0 0 0 2,9.4A0.2,0.2 0 0 0 1.6,9.4zM2.4,9.4A0.2,0.2 0 0 0 2.8,9.4A0.2,0.2 0 0 0 2.4,9.4zM4.4,9.4A0.2,0.2 0 0 0 4.8,9.4A0.2,0.2 0 0 0 4.4,9.4zM5.2,9.4A0.2,0.2 0 0 0 5.6,9.4A0.2,0.2 0 0 0 5.2,9.4zM6,9.4A0.2,0.2 0 0 0 6.4,9.4A0.2,0.2 0 0 0 6,9.4zM6.4,9.4A0.2,0.2 0 0 0 6.8,9.4A0.2,0.2 0 0 0 6.4,9.4zM6.8,9.4A0.2,0.2 0 0 0 7.2,9.4A0.2,0.2 0 0 0 6.8,9.4zM7.2,9.4A0.2,0.2 0 0 0 7.6,9.4A0.2,0.2 0 0 0 7.2,9.4zM8.4,9.4A0.2,0.2 0 0 0 8.8,9.4A0.2,0.2 0 0 0 8.4,9.4zM8.8,9.4A0.2,0.2 0 0 0 9.2,9.4A0.2,0.2 0 0 0 8.8,9.4zM9.6,9.4A0.2,0.2 0 0 0 10,9.4A0.2,0.2 0 0 0 9.6,9.4zM10,9.4A0.2,0.2 0 0 0 10.4,9.4A0.2,0.2 0 0 0 10,9.4zM10.8,9.4A0.2,0.2 0 0 0 11.2,9.4A0.2,0.2 0 0 0 10.8,9.4zM11.2,9.4A0.2,0.2 0 0 0 11.6,9.4A0.2,0.2 0 0 0 11.2,9.4zM14,9.4A0.2,0.2 0 0 0 14.4,9.4A0.2,0.2 0 0 0 14,9.4zM15.2,9.4A0.2,0.2 0 0 0 15.6,9.4A0.2,0.2 0 0 0 15.2,9.4zM15.6,9.4A0.2,0.2 0 0 0 16,9.4A0.2,0.2 0 0 0 15.6,9.4zM16,9.4A0.2,0.2 0 0 0 16.4,9.4A0.2,0.2 0 0 0 16,9.4zM16.4,9.4A0.2,0.2 0 0 0 16.8,9.4A0.2,0.2 0 0 0 16.4,9.4zM17.6,9.4A0.2,0.2 0 0 0 18,9.4A0.2,0.2 0 0 0 17.6,9.4zM1.6,9.8A0.2,0.2 0 0 0 2,9.8A0.2,0.2 0 0 0 1.6,9.8zM2.4,9.8A0.2,0.2 0 0 0 2.8,9.8A0.2,0.2 0 0 0 2.4,9.8zM2.8,9.8A0.2,0.2 0 0 0 3.2,9.8A0.2,0.2 0 0 0 2.8,9.8zM4,9.8A0.2,0.2 0 0 0 4.4,9.8A0.2,0.2 0 0 0 4,9.8zM4.4,9.8A0.2,0.2 0 0 0 4.8,9.8A0.2,0.2 0 0 0 4.4,9.8zM5.6,9.8A0.2,0.2 0 0 0 6,9.8A0.2,0.2 0 0 0 5.6,9.8zM6,9.8A0.2,0.2 0 0 0 6.4,9.8A0.2,0.2 0 0 0 6,9.8zM6.4,9.8A0.2,0.2 0 0 0 6.8,9.8A0.2,0.2 0 0 0 6.4,9.8zM6.8,9.8A0.2,0.2 0 0 0 7.2,9.8A0.2,0.2 0 0 0 6.8,9.8zM7.2,9.8A0.2,0.2 0 0 0 7.6,9.8A0.2,0.2 0 0 0 7.2,9.8zM8,9.8A0.2,0.2 0 0 0 8.4,9.8A0.2,0.2 0 0 0 8,9.8zM8.8,9.8A0.2,0.2 0 0 0 9.2,9.8A0.2,0.2 0 0 0 8.8,9.8zM9.2,9.8A0.2,0.2 0 0 0 9.6,9.8A0.2,0.2 0 0 0 9.2,9.8zM10.4,9.8A0.2,0.2 0 0 0 10.8,9.8A0.2,0.2 0 0 0 10.4,9.8zM10.8,9.8A0.2,0.2 0 0 0 11.2,9.8A0.2,0.2 0 0 0 10.8,9.8zM12,9.8A0.2,0.2 0 0 0 12.4,9.8A0.2,0.2 0 0 0 12,9.8zM12.8,9.8A0.2,0.2 0 0 0 13.2,9.8A0.2,0.2 0 0 0 12.8,9.8zM13.6,9.8A0.2,0.2 0 0 0 14,9.8A0.2,0.2 0 0 0 13.6,9.8zM14.4,9.8A0.2,0.2 0 0 0 14.8,9.8A0.2,0.2 0 0 0 14.4,9.8zM16,9.8A0.2,0.2 0 0 0 16.4,9.8A0.2,0.2 0 0 0 16,9.8zM16.8,9.8A0.2,0.2 0 0 0 17.2,9.8A0.2,0.2 0 0 0 16.8,9.8zM17.2,9.8A0.2,0.2 0 0 0 17.6,9.8A0.2,0.2 0 0 0 17.2,9.8zM1.6,10.2A0.2,0.2 0 0 0 2,10.2A0.2,0.2 0 0 0 1.6,10.2zM3.6,10.2A0.2,0.2 0 0 0 4,10.2A0.2,0.2 0 0 0 3.6,10.2zM5.2,10.2A0.2,0.2 0 0 0 5.6,10.2A0.2,0.2 0 0 0 5.2,10.2zM5.6,10.2A0.2,0.2 0 0 0 6,10.2A0.2,0.2 0 0 0 5.6,10.2zM6.4,10.2A0.2,0.2 0 0 0 6.8,10.2A0.2,0.2 0 0 0 6.4,10.2zM6.8,10.2A0.2,0.2 0 0 0 7.2,10.2A0.2,0.2 0 0 0 6.8,10.2zM8,10.2A0.2,0.2 0 0 0 8.4,10.2A0.2,0.2 0 0 0 8,10.2zM8.4,10.2A0.2,0.2 0 0 0 8.8,10.2A0.2,0.2 0 0 0 8.4,10.2zM9.6,10.2A0.2,0.2 0 0 0 10,10.2A0.2,0.2 0 0 0 9.6,10.2zM10.8,10.2A0.2,0.2 0 0 0 11.2,10.2A0.2,0.2 0 0 0 10.8,10.2zM11.6,10.2A0.2,0.2 0 0 0 12,10.2A0.2,0.2 0 0 0 11.6,10.2zM16,10.2A0.2,0.2 0 0 0 16.4,10.2A0.2,0.2 0 0 0 16,10.2zM16.8,10.2A0.2,0.2 0 0 0 17.2,10.2A0.2,0.2 0 0 0 16.8,10.2zM17.6,10.2A0.2,0.2 0 0 0 18,10.2A0.2,0.2 0 0 0 17.6,10.2zM2.8,10.6A0.2,0.2 0 0 0 3.2,10.6A0.2,0.2 0 0 0 2.8,10.6zM3.6,10.6A0.2,0.2 0 0 0 4,10.6A0.2,0.2 0 0 0 3.6,10.6zM4,10.6A0.2,0.2 0 0 0 4.4,10.6A0.2,0.2 0 0 0 4,10.6zM4.8,10.6A0.2,0.2 0 0 0 5.2,10.6A0.2,0.2 0 0 0 4.8,10.6zM5.2,10.6A0.2,0.2 0 0 0 5.6,10.6A0.2,0.2 0 0 0 5.2,10.6zM8,10.6A0.2,0.2 0 0 0 8.4,10.6A0.2,0.2 0 0 0 8,10.6zM8.4,10.6A0.2,0.2 0 0 0 8.8,10.6A0.2,0.2 0 0 0 8.4,10.6zM8.8,10.6A0.2,0.2 0 0 0 9.2,10.6A0.2,0.2 0 0 0 8.8,10.6zM9.2,10.6A0.2,0.2 0 0 0 9.6,10.6A0.2,0.2 0 0 0 9.2,10.6zM10.4,10.6A0.2,0.2 0 0 0 10.8,10.6A0.2,0.2 0 0 0 10.4,10.6zM10.8,10.6A0.2,0.2 0 0 0 11.2,10.6A0.2,0.2 0 0 0 10.8,10.6zM12,10.6A0.2,0.2 0 0 0 12.4,10.6A0.2,0.2 0 0 0 12,10.6zM12.4,10.6A0.2,0.2 0 0 0 12.8,10.6A0.2,0.2 0 0 0 12.4,10.6zM14.4,10.6A0.2,0.2 0 0 0 14.8,10.6A0.2,0.2 0 0 0 14.4,10.6zM14.8,10.6A0.2,0.2 0 0 0 15.2,10.6A0.2,0.2 0 0 0 14.8,10.6zM15.6,10.6A0.2,0.2 0 0 0 16,10.6A0.2,0.2 0 0 0 15.6,10.6zM16.4,10.6A0.2,0.2 0 0 0 16.8,10.6A0.2,0.2 0 0 0 16.4,10.6zM16.8,10.6A0.2,0.2 0 0 0 17.2,10.6A0.2,0.2 0 0 0 16.8,10.6zM1.6,11A0.2,0.2 0 0 0 2,11A0.2,0.2 0 0 0 1.6,11zM2,11A0.2,0.2 0 0 0 2.4,11A0.2,0.2 0 0 0 2,11zM2.8,11A0.2,0.2 0 0 0 3.2,11A0.2,0.2 0 0 0 2.8,11zM3.6,11A0.2,0.2 0 0 0 4,11A0.2,0.2 0 0 0 3.6,11zM4.4,11A0.2,0.2 0 0 0 4.8,11A0.2,0.2 0 0 0 4.4,11zM4.8,11A0.2,0.2 0 0 0 5.2,11A0.2,0.2 0 0 0 4.8,11zM6.8,11A0.2,0.2 0 0 0 7.2,11A0.2,0.2 0 0 0 6.8,11zM7.2,11A0.2,0.2 0 0 0 7.6,11A0.2,0.2 0 0 0 7.2,11zM8,11A0.2,0.2 0 0 0 8.4,11A0.2,0.2 0 0 0 8,11zM8.8,11A0.2,0.2 0 0 0 9.2,11A0.2,0.2 0 0 0 8.8,11zM12,11A0.2,0.2 0 0 0 12.4,11A0.2,0.2 0 0 0 12,11zM12.4,11A0.2,0.2 0 0 0 12.8,11A0.2,0.2 0 0 0 12.4,11zM12.8,11A0.2,0.2 0 0 0 13.2,11A0.2,0.2 0 0 0 12.8,11zM13.6,11A0.2,0.2 0 0 0 14,11A0.2,0.2 0 0 0 13.6,11zM14.8,11A0.2,0.2 0 0 0 15.2,11A0.2,0.2 0 0 0 14.8,11zM15.2,11A0.2,0.2 0 0 0 15.6,11A0.2,0.2 0 0 0 15.2,11zM15.6,11A0.2,0.2 0 0 0 16,11A0.2,0.2 0 0 0 15.6,11zM16.4,11A0.2,0.2 0 0 0 16.8,11A0.2,0.2 0 0 0 16.4,11zM2,11.4A0.2,0.2 0 0 0 2.4,11.4A0.2,0.2 0 0 0 2,11.4zM2.8,11.4A0.2,0.2 0 0 0 3.2,11.4A0.2,0.2 0 0 0 2.8,11.4zM3.6,11.4A0.2,0.2 0 0 0 4,11.4A0.2,0.2 0 0 0 3.6,11.4zM4,11.4A0.2,0.2 0 0 0 4.4,11.4A0.2,0.2 0 0 0 4,11.4zM4.4,11.4A0.2,0.2 0 0 0 4.8,11.4A0.2,0.2 0 0 0 4.4,11.4zM5.2,11.4A0.2,0.2 0 0 0 5.6,11.4A0.2,0.2 0 0 0 5.2,11.4zM6,11.4A0.2,0.2 0 0 0 6.4,11.4A0.2,0.2 0 0 0 6,11.4zM6.4,11.4A0.2,0.2 0 0 0 6.8,11.4A0.2,0.2 0 0 0 6.4,11.4zM7.2,11.4A0.2,0.2 0 0 0 7.6,11.4A0.2,0.2 0 0 0 7.2,11.4zM8.4,11.4A0.2,0.2 0 0 0 8.8,11.4A0.2,0.2 0 0 0 8.4,11.4zM9.6,11.4A0.2,0.2 0 0 0 10,11.4A0.2,0.2 0 0 0 9.6,11.4zM10.8,11.4A0.2,0.2 0 0 0 11.2,11.4A0.2,0.2 0 0 0 10.8,11.4zM11.2,11.4A0.2,0.2 0 0 0 11.6,11.4A0.2,0.2 0 0 0 11.2,11.4zM11.6,11.4A0.2,0.2 0 0 0 12,11.4A0.2,0.2 0 0 0 11.6,11.4zM12.4,11.4A0.2,0.2 0 0 0 12.8,11.4A0.2,0.2 0 0 0 12.4,11.4zM12.8,11.4A0.2,0.2 0 0 0 13.2,11.4A0.2,0.2 0 0 0 12.8,11.4zM14,11.4A0.2,0.2 0 0 0 14.4,11.4A0.2,0.2 0 0 0 14,11.4zM14.4,11.4A0.2,0.2 0 0 0 14.8,11.4A0.2,0.2 0 0 0 14.4,11.4zM15.2,11.4A0.2,0.2 0 0 0 15.6,11.4A0.2,0.2 0 0 0 15.2,11.4zM15.6,11.4A0.2,0.2 0 0 0 16,11.4A0.2,0.2 0 0 0 15.6,11.4zM16.4,11.4A0.2,0.2 0 0 0 16.8,11.4A0.2,0.2 0 0 0 16.4,11.4zM16.8,11.4A0.2,0.2 0 0 0 17.2,11.4A0.2,0.2 0 0 0 16.8,11.4zM17.2,11.4A0.2,0.2 0 0 0 17.6,11.4A0.2,0.2 0 0 0 17.2,11.4zM17.6,11.4A0.2,0.2 0 0 0 18,11.4A0.2,0.2 0 0 0 17.6,11.4zM1.6,11.8A0.2,0.2 0 0 0 2,11.8A0.2,0.2 0 0 0 1.6,11.8zM2.8,11.8A0.2,0.2 0 0 0 3.2,11.8A0.2,0.2 0 0 0 2.8,11.8zM3.2,11.8A0.2,0.2 0 0 0 3.6,11.8A0.2,0.2 0 0 0 3.2,11.8zM4.4,11.8A0.2,0.2 0 0 0 4.8,11.8A0.2,0.2 0 0 0 4.4,11.8zM4.8,11.8A0.2,0.2 0 0 0 5.2,11.8A0.2,0.2 0 0 0 4.8,11.8zM5.6,11.8A0.2,0.2 0 0 0 6,11.8A0.2,0.2 0 0 0 5.6,11.8zM6.8,11.8A0.2,0.2 0 0 0 7.2,11.8A0.2,0.2 0 0 0 6.8,11.8zM7.2,11.8A0.2,0.2 0 0 0 7.6,11.8A0.2,0.2 0 0 0 7.2,11.8zM7.6,11.8A0.2,0.2 0 0 0 8,11.8A0.2,0.2 0 0 0 7.6,11.8zM8.8,11.8A0.2,0.2 0 0 0 9.2,11.8A0.2,0.2 0 0 0 8.8,11.8zM10.8,11.8A0.2,0.2 0 0 0 11.2,11.8A0.2,0.2 0 0 0 10.8,11.8zM12.8,11.8A0.2,0.2 0 0 0 13.2,11.8A0.2,0.2 0 0 0 12.8,11.8zM14.4,11.8A0.2,0.2 0 0 0 14.8,11.8A0.2,0.2 0 0 0 14.4,11.8zM14.8,11.8A0.2,0.2 0 0 0 15.2,11.8A0.2,0.2 0 0 0 14.8,11.8zM15.6,11.8A0.2,0.2 0 0 0 16,11.8A0.2,0.2 0 0 0 15.6,11.8zM16,11.8A0.2,0.2 0 0 0 16.4,11.8A0.2,0.2 0 0 0 16,11.8zM17.2,11.8A0.2,0.2 0 0 0 17.6,11.8A0.2,0.2 0 0 0 17.2,11.8zM2,12.2A0.2,0.2 0 0 0 2.4,12.2A0.2,0.2 0 0 0 2,12.2zM3.6,12.2A0.2,0.2 0 0 0 4,12.2A0.2,0.2 0 0 0 3.6,12.2zM4,12.2A0.2,0.2 0 0 0 4.4,12.2A0.2,0.2 0 0 0 4,12.2zM4.4,12.2A0.2,0.2 0 0 0 4.8,12.2A0.2,0.2 0 0 0 4.4,12.2zM4.8,12.2A0.2,0.2 0 0 0 5.2,12.2A0.2,0.2 0 0 0 4.8,12.2zM5.2,12.2A0.2,0.2 0 0 0 5.6,12.2A0.2,0.2 0 0 0 5.2,12.2zM7.6,12.2A0.2,0.2 0 0 0 8,12.2A0.2,0.2 0 0 0 7.6,12.2zM8,12.2A0.2,0.2 0 0 0 8.4,12.2A0.2,0.2 0 0 0 8,12.2zM8.4,12.2A0.2,0.2 0 0 0 8.8,12.2A0.2,0.2 0 0 0 8.4,12.2zM9.2,12.2A0.2,0.2 0 0 0 9.6,12.2A0.2,0.2 0 0 0 9.2,12.2zM10,12.2A0.2,0.2 0 0 0 10.4,12.2A0.2,0.2 0 0 0 10,12.2zM11.2,12.2A0.2,0.2 0 0 0 11.6,12.2A0.2,0.2 0 0 0 11.2,12.2zM12,12.2A0.2,0.2 0 0 0 12.4,12.2A0.2,0.2 0 0 0 12,12.2zM12.4,12.2A0.2,0.2 0 0 0 12.8,12.2A0.2,0.2 0 0 0 12.4,12.2zM12.8,12.2A0.2,0.2 0 0 0 13.2,12.2A0.2,0.2 0 0 0 12.8,12.2zM13.2,12.2A0.2,0.2 0 0 0 13.6,12.2A0.2,0.2 0 0 0 13.2,12.2zM13.6,12.2A0.2,0.2 0 0 0 14,12.2A0.2,0.2 0 0 0 13.6,12.2zM14.8,12.2A0.2,0.2 0 0 0 15.2,12.2A0.2,0.2 0 0 0 14.8,12.2zM16.4,12.2A0.2,0.2 0 0 0 16.8,12.2A0.2,0.2 0 0 0 16.4,12.2zM1.6,12.6A0.2,0.2 0 0 0 2,12.6A0.2,0.2 0 0 0 1.6,12.6zM2.8,12.6A0.2,0.2 0 0 0 3.2,12.6A0.2,0.2 0 0 0 2.8,12.6zM3.2,12.6A0.2,0.2 0 0 0 3.6,12.6A0.2,0.2 0 0 0 3.2,12.6zM5.2,12.6A0.2,0.2 0 0 0 5.6,12.6A0.2,0.2 0 0 0 5.2,12.6zM7.6,12.6A0.2,0.2 0 0 0 8,12.6A0.2,0.2 0 0 0 7.6,12.6zM8,12.6A0.2,0.2 0 0 0 8.4,12.6A0.2,0.2 0 0 0 8,12.6zM9.6,12.6A0.2,0.2 0 0 0 10,12.6A0.2,0.2 0 0 0 9.6,12.6zM10,12.6A0.2,0.2 0 0 0 10.4,12.6A0.2,0.2 0 0 0 10,12.6zM10.4,12.6A0.2,0.2 0 0 0 10.8,12.6A0.2,0.2 0 0 0 10.4,12.6zM11.2,12.6A0.2,0.2 0 0 0 11.6,12.6A0.2,0.2 0 0 0 11.2,12.6zM12,12.6A0.2,0.2 0 0 0 12.4,12.6A0.2,0.2 0 0 0 12,12.6zM12.4,12.6A0.2,0.2 0 0 0 12.8,12.6A0.2,0.2 0 0 0 12.4,12.6zM12.8,12.6A0.2,0.2 0 0 0 13.2,12.6A0.2,0.2 0 0 0 12.8,12.6zM13.6,12.6A0.2,0.2 0 0 0 14,12.6A0.2,0.2 0 0 0 13.6,12.6zM14.8,12.6A0.2,0.2 0 0 0 15.2,12.6A0.2,0.2 0 0 0 14.8,12.6zM15.2,12.6A0.2,0.2 0 0 0 15.6,12.6A0.2,0.2 0 0 0 15.2,12.6zM16,12.6A0.2,0.2 0 0 0 16.4,12.6A0.2,0.2 0 0 0 16,12.6zM16.4,12.6A0.2,0.2 0 0 0 16.8,12.6A0.2,0.2 0 0 0 16.4,12.6zM16.8,12.6A0.2,0.2 0 0 0 17.2,12.6A0.2,0.2 0 0 0 16.8,12.6zM2,13A0.2,0.2 0 0 0 2.4,13A0.2,0.2 0 0 0 2,13zM2.4,13A0.2,0.2 0 0 0 2.8,13A0.2,0.2 0 0 0 2.4,13zM2.8,13A0.2,0.2 0 0 0 3.2,13A0.2,0.2 0 0 0 2.8,13zM3.2,13A0.2,0.2 0 0 0 3.6,13A0.2,0.2 0 0 0 3.2,13zM3.6,13A0.2,0.2 0 0 0 4,13A0.2,0.2 0 0 0 3.6,13zM4,13A0.2,0.2 0 0 0 4.4,13A0.2,0.2 0 0 0 4,13zM4.4,13A0.2,0.2 0 0 0 4.8,13A0.2,0.2 0 0 0 4.4,13zM4.8,13A0.2,0.2 0 0 0 5.2,13A0.2,0.2 0 0 0 4.8,13zM5.2,13A0.2,0.2 0 0 0 5.6,13A0.2,0.2 0 0 0 5.2,13zM6,13A0.2,0.2 0 0 0 6.4,13A0.2,0.2 0 0 0 6,13zM7.6,13A0.2,0.2 0 0 0 8,13A0.2,0.2 0 0 0 7.6,13zM8.4,13A0.2,0.2 0 0 0 8.8,13A0.2,0.2 0 0 0 8.4,13zM8.8,13A0.2,0.2 0 0 0 9.2,13A0.2,0.2 0 0 0 8.8,13zM10.4,13A0.2,0.2 0 0 0 10.8,13A0.2,0.2 0 0 0 10.4,13zM10.8,13A0.2,0.2 0 0 0 11.2,13A0.2,0.2 0 0 0 10.8,13zM11.2,13A0.2,0.2 0 0 0 11.6,13A0.2,0.2 0 0 0 11.2,13zM12.8,13A0.2,0.2 0 0 0 13.2,13A0.2,0.2 0 0 0 12.8,13zM13.2,13A0.2,0.2 0 0 0 13.6,13A0.2,0.2 0 0 0 13.2,13zM13.6,13A0.2,0.2 0 0 0 14,13A0.2,0.2 0 0 0 13.6,13zM14.8,13A0.2,0.2 0 0 0 15.2,13A0.2,0.2 0 0 0 14.8,13zM15.6,13A0.2,0.2 0 0 0 16,13A0.2,0.2 0 0 0 15.6,13zM17.6,13A0.2,0.2 0 0 0 18,13A0.2,0.2 0 0 0 17.6,13zM1.6,13.4A0.2,0.2 0 0 0 2,13.4A0.2,0.2 0 0 0 1.6,13.4zM2.4,13.4A0.2,0.2 0 0 0 2.8,13.4A0.2,0.2 0 0 0 2.4,13.4zM3.2,13.4A0.2,0.2 0 0 0 3.6,13.4A0.2,0.2 0 0 0 3.2,13.4zM3.6,13.4A0.2,0.2 0 0 0 4,13.4A0.2,0.2 0 0 0 3.6,13.4zM5.2,13.4A0.2,0.2 0 0 0 5.6,13.4A0.2,0.2 0 0 0 5.2,13.4zM5.6,13.4A0.2,0.2 0 0 0 6,13.4A0.2,0.2 0 0 0 5.6,13.4zM6,13.4A0.2,0.2 0 0 0 6.4,13.4A0.2,0.2 0 0 0 6,13.4zM6.4,13.4A0.2,0.2 0 0 0 6.8,13.4A0.2,0.2 0 0 0 6.4,13.4zM6.8,13.4A0.2,0.2 0 0 0 7.2,13.4A0.2,0.2 0 0 0 6.8,13.4zM7.2,13.4A0.2,0.2 0 0 0 7.6,13.4A0.2,0.2 0 0 0 7.2,13.4zM7.6,13.4A0.2,0.2 0 0 0 8,13.4A0.2,0.2 0 0 0 7.6,13.4zM8,13.4A0.2,0.2 0 0 0 8.4,13.4A0.2,0.2 0 0 0 8,13.4zM10.4,13.4A0.2,0.2 0 0 0 10.8,13.4A0.2,0.2 0 0 0 10.4,13.4zM11.6,13.4A0.2,0.2 0 0 0 12,13.4A0.2,0.2 0 0 0 11.6,13.4zM12,13.4A0.2,0.2 0 0 0 12.4,13.4A0.2,0.2 0 0 0 12,13.4zM14.4,13.4A0.2,0.2 0 0 0 14.8,13.4A0.2,0.2 0 0 0 14.4,13.4zM14.8,13.4A0.2,0.2 0 0 0 15.2,13.4A0.2,0.2 0 0 0 14.8,13.4zM15.6,13.4A0.2,0.2 0 0 0 16,13.4A0.2,0.2 0 0 0 15.6,13.4zM16,13.4A0.2,0.2 0 0 0 16.4,13.4A0.2,0.2 0 0 0 16,13.4zM16.8,13.4A0.2,0.2 0 0 0 17.2,13.4A0.2,0.2 0 0 0 16.8,13.4zM17.2,13.4A0.2,0.2 0 0 0 17.6,13.4A0.2,0.2 0 0 0 17.2,13.4zM17.6,13.4A0.2,0.2 0 0 0 18,13.4A0.2,0.2 0 0 0 17.6,13.4zM1.6,13.8A0.2,0.2 0 0 0 2,13.8A0.2,0.2 0 0 0 1.6,13.8zM2,13.8A0.2,0.2 0 0 0 2.4,13.8A0.2,0.2 0 0 0 2,13.8zM2.4,13.8A0.2,0.2 0 0 0 2.8,13.8A0.2,0.2 0 0 0 2.4,13.8zM3.2,13.8A0.2,0.2 0 0 0 3.6,13.8A0.2,0.2 0 0 0 3.2,13.8zM4,13.8A0.2,0.2 0 0 0 4.4,13.8A0.2,0.2 0 0 0 4,13.8zM4.4,13.8A0.2,0.2 0 0 0 4.8,13.8A0.2,0.2 0 0 0 4.4,13.8zM4.8,13.8A0.2,0.2 0 0 0 5.2,13.8A0.2,0.2 0 0 0 4.8,13.8zM5.2,13.8A0.2,0.2 0 0 0 5.6,13.8A0.2,0.2 0 0 0 5.2,13.8zM5.6,13.8A0.2,0.2 0 0 0 6,13.8A0.2,0.2 0 0 0 5.6,13.8zM6,13.8A0.2,0.2 0 0 0 6.4,13.8A0.2,0.2 0 0 0 6,13.8zM6.4,13.8A0.2,0.2 0 0 0 6.8,13.8A0.2,0.2 0 0 0 6.4,13.8zM7.6,13.8A0.2,0.2 0 0 0 8,13.8A0.2,0.2 0 0 0 7.6,13.8zM8,13.8A0.2,0.2 0 0 0 8.4,13.8A0.2,0.2 0 0 0 8,13.8zM8.8,13.8A0.2,0.2 0 0 0 9.2,13.8A0.2,0.2 0 0 0 8.8,13.8zM9.2,13.8A0.2,0.2 0 0 0 9.6,13.8A0.2,0.2 0 0 0 9.2,13.8zM9.6,13.8A0.2,0.2 0 0 0 10,13.8A0.2,0.2 0 0 0 9.6,13.8zM11.2,13.8A0.2,0.2 0 0 0 11.6,13.8A0.2,0.2 0 0 0 11.2,13.8zM12.4,13.8A0.2,0.2 0 0 0 12.8,13.8A0.2,0.2 0 0 0 12.4,13.8zM13.2,13.8A0.2,0.2 0 0 0 13.6,13.8A0.2,0.2 0 0 0 13.2,13.8zM14.4,13.8A0.2,0.2 0 0 0 14.8,13.8A0.2,0.2 0 0 0 14.4,13.8zM15.2,13.8A0.2,0.2 0 0 0 15.6,13.8A0.2,0.2 0 0 0 15.2,13.8zM15.6,13.8A0.2,0.2 0 0 0 16,13.8A0.2,0.2 0 0 0 15.6,13.8zM16.8,13.8A0.2,0.2 0 0 0 17.2,13.8A0.2,0.2 0 0 0 16.8,13.8zM17.2,13.8A0.2,0.2 0 0 0 17.6,13.8A0.2,0.2 0 0 0 17.2,13.8zM17.6,13.8A0.2,0.2 0 0 0 18,13.8A0.2,0.2 0 0 0 17.6,13.8zM1.6,14.2A0.2,0.2 0 0 0 2,14.2A0.2,0.2 0 0 0 1.6,14.2zM2.4,14.2A0.2,0.2 0 0 0 2.8,14.2A0.2,0.2 0 0 0 2.4,14.2zM3.6,14.2A0.2,0.2 0 0 0 4,14.2A0.2,0.2 0 0 0 3.6,14.2zM4.4,14.2A0.2,0.2 0 0 0 4.8,14.2A0.2,0.2 0 0 0 4.4,14.2zM5.2,14.2A0.2,0.2 0 0 0 5.6,14.2A0.2,0.2 0 0 0 5.2,14.2zM6,14.2A0.2,0.2 0 0 0 6.4,14.2A0.2,0.2 0 0 0 6,14.2zM6.8,14.2A0.2,0.2 0 0 0 7.2,14.2A0.2,0.2 0 0 0 6.8,14.2zM7.2,14.2A0.2,0.2 0 0 0 7.6,14.2A0.2,0.2 0 0 0 7.2,14.2zM8,14.2A0.2,0.2 0 0 0 8.4,14.2A0.2,0.2 0 0 0 8,14.2zM10,14.2A0.2,0.2 0 0 0 10.4,14.2A0.2,0.2 0 0 0 10,14.2zM10.4,14.2A0.2,0.2 0 0 0 10.8,14.2A0.2,0.2 0 0 0 10.4,14.2zM14,14.2A0.2,0.2 0 0 0 14.4,14.2A0.2,0.2 0 0 0 14,14.2zM14.4,14.2A0.2,0.2 0 0 0 14.8,14.2A0.2,0.2 0 0 0 14.4,14.2zM15.2,14.2A0.2,0.2 0 0 0 15.6,14.2A0.2,0.2 0 0 0 15.2,14.2zM16,14.2A0.2,0.2 0 0 0 16.4,14.2A0.2,0.2 0 0 0 16,14.2zM16.4,14.2A0.2,0.2 0 0 0 16.8,14.2A0.2,0.2 0 0 0 16.4,14.2zM17.6,14.2A0.2,0.2 0 0 0 18,14.2A0.2,0.2 0 0 0 17.6,14.2zM1.6,14.6A0.2,0.2 0 0 0 2,14.6A0.2,0.2 0 0 0 1.6,14.6zM2.8,14.6A0.2,0.2 0 0 0 3.2,14.6A0.2,0.2 0 0 0 2.8,14.6zM3.2,14.6A0.2,0.2 0 0 0 3.6,14.6A0.2,0.2 0 0 0 3.2,14.6zM4,14.6A0.2,0.2 0 0 0 4.4,14.6A0.2,0.2 0 0 0 4,14.6zM4.4,14.6A0.2,0.2 0 0 0 4.8,14.6A0.2,0.2 0 0 0 4.4,14.6zM5.6,14.6A0.2,0.2 0 0 0 6,14.6A0.2,0.2 0 0 0 5.6,14.6zM7.2,14.6A0.2,0.2 0 0 0 7.6,14.6A0.2,0.2 0 0 0 7.2,14.6zM8.4,14.6A0.2,0.2 0 0 0 8.8,14.6A0.2,0.2 0 0 0 8.4,14.6zM10,14.6A0.2,0.2 0 0 0 10.4,14.6A0.2,0.2 0 0 0 10,14.6zM10.4,14.6A0.2,0.2 0 0 0 10.8,14.6A0.2,0.2 0 0 0 10.4,14.6zM10.8,14.6A0.2,0.2 0 0 0 11.2,14.6A0.2,0.2 0 0 0 10.8,14.6zM11.2,14.6A0.2,0.2 0 0 0 11.6,14.6A0.2,0.2 0 0 0 11.2,14.6zM12,14.6A0.2,0.2 0 0 0 12.4,14.6A0.2,0.2 0 0 0 12,14.6zM12.4,14.6A0.2,0.2 0 0 0 12.8,14.6A0.2,0.2 0 0 0 12.4,14.6zM12.8,14.6A0.2,0.2 0 0 0 13.2,14.6A0.2,0.2 0 0 0 12.8,14.6zM13.2,14.6A0.2,0.2 0 0 0 13.6,14.6A0.2,0.2 0 0 0 13.2,14.6zM14,14.6A0.2,0.2 0 0 0 14.4,14.6A0.2,0.2 0 0 0 14,14.6zM14.4,14.6A0.2,0.2 0 0 0 14.8,14.6A0.2,0.2 0 0 0 14.4,14.6zM14.8,14.6A0.2,0.2 0 0 0 15.2,14.6A0.2,0.2 0 0 0 14.8,14.6zM15.2,14.6A0.2,0.2 0 0 0 15.6,14.6A0.2,0.2 0 0 0 15.2,14.6zM15.6,14.6A0.2,0.2 0 0 0 16,14.6A0.2,0.2 0 0 0 15.6,14.6zM16,14.6A0.2,0.2 0 0 0 16.4,14.6A0.2,0.2 0 0 0 16,14.6zM16.8,14.6A0.2,0.2 0 0 0 17.2,14.6A0.2,0.2 0 0 0 16.8,14.6zM17.2,14.6A0.2,0.2 0 0 0 17.6,14.6A0.2,0.2 0 0 0 17.2,14.6zM17.6,14.6A0.2,0.2 0 0 0 18,14.6A0.2,0.2 0 0 0 17.6,14.6zM4.8,15A0.2,0.2 0 0 0 5.2,15A0.2,0.2 0 0 0 4.8,15zM6,15A0.2,0.2 0 0 0 6.4,15A0.2,0.2 0 0 0 6,15zM7.2,15A0.2,0.2 0 0 0 7.6,15A0.2,0.2 0 0 0 7.2,15zM9.2,15A0.2,0.2 0 0 0 9.6,15A0.2,0.2 0 0 0 9.2,15zM9.6,15A0.2,0.2 0 0 0 10,15A0.2,0.2 0 0 0 9.6,15zM10,15A0.2,0.2 0 0 0 10.4,15A0.2,0.2 0 0 0 10,15zM10.4,15A0.2,0.2 0 0 0 10.8,15A0.2,0.2 0 0 0 10.4,15zM11.2,15A0.2,0.2 0 0 0 11.6,15A0.2,0.2 0 0 0 11.2,15zM11.6,15A0.2,0.2 0 0 0 12,15A0.2,0.2 0 0 0 11.6,15zM12,15A0.2,0.2 0 0 0 12.4,15A0.2,0.2 0 0 0 12,15zM13.2,15A0.2,0.2 0 0 0 13.6,15A0.2,0.2 0 0 0 13.2,15zM14.4,15A0.2,0.2 0 0 0 14.8,15A0.2,0.2 0 0 0 14.4,15zM16,15A0.2,0.2 0 0 0 16.4,15A0.2,0.2 0 0 0 16,15zM17.2,15A0.2,0.2 0 0 0 17.6,15A0.2,0.2 0 0 0 17.2,15zM17.6,15A0.2,0.2 0 0 0 18,15A0.2,0.2 0 0 0 17.6,15zM1.6,15.2H2V15.6H1.6zM2,15.2H2.4V15.6H2zM2.4,15.2H2.8V15.6H2.4zM2.8,15.2H3.2V15.6H2.8zM3.2,15.2H3.6V15.6H3.2zM3.6,15.2H4V15.6H3.6zM4,15.2H4.4V15.6H4zM5.2,15.4A0.2,0.2 0 0 0 5.6,15.4A0.2,0.2 0 0 0 5.2,15.4zM5.6,15.4A0.2,0.2 0 0 0 6,15.4A0.2,0.2 0 0 0 5.6,15.4zM6.4,15.4A0.2,0.2 0 0 0 6.8,15.4A0.2,0.2 0 0 0 6.4,15.4zM6.8,15.4A0.2,0.2 0 0 0 7.2,15.4A0.2,0.2 0 0 0 6.8,15.4zM7.2,15.4A0.2,0.2 0 0 0 7.6,15.4A0.2,0.2 0 0 0 7.2,15.4zM8,15.4A0.2,0.2 0 0 0 8.4,15.4A0.2,0.2 0 0 0 8,15.4zM8.8,15.4A0.2,0.2 0 0 0 9.2,15.4A0.2,0.2 0 0 0 8.8,15.4zM9.2,15.4A0.2,0.2 0 0 0 9.6,15.4A0.2,0.2 0 0 0 9.2,15.4zM10,15.4A0.2,0.2 0 0 0 10.4,15.4A0.2,0.2 0 0 0 10,15.4zM11.2,15.4A0.2,0.2 0 0 0 11.6,15.4A0.2,0.2 0 0 0 11.2,15.4zM11.6,15.4A0.2,0.2 0 0 0 12,15.4A0.2,0.2 0 0 0 11.6,15.4zM12,15.4A0.2,0.2 0 0 0 12.4,15.4A0.2,0.2 0 0 0 12,15.4zM12.4,15.4A0.2,0.2 0 0 0 12.8,15.4A0.2,0.2 0 0 0 12.4,15.4zM12.8,15.4A0.2,0.2 0 0 0 13.2,15.4A0.2,0.2 0 0 0 12.8,15.4zM13.2,15.4A0.2,0.2 0 0 0 13.6,15.4A0.2,0.2 0 0 0 13.2,15.4zM14.4,15.4A0.2,0.2 0 0 0 14.8,15.4A0.2,0.2 0 0 0 14.4,15.4zM15.2,15.4A0.2,0.2 0 0 0 15.6,15.4A0.2,0.2 0 0 0 15.2,15.4zM16,15.4A0.2,0.2 0 0 0 16.4,15.4A0.2,0.2 0 0 0 16,15.4zM16.4,15.4A0.2,0.2 0 0 0 16.8,15.4A0.2,0.2 0 0 0 16.4,15.4zM1.6,15.6H2V16H1.6zM4,15.6H4.4V16H4zM4.8,15.8A0.2,0.2 0 0 0 5.2,15.8A0.2,0.2 0 0 0 4.8,15.8zM5.2,15.8A0.2,0.2 0 0 0 5.6,15.8A0.2,0.2 0 0 0 5.2,15.8zM6.4,15.8A0.2,0.2 0 0 0 6.8,15.8A0.2,0.2 0 0 0 6.4,15.8zM6.8,15.8A0.2,0.2 0 0 0 7.2,15.8A0.2,0.2 0 0 0 6.8,15.8zM7.6,15.8A0.2,0.2 0 0 0 8,15.8A0.2,0.2 0 0 0 7.6,15.8zM8,15.8A0.2,0.2 0 0 0 8.4,15.8A0.2,0.2 0 0 0 8,15.8zM8.4,15.8A0.2,0.2 0 0 0 8.8,15.8A0.2,0.2 0 0 0 8.4,15.8zM9.2,15.8A0.2,0.2 0 0 0 9.6,15.8A0.2,0.2 0 0 0 9.2,15.8zM9.6,15.8A0.2,0.2 0 0 0 10,15.8A0.2,0.2 0 0 0 9.6,15.8zM10,15.8A0.2,0.2 0 0 0 10.4,15.8A0.2,0.2 0 0 0 10,15.8zM10.4,15.8A0.2,0.2 0 0 0 10.8,15.8A0.2,0.2 0 0 0 10.4,15.8zM10.8,15.8A0.2,0.2 0 0 0 11.2,15.8A0.2,0.2 0 0 0 10.8,15.8zM11.2,15.8A0.2,0.2 0 0 0 11.6,15.8A0.2,0.2 0 0 0 11.2,15.8zM12,15.8A0.2,0.2 0 0 0 12.4,15.8A0.2,0.2 0 0 0 12,15.8zM13.2,15.8A0.2,0.2 0 0 0 13.6,15.8A0.2,0.2 0 0 0 13.2,15.8zM13.6,15.8A0.2,0.2 0 0 0 14,15.8A0.2,0.2 0 0 0 13.6,15.8zM14,15.8A0.2,0.2 0 0 0 14.4,15.8A0.2,0.2 0 0 0 14,15.8zM14.4,15.8A0.2,0.2 0 0 0 14.8,15.8A0.2,0.2 0 0 0 14.4,15.8zM16,15.8A0.2,0.2 0 0 0 16.4,15.8A0.2,0.2 0 0 0 16,15.8zM16.4,15.8A0.2,0.2 0 0 0 16.8,15.8A0.2,0.2 0 0 0 16.4,15.8zM1.6,16H2V16.4H1.6zM2.4,16H2.8V16.4H2.4zM2.8,16H3.2V16.4H2.8zM3.2,16H3.6V16.4H3.2zM4,16H4.4V16.4H4zM5.6,16.2A0.2,0.2 0 0 0 6,16.2A0.2,0.2 0 0 0 5.6,16.2zM6,16.2A0.2,0.2 0 0 0 6.4,16.2A0.2,0.2 0 0 0 6,16.2zM6.8,16.2A0.2,0.2 0 0 0 7.2,16.2A0.2,0.2 0 0 0 6.8,16.2zM7.2,16.2A0.2,0.2 0 0 0 7.6,16.2A0.2,0.2 0 0 0 7.2,16.2zM7.6,16.2A0.2,0.2 0 0 0 8,16.2A0.2,0.2 0 0 0 7.6,16.2zM8,16.2A0.2,0.2 0 0 0 8.4,16.2A0.2,0.2 0 0 0 8,16.2zM8.8,16.2A0.2,0.2 0 0 0 9.2,16.2A0.2,0.2 0 0 0 8.8,16.2zM9.2,16.2A0.2,0.2 0 0 0 9.6,16.2A0.2,0.2 0 0 0 9.2,16.2zM9.6,16.2A0.2,0.2 0 0 0 10,16.2A0.2,0.2 0 0 0 9.6,16.2zM10,16.2A0.2,0.2 0 0 0 10.4,16.2A0.2,0.2 0 0 0 10,16.2zM10.4,16.2A0.2,0.2 0 0 0 10.8,16.2A0.2,0.2 0 0 0 10.4,16.2zM10.8,16.2A0.2,0.2 0 0 0 11.2,16.2A0.2,0.2 0 0 0 10.8,16.2zM11.6,16.2A0.2,0.2 0 0 0 12,16.2A0.2,0.2 0 0 0 11.6,16.2zM12,16.2A0.2,0.2 0 0 0 12.4,16.2A0.2,0.2 0 0 0 12,16.2zM12.8,16.2A0.2,0.2 0 0 0 13.2,16.2A0.2,0.2 0 0 0 12.8,16.2zM13.2,16.2A0.2,0.2 0 0 0 13.6,16.2A0.2,0.2 0 0 0 13.2,16.2zM14,16.2A0.2,0.2 0 0 0 14.4,16.2A0.2,0.2 0 0 0 14,16.2zM14.4,16.2A0.2,0.2 0 0 0 14.8,16.2A0.2,0.2 0 0 0 14.4,16.2zM14.8,16.2A0.2,0.2 0 0 0 15.2,16.2A0.2,0.2 0 0 0 14.8,16.2zM15.2,16.2A0.2,0.2 0 0 0 15.6,16.2A0.2,0.2 0 0 0 15.2,16.2zM15.6,16.2A0.2,0.2 0 0 0 16,16.2A0.2,0.2 0 0 0 15.6,16.2zM16,16.2A0.2,0.2 0 0 0 16.4,16.2A0.2,0.2 0 0 0 16,16.2zM16.8,16.2A0.2,0.2 0 0 0 17.2,16.2A0.2,0.2 0 0 0 16.8,16.2zM17.6,16.2A0.2,0.2 0 0 0 18,16.2A0.2,0.2 0 0 0 17.6,16.2zM1.6,16.4H2V16.8H1.6zM2.4,16.4H2.8V16.8H2.4zM2.8,16.4H3.2V16.8H2.8zM3.2,16.4H3.6V16.8H3.2zM4,16.4H4.4V16.8H4zM6,16.6A0.2,0.2 0 0 0 6.4,16.6A0.2,0.2 0 0 0 6,16.6zM6.8,16.6A0.2,0.2 0 0 0 7.2,16.6A0.2,0.2 0 0 0 6.8,16.6zM7.6,16.6A0.2,0.2 0 0 0 8,16.6A0.2,0.2 0 0 0 7.6,16.6zM8,16.6A0.2,0.2 0 0 0 8.4,16.6A0.2,0.2 0 0 0 8,16.6zM8.4,16.6A0.2,0.2 0 0 0 8.8,16.6A0.2,0.2 0 0 0 8.4,16.6zM10,16.6A0.2,0.2 0 0 0 10.4,16.6A0.2,0.2 0 0 0 10,16.6zM10.4,16.6A0.2,0.2 0 0 0 10.8,16.6A0.2,0.2 0 0 0 10.4,16.6zM11.6,16.6A0.2,0.2 0 0 0 12,16.6A0.2,0.2 0 0 0 11.6,16.6zM12,16.6A0.2,0.2 0 0 0 12.4,16.6A0.2,0.2 0 0 0 12,16.6zM12.4,16.6A0.2,0.2 0 0 0 12.8,16.6A0.2,0.2 0 0 0 12.4,16.6zM12.8,16.6A0.2,0.2 0 0 0 13.2,16.6A0.2,0.2 0 0 0 12.8,16.6zM13.2,16.6A0.2,0.2 0 0 0 13.6,16.6A0.2,0.2 0 0 0 13.2,16.6zM13.6,16.6A0.2,0.2 0 0 0 14,16.6A0.2,0.2 0 0 0 13.6,16.6zM16,16.6A0.2,0.2 0 0 0 16.4,16.6A0.2,0.2 0 0 0 16,16.6zM16.8,16.6A0.2,0.2 0 0 0 17.2,16.6A0.2,0.2 0 0 0 16.8,16.6zM17.2,16.6A0.2,0.2 0 0 0 17.6,16.6A0.2,0.2 0 0 0 17.2,16.6zM17.6,16.6A0.2,0.2 0 0 0 18,16.6A0.2,0.2 0 0 0 17.6,16.6zM1.6,16.8H2V17.2H1.6zM2.4,16.8H2.8V17.2H2.4zM2.8,16.8H3.2V17.2H2.8zM3.2,16.8H3.6V17.2H3.2zM4,16.8H4.4V17.2H4zM5.2,17A0.2,0.2 0 0 0 5.6,17A0.2,0.2 0 0 0 5.2,17zM5.6,17A0.2,0.2 0 0 0 6,17A0.2,0.2 0 0 0 5.6,17zM6.8,17A0.2,0.2 0 0 0 7.2,17A0.2,0.2 0 0 0 6.8,17zM8,17A0.2,0.2 0 0 0 8.4,17A0.2,0.2 0 0 0 8,17zM8.4,17A0.2,0.2 0 0 0 8.8,17A0.2,0.2 0 0 0 8.4,17zM8.8,17A0.2,0.2 0 0 0 9.2,17A0.2,0.2 0 0 0 8.8,17zM9.6,17A0.2,0.2 0 0 0 10,17A0.2,0.2 0 0 0 9.6,17zM11.2,17A0.2,0.2 0 0 0 11.6,17A0.2,0.2 0 0 0 11.2,17zM11.6,17A0.2,0.2 0 0 0 12,17A0.2,0.2 0 0 0 11.6,17zM12,17A0.2,0.2 0 0 0 12.4,17A0.2,0.2 0 0 0 12,17zM12.4,17A0.2,0.2 0 0 0 12.8,17A0.2,0.2 0 0 0 12.4,17zM12.8,17A0.2,0.2 0 0 0 13.2,17A0.2,0.2 0 0 0 12.8,17zM13.6,17A0.2,0.2 0 0 0 14,17A0.2,0.2 0 0 0 13.6,17zM15.2,17A0.2,0.2 0 0 0 15.6,17A0.2,0.2 0 0 0 15.2,17zM15.6,17A0.2,0.2 0 0 0 16,17A0.2,0.2 0 0 0 15.6,17zM16,17A0.2,0.2 0 0 0 16.4,17A0.2,0.2 0 0 0 16,17zM16.4,17A0.2,0.2 0 0 0 16.8,17A0.2,0.2 0 0 0 16.4,17zM16.8,17A0.2,0.2 0 0 0 17.2,17A0.2,0.2 0 0 0 16.8,17zM17.2,17A0.2,0.2 0 0 0 17.6,17A0.2,0.2 0 0 0 17.2,17zM1.6,17.2H2V17.6H1.6zM4,17.2H4.4V17.6H4zM5.6,17.4A0.2,0.2 0 0 0 6,17.4A0.2,0.2 0 0 0 5.6,17.4zM6.4,17.4A0.2,0.2 0 0 0 6.8,17.4A0.2,0.2 0 0 0 6.4,17.4zM6.8,17.4A0.2,0.2 0 0 0 7.2,17.4A0.2,0.2 0 0 0 6.8,17.4zM8,17.4A0.2,0.2 0 0 0 8.4,17.4A0.2,0.2 0 0 0 8,17.4zM8.8,17.4A0.2,0.2 0 0 0 9.2,17.4A0.2,0.2 0 0 0 8.8,17.4zM9.2,17.4A0.2,0.2 0 0 0 9.6,17.4A0.2,0.2 0 0 0 9.2,17.4zM10.8,17.4A0.2,0.2 0 0 0 11.2,17.4A0.2,0.2 0 0 0 10.8,17.4zM11.2,17.4A0.2,0.2 0 0 0 11.6,17.4A0.2,0.2 0 0 0 11.2,17.4zM12.8,17.4A0.2,0.2 0 0 0 13.2,17.4A0.2,0.2 0 0 0 12.8,17.4zM14,17.4A0.2,0.2 0 0 0 14.4,17.4A0.2,0.2 0 0 0 14,17.4zM14.8,17.4A0.2,0.2 0 0 0 15.2,17.4A0.2,0.2 0 0 0 14.8,17.4zM15.6,17.4A0.2,0.2 0 0 0 16,17.4A0.2,0.2 0 0 0 15.6,17.4zM16,17.4A0.2,0.2 0 0 0 16.4,17.4A0.2,0.2 0 0 0 16,17.4zM16.4,17.4A0.2,0.2 0 0 0 16.8,17.4A0.2,0.2 0 0 0 16.4,17.4zM16.8,17.4A0.2,0.2 0 0 0 17.2,17.4A0.2,0.2 0 0 0 16.8,17.4zM17.6,17.4A0.2,0.2 0 0 0 18,17.4A0.2,0.2 0 0 0 17.6,17.4zM1.6,17.6H2V18H1.6zM2,17.6H2.4V18H2zM2.4,17.6H2.8V18H2.4zM2.8,17.6H3.2V18H2.8zM3.2,17.6H3.6V18H3.2zM3.6,17.6H4V18H3.6zM4,17.6H4.4V18H4zM5.2,17.8A0.2,0.2 0 0 0 5.6,17.8A0.2,0.2 0 0 0 5.2,17.8zM6,17.8A0.2,0.2 0 0 0 6.4,17.8A0.2,0.2 0 0 0 6,17.8zM6.4,17.8A0.2,0.2 0 0 0 6.8,17.8A0.2,0.2 0 0 0 6.4,17.8zM6.8,17.8A0.2,0.2 0 0 0 7.2,17.8A0.2,0.2 0 0 0 6.8,17.8zM8,17.8A0.2,0.2 0 0 0 8.4,17.8A0.2,0.2 0 0 0 8,17.8zM8.4,17.8A0.2,0.2 0 0 0 8.8,17.8A0.2,0.2 0 0 0 8.4,17.8zM9.2,17.8A0.2,0.2 0 0 0 9.6,17.8A0.2,0.2 0 0 0 9.2,17.8zM10,17.8A0.2,0.2 0 0 0 10.4,17.8A0.2,0.2 0 0 0 10,17.8zM10.4,17.8A0.2,0.2 0 0 0 10.8,17.8A0.2,0.2 0 0 0 10.4,17.8zM10.8,17.8A0.2,0.2 0 0 0 11.2,17.8A0.2,0.2 0 0 0 10.8,17.8zM11.6,17.8A0.2,0.2 0 0 0 12,17.8A0.2,0.2 0 0 0 11.6,17.8zM12.4,17.8A0.2,0.2 0 0 0 12.8,17.8A0.2,0.2 0 0 0 12.4,17.8zM13.2,17.8A0.2,0.2 0 0 0 13.6,17.8A0.2,0.2 0 0 0 13.2,17.8zM14.8,17.8A0.2,0.2 0 0 0 15.2,17.8A0.2,0.2 0 0 0 14.8,17.8zM16,17.8A0.2,0.2 0 0 0 16.4,17.8A0.2,0.2 0 0 0 16,17.8z" id="qr-path" fill="#000000" fill-opacity="1" fill-rule="nonzero" stroke="none" /></svg>