<?xml version='1.0' encoding='UTF-8'?>
<svg width="16.4mm" height="16.4mm" version="1.1" viewBox="0 0 16.4 16.4" xmlns="http://www.w3.org/2000/svg"><rect fill="white" x="0" y="0" width="100%" height="100%" /><path d="M1.6,1.6H2V2H1.6zM2,1.6H2.4V2H2zM2.4,1.6H2.8V2H2.4zM2.8,1.6H3.2V2H2.8zM3.2,1.6H3.6V2H3.2zM3.6,1.6H4V2H3.6zM4,1.6H4.4V2H4zM4.8,1.8A0.2,0.2 0 0 0 5.2,1.8A0.2,0.2 0 0 0 4.8,1.8zM6.8,1.8A0.2,0.2 0 0 0 7.2,1.8A0.2,0.2 0 0 0 6.8,1.8zM7.6,1.8A0.2,0.2 0 0 0 8,1.8A0.2,0.2 0 0 0 7.6,1.8zM8,1.8A0.2,0.2 0 0 0 8.4,1.8A0.2,0.2 0 0 0 8,1.8zM9.2,1.8A0.2,0.2 0 0 0 9.6,1.8A0.2,0.2 0 0 0 9.2,1.8zM10,1.8A0.2,0.2 0 0 0 10.4,1.8A0.2,0.2 0 0 0 10,1.8zM10.4,1.8A0.2,0.2 0 0 0 10.8,1.8A0.2,0.2 0 0 0 10.4,1.8zM10.8,1.8A0.2,0.2 0 0 0 11.2,1.8A0.2,0.2 0 0 0 10.8,1.8zM11.2,1.8A0.2,0.2 0 0 0 11.6,1.8A0.2,0.2 0 0 0 11.2,1.8zM12,1.6H12.4V2H12zM12.4,1.6H12.8V2H12.4zM12.8,1.6H13.2V2H12.8zM13.2,1.6H13.6V2H13.2zM13.6,1.6H14V2H13.6zM14,1.6H14.4V2H14zM14.4,1.6H14.8V2H14.4zM1.6,2H2V2.4H1.6zM4,2H4.4V2.4H4zM4.8,2.2A0.2,0.2 0 0 0 5.2,2.2A0.2,0.2 0 0 0 4.8,2.2zM6.4,2.2A0.2,0.2 0 0 0 6.8,2.2A0.2,0.2 0 0 0 6.4,2.2zM7.2,2.2A0.2,0.2 0 0 0 7.6,2.2A0.2,0.2 0 0 0 7.2,2.2zM8,2.2A0.2,0.2 0 0 0 8.4,2.2A0.2,0.2 0 0 0 8,2.2zM9.2,2.2A0.2,0.2 0 0 0 9.6,2.2A0.2,0.2 0 0 0 9.2,2.2zM11.2,2.2A0.2,0.2 0 0 0 11.6,2.2A0.2,0.2 0 0 0 11.2,2.2zM12,2H12.4V2.4H12zM14.4,2H14.8V2.4H14.4zM1.6,2.4H2V2.8H1.6zM2.4,2.4H2.8V2.8H2.4zM2.8,2.4H3.2V2.8H2.8zM3.2,2.4H3.6V2.8H3.2zM4,2.4H4.4V2.8H4zM4.8,2.6A0.2,0.2 0 0 0 5.2,2.6A0.2,0.2 0 0 0 4.8,2.6zM5.6,2.6A0.2,0.2 0 0 0 6,2.6A0.2,0.2 0 0 0 5.6,2.6zM6,2.6A0.2,0.2 0 0 0 6.4,2.6A0.2,0.2 0 0 0 6,2.6zM6.4,2.6A0.2,0.2 0 0 0 6.8,2.6A0.2,0.2 0 0 0 6.4,2.6zM6.8,2.6A0.2,0.2 0 0 0 7.2,2.6A0.2,0.2 0 0 0 6.8,2.6zM7.2,2.6A0.2,0.2 0 0 0 7.6,2.6A0.2,0.2 0 0 0 7.2,2.6zM8.4,2.6A0.2,0.2 0 0 0 8.8,2.6A0.2,0.2 0 0 0 8.4,2.6zM9.2,2.6A0.2,0.2 0 0 0 9.6,2.6A0.2,0.2 0 0 0 9.2,2.6zM9.6,2.6A0.2,0.2 0 0 0 10,2.6A0.2,0.2 0 0 0 9.6,2.6zM10,2.6A0.2,0.2 0 0 0 10.4,2.6A0.2,0.2 0 0 0 10,2.6zM10.8,2.6A0.2,0.2 0 0 0 11.2,2.6A0.2,0.2 0 0 0 10.8,2.6zM11.2,2.6A0.2,0.2 0 0 0 11.6,2.6A0.2,0.2 0 0 0 11.2,2.6zM12,2.4H12.4V2.8H12zM12.8,2.4H13.2V2.8H12.8zM13.2,2.4H13.6V2.8H13.2zM13.6,2.4H14V2.8H13.6zM14.4,2.4H14.8V2.8H14.4zM1.6,2.8H2V3.2H1.6zM2.4,2.8H2.8V3.2H2.4zM2.8,2.8H3.2V3.2H2.8zM3.2,2.8H3.6V3.2H3.2zM4,2.8H4.4V3.2H4zM5.2,3A0.2,0.2 0 0 0 5.6,3A0.2,0.2 0 0 0 5.2,3zM6.4,3A0.2,0.2 0 0 0 6.8,3A0.2,0.2 0 0 0 6.4,3zM6.8,3A0.2,0.2 0 0 0 7.2,3A0.2,0.2 0 0 0 6.8,3zM7.2,3A0.2,0.2 0 0 0 7.6,3A0.2,0.2 0 0 0 7.2,3zM8.4,3A0.2,0.2 0 0 0 8.8,3A0.2,0.2 0 0 0 8.4,3zM8.8,3A0.2,0.2 0 0 0 9.2,3A0.2,0.2 0 0 0 8.8,3zM9.2,3A0.2,0.2 0 0 0 9.6,3A0.2,0.2 0 0 0 9.2,3zM10.4,3A0.2,0.2 0 0 0 10.8,3A0.2,0.2 0 0 0 10.4,3zM10.8,3A0.2,0.2 0 0 0 11.2,3A0.2,0.2 0 0 0 10.8,3zM11.2,3A0.2,0.2 0 0 0 11.6,3A0.2,0.2 0 0 0 11.2,3zM12,2.8H12.4V3.2H12zM12.8,2.8H13.2V3.2H12.8zM13.2,2.8H13.6V3.2H13.2zM13.6,2.8H14V3.2H13.6zM14.4,2.8H14.8V3.2H14.4zM1.6,3.2H2V3.6H1.6zM2.4,3.2H2.8V3.6H2.4zM2.8,3.2H3.2V3.6H2.8zM3.2,3.2H3.6V3.6H3.2zM4,3.2H4.4V3.6H4zM6,3.4A0.2,0.2 0 0 0 6.4,3.4A0.2,0.2 0 0 0 6,3.4zM7.2,3.4A0.2,0.2 0 0 0 7.6,3.4A0.2,0.2 0 0 0 7.2,3.4zM7.6,3.4A0.2,0.2 0 0 0 8,3.4A0.2,0.2 0 0 0 7.6,3.4zM8.4,3.4A0.2,0.2 0 0 0 8.8,3.4A0.2,0.2 0 0 0 8.4,3.4zM10,3.4A0.2,0.2 0 0 0 10.4,3.4A0.2,0.2 0 0 0 10,3.4zM12,3.2H12.4V3.6H12zM12.8,3.2H13.2V3.6H12.8zM13.2,3.2H13.6V3.6H13.2zM13.6,3.2H14V3.6H13.6zM14.4,3.2H14.8V3.6H14.4zM1.6,3.6H2V4H1.6zM4,3.6H4.4V4H4zM4.8,3.8A0.2,0.2 0 0 0 5.2,3.8A0.2,0.2 0 0 0 4.8,3.8zM5.2,3.8A0.2,0.2 0 0 0 5.6,3.8A0.2,0.2 0 0 0 5.2,3.8zM6,3.8A0.2,0.2 0 0 0 6.4,3.8A0.2,0.2 0 0 0 6,3.8zM7.2,3.8A0.2,0.2 0 0 0 7.6,3.8A0.2,0.2 0 0 0 7.2,3.8zM7.6,3.8A0.2,0.2 0 0 0 8,3.8A0.2,0.2 0 0 0 7.6,3.8zM8.8,3.8A0.2,0.2 0 0 0 9.2,3.8A0.2,0.2 0 0 0 8.8,3.8zM9.2,3.8A0.2,0.2 0 0 0 9.6,3.8A0.2,0.2 0 0 0 9.2,3.8zM9.6,3.8A0.2,0.2 0 0 0 10,3.8A0.2,0.2 0 0 0 9.6,3.8zM10,3.8A0.2,0.2 0 0 0 10.4,3.8A0.2,0.2 0 0 0 10,3.8zM10.4,3.8A0.2,0.2 0 0 0 10.8,3.8A0.2,0.2 0 0 0 10.4,3.8zM12,3.6H12.4V4H12zM14.4,3.6H14.8V4H14.4zM1.6,4H2V4.4H1.6zM2,4H2.4V4.4H2zM2.4,4H2.8V4.4H2.4zM2.8,4H3.2V4.4H2.8zM3.2,4H3.6V4.4H3.2zM3.6,4H4V4.4H3.6zM4,4H4.4V4.4H4zM4.8,4.2A0.2,0.2 0 0 0 5.2,4.2A0.2,0.2 0 0 0 4.8,4.2zM5.6,4.2A0.2,0.2 0 0 0 6,4.2A0.2,0.2 0 0 0 5.6,4.2zM6.4,4.2A0.2,0.2 0 0 0 6.8,4.2A0.2,0.2 0 0 0 6.4,4.2zM7.2,4.2A0.2,0.2 0 0 0 7.6,4.2A0.2,0.2 0 0 0 7.2,4.2zM8,4.2A0.2,0.2 0 0 0 8.4,4.2A0.2,0.2 0 0 0 8,4.2zM8.8,4.2A0.2,0.2 0 0 0 9.2,4.2A0.2,0.2 0 0 0 8.8,4.2zM9.6,4.2A0.2,0.2 0 0 0 10,4.2A0.2,0.2 0 0 0 9.6,4.2zM10.4,4.2A0.2,0.2 0 0 0 10.8,4.2A0.2,0.2 0 0 0 10.4,4.2zM11.2,4.2A0.2,0.2 0 0 0 11.6,4.2A0.2,0.2 0 0 0 11.2,4.2zM12,4H12.4V4.4H12zM12.4,4H12.8V4.4H12.4zM12.8,4H13.2V4.4H12.8zM13.2,4H13.6V4.4H13.2zM13.6,4H14V4.4H13.6zM14,4H14.4V4.4H14zM14.4,4H14.8V4.4H14.4zM4.8,4.6A0.2,0.2 0 0 0 5.2,4.6A0.2,0.2 0 0 0 4.8,4.6zM5.2,4.6A0.2,0.2 0 0 0 5.6,4.6A0.2,0.2 0 0 0 5.2,4.6zM7.2,4.6A0.2,0.2 0 0 0 7.6,4.6A0.2,0.2 0 0 0 7.2,4.6zM8,4.6A0.2,0.2 0 0 0 8.4,4.6A0.2,0.2 0 0 0 8,4.6zM8.4,4.6A0.2,0.2 0 0 0 8.8,4.6A0.2,0.2 0 0 0 8.4,4.6zM8.8,4.6A0.2,0.2 0 0 0 9.2,4.6A0.2,0.2 0 0 0 8.8,4.6zM10,4.6A0.2,0.2 0 0 0 10.4,4.6A0.2,0.2 0 0 0 10,4.6zM10.8,4.6A0.2,0.2 0 0 0 11.2,4.6A0.2,0.2 0 0 0 10.8,4.6zM11.2,4.6A0.2,0.2 0 0 0 11.6,4.6A0.2,0.2 0 0 0 11.2,4.6zM2.4,5A0.2,0.2 0 0 0 2.8,5A0.2,0.2 0 0 0 2.4,5zM2.8,5A0.2,0.2 0 0 0 3.2,5A0.2,0.2 0 0 0 2.8,5zM3.2,5A0.2,0.2 0 0 0 3.6,5A0.2,0.2 0 0 0 3.2,5zM4,5A0.2,0.2 0 0 0 4.4,5A0.2,0.2 0 0 0 4,5zM4.8,5A0.2,0.2 0 0 0 5.2,5A0.2,0.2 0 0 0 4.8,5zM5.2,5A0.2,0.2 0 0 0 5.6,5A0.2,0.2 0 0 0 5.2,5zM6,5A0.2,0.2 0 0 0 6.4,5A0.2,0.2 0 0 0 6,5zM6.4,5A0.2,0.2 0 0 0 6.8,5A0.2,0.2 0 0 0 6.4,5zM6.8,5A0.2,0.2 0 0 0 7.2,5A0.2,0.2 0 0 0 6.8,5zM8,5A0.2,0.2 0 0 0 8.4,5A0.2,0.2 0 0 0 8,5zM8.4,5A0.2,0.2 0 0 0 8.8,5A0.2,0.2 0 0 0 8.4,5zM9.2,5A0.2,0.2 0 0 0 9.6,5A0.2,0.2 0 0 0 9.2,5zM9.6,5A0.2,0.2 0 0 0 10,5A0.2,0.2 0 0 0 9.6,5zM10.4,5A0.2,0.2 0 0 0 10.8,5A0.2,0.2 0 0 0 10.4,5zM11.2,5A0.2,0.2 0 0 0 11.6,5A0.2,0.2 0 0 0 11.2,5zM11.6,5A0.2,0.2 0 0 0 12,5A0.2,0.2 0 0 0 11.6,5zM12,5A0.2,0.2 0 0 0 12.4,5A0.2,0.2 0 0 0 12,5zM12.4,5A0.2,0.2 0 0 0 12.8,5A0.2,0.2 0 0 0 12.4,5zM13.6,5A0.2,0.2 0 0 0 14,5A0.2,0.2 0 0 0 13.6,5zM14,5A0.2,0.2 0 0 0 14.4,5A0.2,0.2 0 0 0 14,5zM14.4,5A0.2,0.2 0 0 0 14.8,5A0.2,0.2 0 0 0 14.4,5zM1.6,5.4A0.2,0.2 0 0 0 2,5.4A0.2,0.2 0 0 0 1.6,5.4zM2,5.4A0.2,0.2 0 0 0 2.4,5.4A0.2,0.2 0 0 0 2,5.4zM2.8,5.4A0.2,0.2 0 0 0 3.2,5.4A0.2,0.2 0 0 0 2.8,5.4zM3.2,5.4A0.2,0.2 0 0 0 3.6,5.4A0.2,0.2 0 0 0 3.2,5.4zM3.6,5.4A0.2,0.2 0 0 0 4,5.4A0.2,0.2 0 0 0 3.6,5.4zM6,5.4A0.2,0.2 0 0 0 6.4,5.4A0.2,0.2 0 0 0 6,5.4zM10,5.4A0.2,0.2 0 0 0 10.4,5.4A0.2,0.2 0 0 0 10,5.4zM10.8,5.4A0.2,0.2 0 0 0 11.2,5.4A0.2,0.2 0 0 0 10.8,5.4zM11.6,5.4A0.2,0.2 0 0 0 12,5.4A0.2,0.2 0 0 0 11.6,5.4zM13.6,5.4A0.2,0.2 0 0 0 14,5.4A0.2,0.2 0 0 0 13.6,5.4zM14,5.4A0.2,0.2 0 0 0 14.4,5.4A0.2,0.2 0 0 0 14,5.4zM14.4,5.4A0.2,0.2 0 0 0 14.8,5.4A0.2,0.2 0 0 0 14.4,5.4zM2.4,5.8A0.2,0.2 0 0 0 2.8,5.8A0.2,0.2 0 0 0 2.4,5.8zM3.2,5.8A0.2,0.2 0 0 0 3.6,5.8A0.2,0.2 0 0 0 3.2,5.8zM3.6,5.8A0.2,0.2 0 0 0 4,5.8A0.2,0.2 0 0 0 3.6,5.8zM4,5.8A0.2,0.2 0 0 0 4.4,5.8A0.2,0.2 0 0 0 4,5.8zM4.4,5.8A0.2,0.2 0 0 0 4.8,5.8A0.2,0.2 0 0 0 4.4,5.8zM4.8,5.8A0.2,0.2 0 0 0 5.2,5.8A0.2,0.2 0 0 0 4.8,5.8zM6,5.8A0.2,0.2 0 0 0 6.4,5.8A0.2,0.2 0 0 0 6,5.8zM7.6,5.8A0.2,0.2 0 0 0 8,5.8A0.2,0.2 0 0 0 7.6,5.8zM8.4,5.8A0.2,0.2 0 0 0 8.8,5.8A0.2,0.2 0 0 0 8.4,5.8zM8.8,5.8A0.2,0.2 0 0 0 9.2,5.8A0.2,0.2 0 0 0 8.8,5.8zM9.2,5.8A0.2,0.2 0 0 0 9.6,5.8A0.2,0.2 0 0 0 9.2,5.8zM9.6,5.8A0.2,0.2 0 0 0 10,5.8A0.2,0.2 0 0 0 9.6,5.8zM12,5.8A0.2,0.2 0 0 0 12.4,5.8A0.2,0.2 0 0 0 12,5.8zM12.4,5.8A0.2,0.2 0 0 0 12.8,5.8A0.2,0.2 0 0 0 12.4,5.8zM12.8,5.8A0.2,0.2 0 0 0 13.2,5.8A0.2,0.2 0 0 0 12.8,5.8zM14,5.8A0.2,0.2 0 0 0 14.4,5.8A0.2,0.2 0 0 0 14,5.8zM2,6.2A0.2,0.2 0 0 0 2.4,6.2A0.2,0.2 0 0 0 2,6.2zM2.4,6.2A0.2,0.2 0 0 0 2.8,6.2A0.2,0.2 0 0 0 2.4,6.2zM2.8,6.2A0.2,0.2 0 0 0 3.2,6.2A0.2,0.2 0 0 0 2.8,6.2zM4.8,6.2A0.2,0.2 0 0 0 5.2,6.2A0.2,0.2 0 0 0 4.8,6.2zM5.2,6.2A0.2,0.2 0 0 0 5.6,6.2A0.2,0.2 0 0 0 5.2,6.2zM6.8,6.2A0.2,0.2 0 0 0 7.2,6.2A0.2,0.2 0 0 0 6.8,6.2zM10,6.2A0.2,0.2 0 0 0 10.4,6.2A0.2,0.2 0 0 0 10,6.2zM10.8,6.2A0.2,0.2 0 0 0 11.2,6.2A0.2,0.2 0 0 0 10.8,6.2zM12,6.2A0.2,0.2 0 0 0 12.4,6.2A0.2,0.2 0 0 0 12,6.2zM12.4,6.2A0.2,0.2 0 0 0 12.8,6.2A0.2,0.2 0 0 0 12.4,6.2zM13.2,6.2A0.2,0.2 0 0 0 13.6,6.2A0.2,0.2 0 0 0 13.2,6.2zM13.6,6.2A0.2,0.2 0 0 0 14,6.2A0.2,0.2 0 0 0 13.6,6.2zM1.6,6.6A0.2,0.2 0 0 0 2,6.6A0.2,0.2 0 0 0 1.6,6.6zM4,6.6A0.2,0.2 0 0 0 4.4,6.6A0.2,0.2 0 0 0 4,6.6zM5.6,6.6A0.2,0.2 0 0 0 6,6.6A0.2,0.2 0 0 0 5.6,6.6zM6,6.6A0.2,0.2 0 0 0 6.4,6.6A0.2,0.2 0 0 0 6,6.6zM6.8,6.6A0.2,0.2 0 0 0 7.2,6.6A0.2,0.2 0 0 0 6.8,6.6zM7.2,6.6A0.2,0.2 0 0 0 7.6,6.6A0.2,0.2 0 0 0 7.2,6.6zM7.6,6.6A0.2,0.2 0 0 0 8,6.6A0.2,0.2 0 0 0 7.6,6.6zM8,6.6A0.2,0.2 0 0 0 8.4,6.6A0.2,0.2 0 0 0 8,6.6zM8.4,6.6A0.2,0.2 0 0 0 8.8,6.6A0.2,0.2 0 0 0 8.4,6.6zM9.2,6.6A0.2,0.2 0 0 0 9.6,6.6A0.2,0.2 0 0 0 9.2,6.6zM10,6.6A0.2,0.2 0 0 0 10.4,6.6A0.2,0.2 0 0 0 10,6.6zM10.4,6.6A0.2,0.2 0 0 0 10.8,6.6A0.2,0.2 0 0 0 10.4,6.6zM11.2,6.6A0.2,0.2 0 0 0 11.6,6.6A0.2,0.2 0 0 0 11.2,6.6zM11.6,6.6A0.2,0.2 0 0 0 12,6.6A0.2,0.2 0 0 0 11.6,6.6zM12.8,6.6A0.2,0.2 0 0 0 13.2,6.6A0.2,0.2 0 0 0 12.8,6.6zM13.2,6.6A0.2,0.2 0 0 0 13.6,6.6A0.2,0.2 0 0 0 13.2,6.6zM1.6,7A0.2,0.2 0 0 0 2,7A0.2,0.2 0 0 0 1.6,7zM2.4,7A0.2,0.2 0 0 0 2.8,7A0.2,0.2 0 0 0 2.4,7zM3.2,7A0.2,0.2 0 0 0 3.6,7A0.2,0.2 0 0 0 3.2,7zM3.6,7A0.2,0.2 0 0 0 4,7A0.2,0.2 0 0 0 3.6,7zM4.4,7A0.2,0.2 0 0 0 4.8,7A0.2,0.2 0 0 0 4.4,7zM4.8,7A0.2,0.2 0 0 0 5.2,7A0.2,0.2 0 0 0 4.8,7zM5.2,7A0.2,0.2 0 0 0 5.6,7A0.2,0.2 0 0 0 5.2,7zM5.6,7A0.2,0.2 0 0 0 6,7A0.2,0.2 0 0 0 5.6,7zM6,7A0.2,0.2 0 0 0 6.4,7A0.2,0.2 0 0 0 6,7zM6.4,7A0.2,0.2 0 0 0 6.8,7A0.2,0.2 0 0 0 6.4,7zM7.6,7A0.2,0.2 0 0 0 8,7A0.2,0.2 0 0 0 7.6,7zM9.2,7A0.2,0.2 0 0 0 9.6,7A0.2,0.2 0 0 0 9.2,7zM10,7A0.2,0.2 0 0 0 10.4,7A0.2,0.2 0 0 0 10,7zM10.4,7A0.2,0.2 0 0 0 10.8,7A0.2,0.2 0 0 0 10.4,7zM12,7A0.2,0.2 0 0 0 12.4,7A0.2,0.2 0 0 0 12,7zM12.4,7A0.2,0.2 0 0 0 12.8,7A0.2,0.2 0 0 0 12.4,7zM13.2,7A0.2,0.2 0 0 0 13.6,7A0.2,0.2 0 0 0 13.2,7zM13.6,7A0.2,0.2 0 0 0 14,7A0.2,0.2 0 0 0 13.6,7zM14,7A0.2,0.2 0 0 0 14.4,7A0.2,0.2 0 0 0 14,7zM1.6,7.4A0.2,0.2 0 0 0 2,7.4A0.2,0.2 0 0 0 1.6,7.4zM2.4,7.4A0.2,0.2 0 0 0 2.8,7.4A0.2,0.2 0 0 0 2.4,7.4zM2.8,7.4A0.2,0.2 0 0 0 3.2,7.4A0.2,0.2 0 0 0 2.8,7.4zM3.6,7.4A0.2,0.2 0 0 0 4,7.4A0.2,0.2 0 0 0 3.6,7.4zM4,7.4A0.2,0.2 0 0 0 4.4,7.4A0.2,0.2 0 0 0 4,7.4zM7.2,7.4A0.2,0.2 0 0 0 7.6,7.4A0.2,0.2 0 0 0 7.2,7.4zM9.2,7.4A0.2,0.2 0 0 0 9.6,7.4A0.2,0.2 0 0 0 9.2,7.4zM9.6,7.4A0.2,0.2 0 0 0 10,7.4A0.2,0.2 0 0 0 9.6,7.4zM10,7.4A0.2,0.2 0 0 0 10.4,7.4A0.2,0.2 0 0 0 10,7.4zM10.4,7.4A0.2,0.2 0 0 0 10.8,7.4A0.2,0.2 0 0 0 10.4,7.4zM11.6,7.4A0.2,0.2 0 0 0 12,7.4A0.2,0.2 0 0 0 11.6,7.4zM12,7.4A0.2,0.2 0 0 0 12.4,7.4A0.2,0.2 0 0 0 12,7.4zM12.4,7.4A0.2,0.2 0 0 0 12.8,7.4A0.2,0.2 0 0 0 12.4,7.4zM13.6,7.4A0.2,0.2 0 0 0 14,7.4A0.2,0.2 0 0 0 13.6,7.4zM14,7.4A0.2,0.2 0 0 0 14.4,7.4A0.2,0.2 0 0 0 14,7.4zM1.6,7.8A0.2,0.2 0 0 0 2,7.8A0.2,0.2 0 0 0 1.6,7.8zM2.8,7.8A0.2,0.2 0 0 0 3.2,7.8A0.2,0.2 0 0 0 2.8,7.8zM4.4,7.8A0.2,0.2 0 0 0 4.8,7.8A0.2,0.2 0 0 0 4.4,7.8zM5.2,7.8A0.2,0.2 0 0 0 5.6,7.8A0.2,0.2 0 0 0 5.2,7.8zM6.4,7.8A0.2,0.2 0 0 0 6.8,7.8A0.2,0.2 0 0 0 6.4,7.8zM6.8,7.8A0.2,0.2 0 0 0 7.2,7.8A0.2,0.2 0 0 0 6.8,7.8zM7.2,7.8A0.2,0.2 0 0 0 7.6,7.8A0.2,0.2 0 0 0 7.2,7.8zM7.6,7.8A0.2,0.2 0 0 0 8,7.8A0.2,0.2 0 0 0 7.6,7.8zM8,7.8A0.2,0.2 0 0 0 8.4,7.8A0.2,0.2 0 0 0 8,7.8zM8.4,7.8A0.2,0.2 0 0 0 8.8,7.8A0.2,0.2 0 0 0 8.4,7.8zM8.8,7.8A0.2,0.2 0 0 0 9.2,7.8A0.2,0.2 0 0 0 8.8,7.8zM9.6,7.8A0.2,0.2 0 0 0 10,7.8A0.2,0.2 0 0 0 9.6,7.8zM10,7.8A0.2,0.2 0 0 0 10.4,7.8A0.2,0.2 0 0 0 10,7.8zM11.2,7.8A0.2,0.2 0 0 0 11.6,7.8A0.2,0.2 0 0 0 11.2,7.8zM12,7.8A0.2,0.2 0 0 0 12.4,7.8A0.2,0.2 0 0 0 12,7.8zM13.2,7.8A0.2,0.2 0 0 0 13.6,7.8A0.2,0.2 0 0 0 13.2,7.8zM13.6,7.8A0.2,0.2 0 0 0 14,7.8A0.2,0.2 0 0 0 13.6,7.8zM14.4,7.8A0.2,0.2 0 0 0 14.8,7.8A0.2,0.2 0 0 0 14.4,7.8zM1.6,8.2A0.2,0.2 0 0 0 2,8.2A0.2,0.2 0 0 0 1.6,8.2zM2,8.2A0.2,0.2 0 0 0 2.4,8.2A0.2,0.2 0 0 0 2,8.2zM3.2,8.2A0.2,0.2 0 0 0 3.6,8.2A0.2,0.2 0 0 0 3.2,8.2zM3.6,8.2A0.2,0.2 0 0 0 4,8.2A0.2,0.2 0 0 0 3.6,8.2zM4,8.2A0.2,0.2 0 0 0 4.4,8.2A0.2,0.2 0 0 0 4,8.2zM4.4,8.2A0.2,0.2 0 0 0 4.8,8.2A0.2,0.2 0 0 0 4.4,8.2zM4.8,8.2A0.2,0.2 0 0 0 5.2,8.2A0.2,0.2 0 0 0 4.8,8.2zM5.6,8.2A0.2,0.2 0 0 0 6,8.2A0.2,0.2 0 0 0 5.6,8.2zM6.4,8.2A0.2,0.2 0 0 0 6.8,8.2A0.2,0.2 0 0 0 6.4,8.2zM6.8,8.2A0.2,0.2 0 0 0 7.2,8.2A0.2,0.2 0 0 0 6.8,8.2zM8,8.2A0.2,0.2 0 0 0 8.4,8.2A0.2,0.2 0 0 0 8,8.2zM8.4,8.2A0.2,0.2 0 0 0 8.8,8.2A0.2,0.2 0 0 0 8.4,8.2zM8.8,8.2A0.2,0.2 0 0 0 9.2,8.2A0.2,0.2 0 0 0 8.8,8.2zM10.8,8.2A0.2,0.2 0 0 0 11.2,8.2A0.2,0.2 0 0 0 10.8,8.2zM11.2,8.2A0.2,0.2 0 0 0 11.6,8.2A0.2,0.2 0 0 0 11.2,8.2zM11.6,8.2A0.2,0.2 0 0 0 12,8.2A0.2,0.2 0 0 0 11.6,8.2zM12.4,8.2A0.2,0.2 0 0 0 12.8,8.2A0.2,0.2 0 0 0 12.4,8.2zM12.8,8.2A0.2,0.2 0 0 0 13.2,8.2A0.2,0.2 0 0 0 12.8,8.2zM1.6,8.6A0.2,0.2 0 0 0 2,8.6A0.2,0.2 0 0 0 1.6,8.6zM2.4,8.6A0.2,0.2 0 0 0 2.8,8.6A0.2,0.2 0 0 0 2.4,8.6zM3.6,8.6A0.2,0.2 0 0 0 4,8.6A0.2,0.2 0 0 0 3.6,8.6zM4.4,8.6A0.2,0.2 0 0 0 4.8,8.6A0.2,0.2 0 0 0 4.4,8.6zM6,8.6A0.2,0.2 0 0 0 6.4,8.6A0.2,0.2 0 0 0 6,8.6zM7.2,8.6A0.2,0.2 0 0 0 7.6,8.6A0.2,0.2 0 0 0 7.2,8.6zM8,8.6A0.2,0.2 0 0 0 8.4,8.6A0.2,0.2 0 0 0 8,8.6zM9.6,8.6A0.2,0.2 0 0 0 10,8.6A0.2,0.2 0 0 0 9.6,8.6zM10.4,8.6A0.2,0.2 0 0 0 10.8,8.6A0.2,0.2 0 0 0 10.4,8.6zM10.8,8.6A0.2,0.2 0 0 0 11.2,8.6A0.2,0.2 0 0 0 10.8,8.6zM11.6,8.6A0.2,0.2 0 0 0 12,8.6A0.2,0.2 0 0 0 11.6,8.6zM13.2,8.6A0.2,0.2 0 0 0 13.6,8.6A0.2,0.2 0 0 0 13.2,8.6zM13.6,8.6A0.2,0.2 0 0 0 14,8.6A0.2,0.2 0 0 0 13.6,8.6zM14,8.6A0.2,0.2 0 0 0 14.4,8.6A0.2,0.2 0 0 0 14,8.6zM14.4,8.6A0.2,0.2 0 0 0 14.8,8.6A0.2,0.2 0 0 0 14.4,8.6zM2.4,9A0.2,0.2 0 0 0 2.8,9A0.2,0.2 0 0 0 2.4,9zM3.6,9A0.2,0.2 0 0 0 4,9A0.2,0.2 0 0 0 3.6,9zM4,9A0.2,0.2 0 0 0 4.4,9A0.2,0.2 0 0 0 4,9zM4.4,9A0.2,0.2 0 0 0 4.8,9A0.2,0.2 0 0 0 4.4,9zM5.2,9A0.2,0.2 0 0 0 5.6,9A0.2,0.2 0 0 0 5.2,9zM6,9A0.2,0.2 0 0 0 6.4,9A0.2,0.2 0 0 0 6,9zM6.8,9A0.2,0.2 0 0 0 7.2,9A0.2,0.2 0 0 0 6.8,9zM10,9A0.2,0.2 0 0 0 10.4,9A0.2,0.2 0 0 0 10,9zM12,9A0.2,0.2 0 0 0 12.4,9A0.2,0.2 0 0 0 12,9zM13.6,9A0.2,0.2 0 0 0 14,9A0.2,0.2 0 0 0 13.6,9zM14,9A0.2,0.2 0 0 0 14.4,9A0.2,0.2 0 0 0 14,9zM1.6,9.4A0.2,0.2 0 0 0 2,9.4A0.2,0.2 0 0 0 1.6,9.4zM2,9.4A0.2,0.2 0 0 0 2.4,9.4A0.2,0.2 0 0 0 2,9.4zM2.8,9.4A0.2,0.2 0 0 0 3.2,9.4A0.2,0.2 0 0 0 2.8,9.4zM4.4,9.4A0.2,0.2 0 0 0 4.8,9.4A0.2,0.2 0 0 0 4.4,9.4zM4.8,9.4A0.2,0.2 0 0 0 5.2,9.4A0.2,0.2 0 0 0 4.8,9.4zM5.2,9.4A0.2,0.2 0 0 0 5.6,9.4A0.2,0.2 0 0 0 5.2,9.4zM5.6,9.4A0.2,0.2 0 0 0 6,9.4A0.2,0.2 0 0 0 5.6,9.4zM6.4,9.4A0.2,0.2 0 0 0 6.8,9.4A0.2,0.2 0 0 0 6.4,9.4zM8.4,9.4A0.2,0.2 0 0 0 8.8,9.4A0.2,0.2 0 0 0 8.4,9.4zM8.8,9.4A0.2,0.2 0 0 0 9.2,9.4A0.2,0.2 0 0 0 8.8,9.4zM9.2,9.4A0.2,0.2 0 0 0 9.6,9.4A0.2,0.2 0 0 0 9.2,9.4zM9.6,9.4A0.2,0.2 0 0 0 10,9.4A0.2,0.2 0 0 0 9.6,9.4zM10,9.4A0.2,0.2 0 0 0 10.4,9.4A0.2,0.2 0 0 0 10,9.4zM10.4,9.4A0.2,0.2 0 0 0 10.8,9.4A0.2,0.2 0 0 0 10.4,9.4zM11.2,9.4A0.2,0.2 0 0 0 11.6,9.4A0.2,0.2 0 0 0 11.2,9.4zM11.6,9.4A0.2,0.2 0 0 0 12,9.4A0.2,0.2 0 0 0 11.6,9.4zM12.4,9.4A0.2,0.2 0 0 0 12.8,9.4A0.2,0.2 0 0 0 12.4,9.4zM13.2,9.4A0.2,0.2 0 0 0 13.6,9.4A0.2,0.2 0 0 0 13.2,9.4zM13.6,9.4A0.2,0.2 0 0 0 14,9.4A0.2,0.2 0 0 0 13.6,9.4zM14,9.4A0.2,0.2 0 0 0 14.4,9.4A0.2,0.2 0 0 0 14,9.4zM2.4,9.8A0.2,0.2 0 0 0 2.8,9.8A0.2,0.2 0 0 0 2.4,9.8zM4,9.8A0.2,0.2 0 0 0 4.4,9.8A0.2,0.2 0 0 0 4,9.8zM4.8,9.8A0.2,0.2 0 0 0 5.2,9.8A0.2,0.2 0 0 0 4.8,9.8zM5.2,9.8A0.2,0.2 0 0 0 5.6,9.8A0.2,0.2 0 0 0 5.2,9.8zM5.6,9.8A0.2,0.2 0 0 0 6,9.8A0.2,0.2 0 0 0 5.6,9.8zM6.4,9.8A0.2,0.2 0 0 0 6.8,9.8A0.2,0.2 0 0 0 6.4,9.8zM6.8,9.8A0.2,0.2 0 0 0 7.2,9.8A0.2,0.2 0 0 0 6.8,9.8zM7.2,9.8A0.2,0.2 0 0 0 7.6,9.8A0.2,0.2 0 0 0 7.2,9.8zM7.6,9.8A0.2,0.2 0 0 0 8,9.8A0.2,0.2 0 0 0 7.6,9.8zM8.4,9.8A0.2,0.2 0 0 0 8.8,9.8A0.2,0.2 0 0 0 8.4,9.8zM8.8,9.8A0.2,0.2 0 0 0 9.2,9.8A0.2,0.2 0 0 0 8.8,9.8zM9.2,9.8A0.2,0.2 0 0 0 9.6,9.8A0.2,0.2 0 0 0 9.2,9.8zM10,9.8A0.2,0.2 0 0 0 10.4,9.8A0.2,0.2 0 0 0 10,9.8zM10.4,9.8A0.2,0.2 0 0 0 10.8,9.8A0.2,0.2 0 0 0 10.4,9.8zM10.8,9.8A0.2,0.2 0 0 0 11.2,9.8A0.2,0.2 0 0 0 10.8,9.8zM11.2,9.8A0.2,0.2 0 0 0 11.6,9.8A0.2,0.2 0 0 0 11.2,9.8zM11.6,9.8A0.2,0.2 0 0 0 12,9.8A0.2,0.2 0 0 0 11.6,9.8zM12.4,9.8A0.2,0.2 0 0 0 12.8,9.8A0.2,0.2 0 0 0 12.4,9.8zM12.8,9.8A0.2,0.2 0 0 0 13.2,9.8A0.2,0.2 0 0 0 12.8,9.8zM13.6,9.8A0.2,0.2 0 0 0 14,9.8A0.2,0.2 0 0 0 13.6,9.8zM1.6,10.2A0.2,0.2 0 0 0 2,10.2A0.2,0.2 0 0 0 1.6,10.2zM2,10.2A0.2,0.2 0 0 0 2.4,10.2A0.2,0.2 0 0 0 2,10.2zM2.8,10.2A0.2,0.2 0 0 0 3.2,10.2A0.2,0.2 0 0 0 2.8,10.2zM3.2,10.2A0.2,0.2 0 0 0 3.6,10.2A0.2,0.2 0 0 0 3.2,10.2zM3.6,10.2A0.2,0.2 0 0 0 4,10.2A0.2,0.2 0 0 0 3.6,10.2zM4.4,10.2A0.2,0.2 0 0 0 4.8,10.2A0.2,0.2 0 0 0 4.4,10.2zM5.2,10.2A0.2,0.2 0 0 0 5.6,10.2A0.2,0.2 0 0 0 5.2,10.2zM6.4,10.2A0.2,0.2 0 0 0 6.8,10.2A0.2,0.2 0 0 0 6.4,10.2zM6.8,10.2A0.2,0.2 0 0 0 7.2,10.2A0.2,0.2 0 0 0 6.8,10.2zM7.2,10.2A0.2,0.2 0 0 0 7.6,10.2A0.2,0.2 0 0 0 7.2,10.2zM8,10.2A0.2,0.2 0 0 0 8.4,10.2A0.2,0.2 0 0 0 8,10.2zM8.8,10.2A0.2,0.2 0 0 0 9.2,10.2A0.2,0.2 0 0 0 8.8,10.2zM10,10.2A0.2,0.2 0 0 0 10.4,10.2A0.2,0.2 0 0 0 10,10.2zM10.8,10.2A0.2,0.2 0 0 0 11.2,10.2A0.2,0.2 0 0 0 10.8,10.2zM11.6,10.2A0.2,0.2 0 0 0 12,10.2A0.2,0.2 0 0 0 11.6,10.2zM14.4,10.2A0.2,0.2 0 0 0 14.8,10.2A0.2,0.2 0 0 0 14.4,10.2zM1.6,10.6A0.2,0.2 0 0 0 2,10.6A0.2,0.2 0 0 0 1.6,10.6zM2.4,10.6A0.2,0.2 0 0 0 2.8,10.6A0.2,0.2 0 0 0 2.4,10.6zM3.2,10.6A0.2,0.2 0 0 0 3.6,10.6A0.2,0.2 0 0 0 3.2,10.6zM4,10.6A0.2,0.2 0 0 0 4.4,10.6A0.2,0.2 0 0 0 4,10.6zM4.4,10.6A0.2,0.2 0 0 0 4.8,10.6A0.2,0.2 0 0 0 4.4,10.6zM5.2,10.6A0.2,0.2 0 0 0 5.6,10.6A0.2,0.2 0 0 0 5.2,10.6zM7.2,10.6A0.2,0.2 0 0 0 7.6,10.6A0.2,0.2 0 0 0 7.2,10.6zM7.6,10.6A0.2,0.2 0 0 0 8,10.6A0.2,0.2 0 0 0 7.6,10.6zM8.4,10.6A0.2,0.2 0 0 0 8.8,10.6A0.2,0.2 0 0 0 8.4,10.6zM8.8,10.6A0.2,0.2 0 0 0 9.2,10.6A0.2,0.2 0 0 0 8.8,10.6zM11.2,10.6A0.2,0.2 0 0 0 11.6,10.6A0.2,0.2 0 0 0 11.2,10.6zM11.6,10.6A0.2,0.2 0 0 0 12,10.6A0.2,0.2 0 0 0 11.6,10.6zM12.8,10.6A0.2,0.2 0 0 0 13.2,10.6A0.2,0.2 0 0 0 12.8,10.6zM13.2,10.6A0.2,0.2 0 0 0 13.6,10.6A0.2,0.2 0 0 0 13.2,10.6zM13.6,10.6A0.2,0.2 0 0 0 14,10.6A0.2,0.2 0 0 0 13.6,10.6zM14,10.6A0.2,0.2 0 0 0 14.4,10.6A0.2,0.2 0 0 0 14,10.6zM1.6,11A0.2,0.2 0 0 0 2,11A0.2,0.2 0 0 0 1.6,11zM2.4,11A0.2,0.2 0 0 0 2.8,11A0.2,0.2 0 0 0 2.4,11zM3.6,11A0.2,0.2 0 0 0 4,11A0.2,0.2 0 0 0 3.6,11zM4.4,11A0.2,0.2 0 0 0 4.8,11A0.2,0.2 0 0 0 4.4,11zM4.8,11A0.2,0.2 0 0 0 5.2,11A0.2,0.2 0 0 0 4.8,11zM5.2,11A0.2,0.2 0 0 0 5.6,11A0.2,0.2 0 0 0 5.2,11zM6.4,11A0.2,0.2 0 0 0 6.8,11A0.2,0.2 0 0 0 6.4,11zM6.8,11A0.2,0.2 0 0 0 7.2,11A0.2,0.2 0 0 0 6.8,11zM8,11A0.2,0.2 0 0 0 8.4,11A0.2,0.2 0 0 0 8,11zM10,11A0.2,0.2 0 0 0 10.4,11A0.2,0.2 0 0 0 10,11zM10.8,11A0.2,0.2 0 0 0 11.2,11A0.2,0.2 0 0 0 10.8,11zM11.2,11A0.2,0.2 0 0 0 11.6,11A0.2,0.2 0 0 0 11.2,11zM11.6,11A0.2,0.2 0 0 0 12,11A0.2,0.2 0 0 0 11.6,11zM12,11A0.2,0.2 0 0 0 12.4,11A0.2,0.2 0 0 0 12,11zM13.2,11A0.2,0.2 0 0 0 13.6,11A0.2,0.2 0 0 0 13.2,11zM13.6,11A0.2,0.2 0 0 0 14,11A0.2,0.2 0 0 0 13.6,11zM14,11A0.2,0.2 0 0 0 14.4,11A0.2,0.2 0 0 0 14,11zM1.6,11.4A0.2,0.2 0 0 0 2,11.4A0.2,0.2 0 0 0 1.6,11.4zM2.8,11.4A0.2,0.2 0 0 0 3.2,11.4A0.2,0.2 0 0 0 2.8,11.4zM3.2,11.4A0.2,0.2 0 0 0 3.6,11.4A0.2,0.2 0 0 0 3.2,11.4zM3.6,11.4A0.2,0.2 0 0 0 4,11.4A0.2,0.2 0 0 0 3.6,11.4zM4,11.4A0.2,0.2 0 0 0 4.4,11.4A0.2,0.2 0 0 0 4,11.4zM5.2,11.4A0.2,0.2 0 0 0 5.6,11.4A0.2,0.2 0 0 0 5.2,11.4zM6.4,11.4A0.2,0.2 0 0 0 6.8,11.4A0.2,0.2 0 0 0 6.4,11.4zM6.8,11.4A0.2,0.2 0 0 0 7.2,11.4A0.2,0.2 0 0 0 6.8,11.4zM7.2,11.4A0.2,0.2 0 0 0 7.6,11.4A0.2,0.2 0 0 0 7.2,11.4zM7.6,11.4A0.2,0.2 0 0 0 8,11.4A0.2,0.2 0 0 0 7.6,11.4zM9.2,11.4A0.2,0.2 0 0 0 9.6,11.4A0.2,0.2 0 0 0 9.2,11.4zM10,11.4A0.2,0.2 0 0 0 10.4,11.4A0.2,0.2 0 0 0 10,11.4zM10.4,11.4A0.2,0.2 0 0 0 10.8,11.4A0.2,0.2 0 0 0 10.4,11.4zM11.2,11.4A0.2,0.2 0 0 0 11.6,11.4A0.2,0.2 0 0 0 11.2,11.4zM11.6,11.4A0.2,0.2 0 0 0 12,11.4A0.2,0.2 0 0 0 11.6,11.4zM12,11.4A0.2,0.2 0 0 0 12.4,11.4A0.2,0.2 0 0 0 12,11.4zM12.4,11.4A0.2,0.2 0 0 0 12.8,11.4A0.2,0.2 0 0 0 12.4,11.4zM12.8,11.4A0.2,0.2 0 0 0 13.2,11.4A0.2,0.2 0 0 0 12.8,11.4zM14,11.4A0.2,0.2 0 0 0 14.4,11.4A0.2,0.2 0 0 0 14,11.4zM4.8,11.8A0.2,0.2 0 0 0 5.2,11.8A0.2,0.2 0 0 0 4.8,11.8zM5.2,11.8A0.2,0.2 0 0 0 5.6,11.8A0.2,0.2 0 0 0 5.2,11.8zM5.6,11.8A0.2,0.2 0 0 0 6,11.8A0.2,0.2 0 0 0 5.6,11.8zM6,11.8A0.2,0.2 0 0 0 6.4,11.8A0.2,0.2 0 0 0 6,11.8zM6.4,11.8A0.2,0.2 0 0 0 6.8,11.8A0.2,0.2 0 0 0 6.4,11.8zM8.4,11.8A0.2,0.2 0 0 0 8.8,11.8A0.2,0.2 0 0 0 8.4,11.8zM10,11.8A0.2,0.2 0 0 0 10.4,11.8A0.2,0.2 0 0 0 10,11.8zM11.2,11.8A0.2,0.2 0 0 0 11.6,11.8A0.2,0.2 0 0 0 11.2,11.8zM12.8,11.8A0.2,0.2 0 0 0 13.2,11.8A0.2,0.2 0 0 0 12.8,11.8zM13.2,11.8A0.2,0.2 0 0 0 13.6,11.8A0.2,0.2 0 0 0 13.2,11.8zM13.6,11.8A0.2,0.2 0 0 0 14,11.8A0.2,0.2 0 0 0 13.6,11.8zM14,11.8A0.2,0.2 0 0 0 14.4,11.8A0.2,0.2 0 0 0 14,11.8zM14.4,11.8A0.2,0.2 0 0 0 14.8,11.8A0.2,0.2 0 0 0 14.4,11.8zM1.6,12H2V12.4H1.6zM2,12H2.4V12.4H2zM2.4,12H2.8V12.4H2.4zM2.8,12H3.2V12.4H2.8zM3.2,12H3.6V12.4H3.2zM3.6,12H4V12.4H3.6zM4,12H4.4V12.4H4zM5.2,12.2A0.2,0.2 0 0 0 5.6,12.2A0.2,0.2 0 0 0 5.2,12.2zM6.4,12.2A0.2,0.2 0 0 0 6.8,12.2A0.2,0.2 0 0 0 6.4,12.2zM8.4,12.2A0.2,0.2 0 0 0 8.8,12.2A0.2,0.2 0 0 0 8.4,12.2zM8.8,12.2A0.2,0.2 0 0 0 9.2,12.2A0.2,0.2 0 0 0 8.8,12.2zM9.2,12.2A0.2,0.2 0 0 0 9.6,12.2A0.2,0.2 0 0 0 9.2,12.2zM10.4,12.2A0.2,0.2 0 0 0 10.8,12.2A0.2,0.2 0 0 0 10.4,12.2zM10.8,12.2A0.2,0.2 0 0 0 11.2,12.2A0.2,0.2 0 0 0 10.8,12.2zM11.2,12.2A0.2,0.2 0 0 0 11.6,12.2A0.2,0.2 0 0 0 11.2,12.2zM12,12.2A0.2,0.2 0 0 0 12.4,12.2A0.2,0.2 0 0 0 12,12.2zM12.8,12.2A0.2,0.2 0 0 0 13.2,12.2A0.2,0.2 0 0 0 12.8,12.2zM13.2,12.2A0.2,0.2 0 0 0 13.6,12.2A0.2,0.2 0 0 0 13.2,12.2zM13.6,12.2A0.2,0.2 0 0 0 14,12.2A0.2,0.2 0 0 0 13.6,12.2zM14,12.2A0.2,0.2 0 0 0 14.4,12.2A0.2,0.2 0 0 0 14,12.2zM1.6,12.4H2V12.8H1.6zM4,12.4H4.4V12.8H4zM5.6,12.6A0.2,0.2 0 0 0 6,12.6A0.2,0.2 0 0 0 5.6,12.6zM7.2,12.6A0.2,0.2 0 0 0 7.6,12.6A0.2,0.2 0 0 0 7.2,12.6zM7.6,12.6A0.2,0.2 0 0 0 8,12.6A0.2,0.2 0 0 0 7.6,12.6zM8.4,12.6A0.2,0.2 0 0 0 8.8,12.6A0.2,0.2 0 0 0 8.4,12.6zM8.8,12.6A0.2,0.2 0 0 0 9.2,12.6A0.2,0.2 0 0 0 8.8,12.6zM10,12.6A0.2,0.2 0 0 0 10.4,12.6A0.2,0.2 0 0 0 10,12.6zM10.4,12.6A0.2,0.2 0 0 0 10.8,12.6A0.2,0.2 0 0 0 10.4,12.6zM10.8,12.6A0.2,0.2 0 0 0 11.2,12.6A0.2,0.2 0 0 0 10.8,12.6zM11.2,12.6A0.2,0.2 0 0 0 11.6,12.6A0.2,0.2 0 0 0 11.2,12.6zM12.8,12.6A0.2,0.2 0 0 0 13.2,12.6A0.2,0.2 0 0 0 12.8,12.6zM13.2,12.6A0.2,0.2 0 0 0 13.6,12.6A0.2,0.2 0 0 0 13.2,12.6zM13.6,12.6A0.2,0.2 0 0 0 14,12.6A0.2,0.2 0 0 0 13.6,12.6zM14,12.6A0.2,0.2 0 0 0 14.4,12.6A0.2,0.2 0 0 0 14,12.6zM1.6,12.8H2V13.2H1.6zM2.4,12.8H2.8V13.2H2.4zM2.8,12.8H3.2V13.2H2.8zM3.2,12.8H3.6V13.2H3.2zM4,12.8H4.4V13.2H4zM4.8,13A0.2,0.2 0 0 0 5.2,13A0.2,0.2 0 0 0 4.8,13zM5.6,13A0.2,0.2 0 0 0 6,13A0.2,0.2 0 0 0 5.6,13zM6.8,13A0.2,0.2 0 0 0 7.2,13A0.2,0.2 0 0 0 6.8,13zM7.2,13A0.2,0.2 0 0 0 7.6,13A0.2,0.2 0 0 0 7.2,13zM8,13A0.2,0.2 0 0 0 8.4,13A0.2,0.2 0 0 0 8,13zM8.4,13A0.2,0.2 0 0 0 8.8,13A0.2,0.2 0 0 0 8.4,13zM9.2,13A0.2,0.2 0 0 0 9.6,13A0.2,0.2 0 0 0 9.2,13zM9.6,13A0.2,0.2 0 0 0 10,13A0.2,0.2 0 0 0 9.6,13zM10,13A0.2,0.2 0 0 0 10.4,13A0.2,0.2 0 0 0 10,13zM11.2,13A0.2,0.2 0 0 0 11.6,13A0.2,0.2 0 0 0 11.2,13zM11.6,13A0.2,0.2 0 0 0 12,13A0.2,0.2 0 0 0 11.6,13zM12,13A0.2,0.2 0 0 0 12.4,13A0.2,0.2 0 0 0 12,13zM12.4,13A0.2,0.2 0 0 0 12.8,13A0.2,0.2 0 0 0 12.4,13zM12.8,13A0.2,0.2 0 0 0 13.2,13A0.2,0.2 0 0 0 12.8,13zM13.6,13A0.2,0.2 0 0 0 14,13A0.2,0.2 0 0 0 13.6,13zM1.6,13.2H2V13.6H1.6zM2.4,13.2H2.8V13.6H2.4zM2.8,13.2H3.2V13.6H2.8zM3.2,13.2H3.6V13.6H3.2zM4,13.2H4.4V13.6H4zM4.8,13.4A0.2,0.2 0 0 0 5.2,13.4A0.2,0.2 0 0 0 4.8,13.4zM7.2,13.4A0.2,0.2 0 0 0 7.6,13.4A0.2,0.2 0 0 0 7.2,13.4zM7.6,13.4A0.2,0.2 0 0 0 8,13.4A0.2,0.2 0 0 0 7.6,13.4zM8,13.4A0.2,0.2 0 0 0 8.4,13.4A0.2,0.2 0 0 0 8,13.4zM9.6,13.4A0.2,0.2 0 0 0 10,13.4A0.2,0.2 0 0 0 9.6,13.4zM10,13.4A0.2,0.2 0 0 0 10.4,13.4A0.2,0.2 0 0 0 10,13.4zM10.8,13.4A0.2,0.2 0 0 0 11.2,13.4A0.2,0.2 0 0 0 10.8,13.4zM11.6,13.4A0.2,0.2 0 0 0 12,13.4A0.2,0.2 0 0 0 11.6,13.4zM12.4,13.4A0.2,0.2 0 0 0 12.8,13.4A0.2,0.2 0 0 0 12.4,13.4zM13.2,13.4A0.2,0.2 0 0 0 13.6,13.4A0.2,0.2 0 0 0 13.2,13.4zM13.6,13.4A0.2,0.2 0 0 0 14,13.4A0.2,0.2 0 0 0 13.6,13.4zM14.4,13.4A0.2,0.2 0 0 0 14.8,13.4A0.2,0.2 0 0 0 14.4,13.4zM1.6,13.6H2V14H1.6zM2.4,13.6H2.8V14H2.4zM2.8,13.6H3.2V14H2.8zM3.2,13.6H3.6V14H3.2zM4,13.6H4.4V14H4zM4.8,13.8A0.2,0.2 0 0 0 5.2,13.8A0.2,0.2 0 0 0 4.8,13.8zM5.2,13.8A0.2,0.2 0 0 0 5.6,13.8A0.2,0.2 0 0 0 5.2,13.8zM6,13.8A0.2,0.2 0 0 0 6.4,13.8A0.2,0.2 0 0 0 6,13.8zM7.2,13.8A0.2,0.2 0 0 0 7.6,13.8A0.2,0.2 0 0 0 7.2,13.8zM7.6,13.8A0.2,0.2 0 0 0 8,13.8A0.2,0.2 0 0 0 7.6,13.8zM8,13.8A0.2,0.2 0 0 0 8.4,13.8A0.2,0.2 0 0 0 8,13.8zM8.4,13.8A0.2,0.2 0 0 0 8.8,13.8A0.2,0.2 0 0 0 8.4,13.8zM8.8,13.8A0.2,0.2 0 0 0 9.2,13.8A0.2,0.2 0 0 0 8.8,13.8zM9.6,13.8A0.2,0.2 0 0 0 10,13.8A0.2,0.2 0 0 0 9.6,13.8zM10,13.8A0.2,0.2 0 0 0 10.4,13.8A0.2,0.2 0 0 0 10,13.8zM10.8,13.8A0.2,0.2 0 0 0 11.2,13.8A0.2,0.2 0 0 0 10.8,13.8zM11.2,13.8A0.2,0.2 0 0 0 11.6,13.8A0.2,0.2 0 0 0 11.2,13.8zM11.6,13.8A0.2,0.2 0 0 0 12,13.8A0.2,0.2 0 0 0 11.6,13.8zM13.2,13.8A0.2,0.2 0 0 0 13.6,13.8A0.2,0.2 0 0 0 13.2,13.8zM1.6,14H2V14.4H1.6zM4,14H4.4V14.4H4zM5.6,14.2A0.2,0.2 0 0 0 6,14.2A0.2,0.2 0 0 0 5.6,14.2zM6.4,14.2A0.2,0.2 0 0 0 6.8,14.2A0.2,0.2 0 0 0 6.4,14.2zM6.8,14.2A0.2,0.2 0 0 0 7.2,14.2A0.2,0.2 0 0 0 6.8,14.2zM7.2,14.2A0.2,0.2 0 0 0 7.6,14.2A0.2,0.2 0 0 0 7.2,14.2zM10,14.2A0.2,0.2 0 0 0 10.4,14.2A0.2,0.2 0 0 0 10,14.2zM10.4,14.2A0.2,0.2 0 0 0 10.8,14.2A0.2,0.2 0 0 0 10.4,14.2zM10.8,14.2A0.2,0.2 0 0 0 11.2,14.2A0.2,0.2 0 0 0 10.8,14.2zM11.6,14.2A0.2,0.2 0 0 0 12,14.2A0.2,0.2 0 0 0 11.6,14.2zM12.4,14.2A0.2,0.2 0 0 0 12.8,14.2A0.2,0.2 0 0 0 12.4,14.2zM12.8,14.2A0.2,0.2 0 0 0 13.2,14.2A0.2,0.2 0 0 0 12.8,14.2zM13.6,14.2A0.2,0.2 0 0 0 14,14.2A0.2,0.2 0 0 0 13.6,14.2zM1.6,14.4H2V14.8H1.6zM2,14.4H2.4V14.8H2zM2.4,14.4H2.8V14.8H2.4zM2.8,14.4H3.2V14.8H2.8zM3.2,14.4H3.6V14.8H3.2zM3.6,14.4H4V14.8H3.6zM4,14.4H4.4V14.8H4zM5.2,14.6A0.2,0.2 0 0 0 5.6,14.6A0.2,0.2 0 0 0 5.2,14.6zM6.4,14.6A0.2,0.2 0 0 0 6.8,14.6A0.2,0.2 0 0 0 6.4,14.6zM6.8,14.6A0.2,0.2 0 0 0 7.2,14.6A0.2,0.2 0 0 0 6.8,14.6zM7.6,14.6A0.2,0.2 0 0 0 8,14.6A0.2,0.2 0 0 0 7.6,14.6zM8,14.6A0.2,0.2 0 0 0 8.4,14.6A0.2,0.2 0 0 0 8,14.6zM8.8,14.6A0.2,0.2 0 0 0 9.2,14.6A0.2,0.2 0 0 0 8.8,14.6zM9.2,14.6A0.2,0.2 0 0 0 9.6,14.6A0.2,0.2 0 0 0 9.2,14.6zM10,14.6A0.2,0.2 0 0 0 10.4,14.6A0.2,0.2 0 0 0 10,14.6zM10.4,14.6A0.2,0.2 0 0 0 10.8,14.6A0.2,0.2 0 0 0 10.4,14.6zM11.2,14.6A0.2,0.2 0 0 0 11.6,14.6A0.2,0.2 0 0 0 11.2,14.6zM12.4,14.6A0.2,0.2 0 0 0 12.8,14.6A0.2,0.2 0 0 0 12.4,14.6zM12.8,14.6A0.2,0.2 0 0 0 13.2,14.6A0.2,0.2 0 0 0 12.8,14.6zM13.2,14.6A0.2,0.2 0 0 0 13.6,14.6A0.2,0.2 0 0 0 13.2,14.6zM14,14.6A0.2,0.2 0 0 0 14.4,14.6A0.2,0.2 0 0 0 14,14.6z" id="qr-path" fill="#000000" fill-opacity="1" fill-rule="nonzero" stroke="none" /></svg>