<?xml version="1.0" encoding="UTF-8"?>
<svg version="1.1" viewBox="0 0 500 500" xmlns="http://www.w3.org/2000/svg"><title>Tether logo</title><g stroke-width="2.249"><path d="m250 0a250 250 0 0 0-250 250 250 250 0 0 0 250 250 250 250 0 0 0 250-250 250 250 0 0 0-250-250zm-119.76 122.95h231.45v56.631h-85.012v37.154l0.01758 0.02149c68.98 3.171 120.82 16.845 120.82 33.24s-51.843 30.069-120.82 33.24v119.04h-61.443v-119.04c-69.045-3.216-121.02-16.89-121.02-33.285s51.93-30.069 121.02-33.24v-37.131h-85.012v-56.631zm84.971 98.035c-60.993 2.699-106.58 13.313-106.58 26.043s45.519 23.346 106.58 26.045c3.958 0.20241 15.067 0.65235 30.945 0.65235 19.837 0 28.766-0.5399 30.498-0.65235l0.02344 0.04492c60.908-2.744 106.36-13.338 106.36-26.045 0-12.707-45.433-23.299-106.36-26.043v41.471c-1.777 0.15743-11.27 0.96875-30.229 0.96875-15.811 0-27.257-0.67638-31.238-0.96875v-41.516z"/></g></svg>
